<svg width="274" height="177" viewBox="0 0 274 177" fill="none" xmlns="http://www.w3.org/2000/svg">
    <rect width="274" height="177" rx="15" fill="#4BB0EC"/>
    <path d="M118.74 45.53L110.764 57.5295L103 45.53H94V79.5872H102.223V59.4352L107.588 67.7643H113.87L119.622 59.047V79.5872H127.845V45.53H118.74Z" fill="white"/>
    <path d="M117.152 96.7385L110.764 106.832L104.588 96.7385H94.9531L106.6 115.761V130.831H114.823V115.761L126.893 96.7385H117.152Z" fill="white"/>
    <path d="M162.008 96.1743C152.303 96.1743 144.433 104.08 144.433 113.75C144.433 123.455 152.338 131.326 162.008 131.326C171.678 131.326 179.584 123.455 179.584 113.75C179.584 104.045 171.714 96.1743 162.008 96.1743ZM171.396 113.785C171.396 118.938 167.196 123.138 162.044 123.138C156.891 123.138 152.691 118.938 152.691 113.785C152.691 108.633 156.891 104.433 162.044 104.433C167.196 104.397 171.396 108.597 171.396 113.785Z" fill="white"/>
    <path d="M162.008 45C152.303 45 144.433 52.9055 144.433 62.5756C144.433 72.281 152.338 80.1512 162.008 80.1512C171.678 80.1512 179.584 72.281 179.584 62.5756C179.584 52.8702 171.714 45 162.008 45ZM171.396 62.5756C171.396 67.7283 167.196 71.9281 162.044 71.9281C156.891 71.9281 152.691 67.7283 152.691 62.5756C152.691 57.4229 156.891 53.2231 162.044 53.2231C167.196 53.2231 171.396 57.4229 171.396 62.5756Z" fill="white"/>
</svg>
