<svg width="274" height="177" viewBox="0 0 274 177" fill="none" xmlns="http://www.w3.org/2000/svg">
    <rect width="274" height="177" rx="15" fill="#EC320C"/>
    <path fill-rule="evenodd" clip-rule="evenodd" d="M135.74 29C163.091 29 195 44.3429 195 84.2343C195 124.126 155.494 139.468 123.584 128.729C124.654 132.691 128.547 136.563 135.74 139.468C143.338 142.537 155.494 142.537 155.494 142.537V145.606C129.662 148.163 78 139.468 78 84.2343C78 47.957 108.39 29 135.74 29ZM147.986 87.5001C147.986 97.3543 140.019 105.343 130.191 105.343C120.363 105.343 112.397 97.3543 112.397 87.5001C112.397 77.6458 120.363 69.6575 130.191 69.6575C140.019 69.6575 147.986 77.6458 147.986 87.5001ZM136.662 87.5001C136.662 91.0833 133.765 93.9882 130.191 93.9882C126.617 93.9882 123.72 91.0833 123.72 87.5001C123.72 83.9168 126.617 81.0119 130.191 81.0119C133.765 81.0119 136.662 83.9168 136.662 87.5001ZM186.81 87.5001C186.81 97.3543 178.843 105.343 169.015 105.343C159.188 105.343 151.221 97.3543 151.221 87.5001C151.221 77.6458 159.188 69.6575 169.015 69.6575C178.843 69.6575 186.81 77.6458 186.81 87.5001ZM175.486 87.5001C175.486 91.0833 172.589 93.9882 169.015 93.9882C165.442 93.9882 162.545 91.0833 162.545 87.5001C162.545 83.9168 165.442 81.0119 169.015 81.0119C172.589 81.0119 175.486 83.9168 175.486 87.5001ZM109.582 71.2796H86.19V80.608H95.9339L87.4261 103.72H109.161V94.0549H100.844L109.582 71.2796Z" fill="white"/>
</svg>
