<svg width="169" height="70" viewBox="0 0 169 70" fill="none" xmlns="http://www.w3.org/2000/svg">
    <path d="M16.506 34.82C16.59 34.82 16.66 34.792 16.716 34.736C16.8 34.652 16.828 34.568 16.8 34.484L14.364 23.522C14.364 23.494 14.35 23.48 14.322 23.48C14.294 23.48 14.28 23.494 14.28 23.522L11.844 34.484C11.816 34.568 11.83 34.652 11.886 34.736C11.97 34.792 12.054 34.82 12.138 34.82H16.506ZM19.53 18.608L27.762 44.732C27.93 45.292 27.832 45.81 27.468 46.286C27.132 46.762 26.67 47 26.082 47H21.966C21.266 47 20.636 46.79 20.076 46.37C19.544 45.922 19.208 45.362 19.068 44.69L18.354 41.456C18.298 41.232 18.158 41.12 17.934 41.12H10.71C10.458 41.12 10.318 41.232 10.29 41.456L9.576 44.69C9.436 45.362 9.086 45.922 8.526 46.37C7.994 46.79 7.378 47 6.678 47H2.73C2.142 47 1.666 46.762 1.302 46.286C0.966 45.81 0.882 45.292 1.05 44.732L9.282 18.608C9.478 17.936 9.856 17.39 10.416 16.97C11.004 16.55 11.662 16.34 12.39 16.34H16.422C17.122 16.34 17.752 16.55 18.312 16.97C18.9 17.39 19.306 17.936 19.53 18.608ZM48.7948 16.34C49.4388 16.34 49.9988 16.578 50.4748 17.054C50.9508 17.53 51.1888 18.09 51.1888 18.734V20.876C51.1888 21.52 50.9508 22.08 50.4748 22.556C49.9988 23.032 49.4388 23.27 48.7948 23.27H40.4368C40.1848 23.27 40.0588 23.396 40.0588 23.648V44.606C40.0588 45.25 39.8208 45.81 39.3448 46.286C38.8688 46.762 38.3088 47 37.6648 47H33.8428C33.1988 47 32.6388 46.762 32.1628 46.286C31.6868 45.81 31.4488 45.25 31.4488 44.606V18.734C31.4488 18.09 31.6868 17.53 32.1628 17.054C32.6388 16.578 33.1988 16.34 33.8428 16.34H48.7948ZM79.4102 16.34C79.9982 16.34 80.4462 16.578 80.7542 17.054C81.0622 17.502 81.1042 17.992 80.8802 18.524L72.5642 38.18C71.3602 41.036 69.5822 43.22 67.2302 44.732C64.8782 46.216 61.7842 47.084 57.9482 47.336C57.3042 47.364 56.7442 47.154 56.2682 46.706C55.7922 46.23 55.5542 45.67 55.5542 45.026V43.094C55.5542 42.45 55.7782 41.904 56.2262 41.456C56.7022 40.98 57.2622 40.714 57.9062 40.658C59.6142 40.546 60.8462 40.294 61.6022 39.902C62.3582 39.51 62.8902 38.908 63.1982 38.096C63.2822 37.872 63.2822 37.648 63.1982 37.424L54.6302 18.524C54.4062 18.02 54.4482 17.53 54.7562 17.054C55.0642 16.578 55.4982 16.34 56.0582 16.34H60.8042C61.5322 16.34 62.1762 16.55 62.7362 16.97C63.3242 17.39 63.7162 17.936 63.9122 18.608L67.7762 30.578C67.7762 30.606 67.7902 30.62 67.8182 30.62C67.8462 30.62 67.8602 30.606 67.8602 30.578L71.7242 18.608C71.9482 17.936 72.3402 17.39 72.9002 16.97C73.4882 16.55 74.1322 16.34 74.8322 16.34H79.4102ZM103.886 40.07C104.446 39.902 104.95 39.986 105.398 40.322C105.874 40.658 106.112 41.12 106.112 41.708V43.976C106.112 44.704 105.888 45.348 105.44 45.908C105.02 46.468 104.46 46.804 103.76 46.916C101.856 47.252 99.84 47.42 97.712 47.42C92.952 47.42 89.242 46.076 86.582 43.388C83.922 40.7 82.592 36.794 82.592 31.67C82.592 26.658 83.88 22.78 86.456 20.036C89.032 17.292 92.644 15.92 97.292 15.92C99.42 15.92 101.436 16.088 103.34 16.424C104.04 16.536 104.6 16.872 105.02 17.432C105.468 17.992 105.692 18.636 105.692 19.364V21.716C105.692 22.304 105.454 22.78 104.978 23.144C104.53 23.48 104.026 23.564 103.466 23.396C101.73 22.892 100.022 22.64 98.342 22.64C96.102 22.64 94.352 23.41 93.092 24.95C91.832 26.462 91.202 28.702 91.202 31.67C91.202 34.582 91.888 36.836 93.26 38.432C94.632 40 96.466 40.784 98.762 40.784C100.526 40.784 102.234 40.546 103.886 40.07ZM134.011 16.34C134.655 16.34 135.215 16.578 135.691 17.054C136.167 17.53 136.405 18.09 136.405 18.734V44.606C136.405 45.25 136.167 45.81 135.691 46.286C135.215 46.762 134.655 47 134.011 47H130.819C130.175 47 129.615 46.762 129.139 46.286C128.663 45.81 128.425 45.25 128.425 44.606V30.242C128.425 30.214 128.411 30.2 128.383 30.2C128.355 30.2 128.341 30.214 128.341 30.242L121.075 44.858C120.375 46.286 119.227 47 117.631 47H114.439C113.795 47 113.235 46.762 112.759 46.286C112.283 45.81 112.045 45.25 112.045 44.606V18.734C112.045 18.09 112.283 17.53 112.759 17.054C113.235 16.578 113.795 16.34 114.439 16.34H117.631C118.275 16.34 118.835 16.578 119.311 17.054C119.787 17.53 120.025 18.09 120.025 18.734V33.098C120.025 33.126 120.039 33.14 120.067 33.14C120.095 33.14 120.109 33.126 120.109 33.098L127.375 18.482C128.075 17.054 129.223 16.34 130.819 16.34H134.011ZM159.067 31.334L166.963 44.942C167.243 45.39 167.243 45.852 166.963 46.328C166.683 46.776 166.277 47 165.745 47H160.873C159.277 47 158.115 46.3 157.387 44.9L151.003 32.762C151.003 32.734 150.989 32.72 150.961 32.72C150.933 32.72 150.919 32.734 150.919 32.762V44.606C150.919 45.25 150.681 45.81 150.205 46.286C149.729 46.762 149.169 47 148.525 47H144.913C144.269 47 143.709 46.762 143.233 46.286C142.757 45.81 142.519 45.25 142.519 44.606V18.734C142.519 18.09 142.757 17.53 143.233 17.054C143.709 16.578 144.269 16.34 144.913 16.34H148.525C149.169 16.34 149.729 16.578 150.205 17.054C150.681 17.53 150.919 18.09 150.919 18.734V29.318C150.919 29.346 150.933 29.36 150.961 29.36C150.989 29.36 151.003 29.346 151.003 29.318L156.925 18.44C157.681 17.04 158.857 16.34 160.453 16.34H165.325C165.857 16.34 166.249 16.578 166.501 17.054C166.781 17.502 166.781 17.95 166.501 18.398L159.067 30.746C158.927 30.914 158.927 31.11 159.067 31.334Z" fill="white"/>
    <path d="M37.556 57.97C37.7247 57.97 37.8713 58.0323 37.996 58.157C38.1207 58.2817 38.183 58.4283 38.183 58.597V65.373C38.183 65.5417 38.1207 65.6883 37.996 65.813C37.8713 65.9377 37.7247 66 37.556 66H36.72C36.5513 66 36.4047 65.9377 36.28 65.813C36.1553 65.6883 36.093 65.5417 36.093 65.373V61.611C36.093 61.6037 36.0893 61.6 36.082 61.6C36.0747 61.6 36.071 61.6037 36.071 61.611L34.168 65.439C33.9847 65.813 33.684 66 33.266 66H32.43C32.2613 66 32.1147 65.9377 31.99 65.813C31.8653 65.6883 31.803 65.5417 31.803 65.373V58.597C31.803 58.4283 31.8653 58.2817 31.99 58.157C32.1147 58.0323 32.2613 57.97 32.43 57.97H33.266C33.4347 57.97 33.5813 58.0323 33.706 58.157C33.8307 58.2817 33.893 58.4283 33.893 58.597V62.359C33.893 62.3663 33.8967 62.37 33.904 62.37C33.9113 62.37 33.915 62.3663 33.915 62.359L35.818 58.531C36.0013 58.157 36.302 57.97 36.72 57.97H37.556ZM44.4154 60.28C44.5841 60.28 44.7308 60.3423 44.8554 60.467C44.9801 60.5917 45.0424 60.7383 45.0424 60.907V65.373C45.0424 65.5417 44.9801 65.6883 44.8554 65.813C44.7308 65.9377 44.5841 66 44.4154 66H43.5354C43.3668 66 43.2201 65.9377 43.0954 65.813C42.9781 65.6883 42.9194 65.5417 42.9194 65.373V63.877C42.9194 63.8183 42.8864 63.789 42.8204 63.789H41.8964C41.8304 63.789 41.7974 63.8183 41.7974 63.877V65.373C41.7974 65.5417 41.7351 65.6883 41.6104 65.813C41.4931 65.9377 41.3501 66 41.1814 66H40.3014C40.1328 66 39.9861 65.9377 39.8614 65.813C39.7368 65.6883 39.6744 65.5417 39.6744 65.373V60.907C39.6744 60.7383 39.7368 60.5917 39.8614 60.467C39.9861 60.3423 40.1328 60.28 40.3014 60.28H41.1814C41.3501 60.28 41.4931 60.3423 41.6104 60.467C41.7351 60.5917 41.7974 60.7383 41.7974 60.907V62.238C41.7974 62.304 41.8304 62.337 41.8964 62.337H42.8204C42.8864 62.337 42.9194 62.304 42.9194 62.238V60.907C42.9194 60.7383 42.9781 60.5917 43.0954 60.467C43.2201 60.3423 43.3668 60.28 43.5354 60.28H44.4154ZM50.8423 60.28C51.0109 60.28 51.1576 60.3423 51.2823 60.467C51.4069 60.5917 51.4693 60.7383 51.4693 60.907V61.226C51.4693 61.3947 51.4069 61.5413 51.2823 61.666C51.1576 61.7907 51.0109 61.853 50.8423 61.853H49.9623C49.9036 61.853 49.8743 61.8823 49.8743 61.941V65.373C49.8743 65.5417 49.8119 65.6883 49.6873 65.813C49.5626 65.9377 49.4159 66 49.2473 66H48.3233C48.1546 66 48.0079 65.9377 47.8833 65.813C47.7586 65.6883 47.6963 65.5417 47.6963 65.373V61.941C47.6963 61.8823 47.6669 61.853 47.6083 61.853H46.7283C46.5596 61.853 46.4129 61.7907 46.2883 61.666C46.1636 61.5413 46.1013 61.3947 46.1013 61.226V60.907C46.1013 60.7383 46.1636 60.5917 46.2883 60.467C46.4129 60.3423 46.5596 60.28 46.7283 60.28H50.8423ZM55.8331 62.59C55.8991 62.59 55.9321 62.557 55.9321 62.491C55.9248 62.1537 55.8514 61.9117 55.7121 61.765C55.5801 61.6183 55.3784 61.545 55.1071 61.545C54.8211 61.545 54.6048 61.6183 54.4581 61.765C54.3188 61.9043 54.2308 62.15 54.1941 62.502C54.1941 62.5607 54.2234 62.59 54.2821 62.59H55.8331ZM55.0521 60.17C56.9148 60.17 57.8498 61.1527 57.8571 63.118C57.8571 63.294 57.7911 63.4443 57.6591 63.569C57.5271 63.6863 57.3694 63.745 57.1861 63.745H54.3041C54.2381 63.745 54.2124 63.778 54.2271 63.844C54.2931 64.152 54.4361 64.3683 54.6561 64.493C54.8834 64.6177 55.2354 64.68 55.7121 64.68C56.0128 64.68 56.3794 64.636 56.8121 64.548C56.9661 64.5113 57.1054 64.5443 57.2301 64.647C57.3548 64.7423 57.4171 64.8707 57.4171 65.032V65.208C57.4171 65.3913 57.3584 65.56 57.2411 65.714C57.1311 65.8607 56.9881 65.9487 56.8121 65.978C56.3648 66.066 55.8881 66.11 55.3821 66.11C54.3408 66.11 53.5378 65.857 52.9731 65.351C52.4158 64.8377 52.1371 64.1007 52.1371 63.14C52.1371 62.1867 52.3864 61.4533 52.8851 60.94C53.3838 60.4267 54.1061 60.17 55.0521 60.17ZM61.8837 64.57C62.1697 64.57 62.397 64.4527 62.5657 64.218C62.7344 63.976 62.8187 63.6167 62.8187 63.14C62.8187 62.1867 62.507 61.71 61.8837 61.71C61.649 61.71 61.4327 61.798 61.2347 61.974C61.044 62.15 60.9487 62.337 60.9487 62.535V63.745C60.9487 63.943 61.044 64.13 61.2347 64.306C61.4327 64.482 61.649 64.57 61.8837 64.57ZM62.6537 60.17C63.3284 60.17 63.8637 60.4267 64.2597 60.94C64.6557 61.446 64.8537 62.1793 64.8537 63.14C64.8537 64.0787 64.6447 64.8083 64.2267 65.329C63.816 65.8497 63.2917 66.11 62.6537 66.11C62.0744 66.11 61.5354 65.89 61.0367 65.45C61.0294 65.4427 61.022 65.439 61.0147 65.439C61.0074 65.439 61.0037 65.4427 61.0037 65.45V67.793C61.0037 67.9617 60.9414 68.1083 60.8167 68.233C60.692 68.3577 60.5454 68.42 60.3767 68.42H59.5407C59.372 68.42 59.2254 68.3577 59.1007 68.233C58.976 68.1083 58.9137 67.9617 58.9137 67.793V60.907C58.9137 60.7383 58.976 60.5917 59.1007 60.467C59.2254 60.3423 59.372 60.28 59.5407 60.28H60.2887C60.4647 60.28 60.615 60.3423 60.7397 60.467C60.8644 60.5843 60.9304 60.731 60.9377 60.907V60.995C60.9377 61.0023 60.9414 61.006 60.9487 61.006C60.956 61.006 60.9634 61.0023 60.9707 60.995C61.4254 60.445 61.9864 60.17 62.6537 60.17ZM70.6479 60.28C70.8165 60.28 70.9632 60.3423 71.0879 60.467C71.2125 60.5917 71.2749 60.7383 71.2749 60.907V65.373C71.2749 65.5417 71.2125 65.6883 71.0879 65.813C70.9632 65.9377 70.8165 66 70.6479 66H69.7679C69.5992 66 69.4525 65.9377 69.3279 65.813C69.2105 65.6883 69.1519 65.5417 69.1519 65.373V63.877C69.1519 63.8183 69.1189 63.789 69.0529 63.789H68.1289C68.0629 63.789 68.0299 63.8183 68.0299 63.877V65.373C68.0299 65.5417 67.9675 65.6883 67.8429 65.813C67.7255 65.9377 67.5825 66 67.4139 66H66.5339C66.3652 66 66.2185 65.9377 66.0939 65.813C65.9692 65.6883 65.9069 65.5417 65.9069 65.373V60.907C65.9069 60.7383 65.9692 60.5917 66.0939 60.467C66.2185 60.3423 66.3652 60.28 66.5339 60.28H67.4139C67.5825 60.28 67.7255 60.3423 67.8429 60.467C67.9675 60.5917 68.0299 60.7383 68.0299 60.907V62.238C68.0299 62.304 68.0629 62.337 68.1289 62.337H69.0529C69.1189 62.337 69.1519 62.304 69.1519 62.238V60.907C69.1519 60.7383 69.2105 60.5917 69.3279 60.467C69.4525 60.3423 69.5992 60.28 69.7679 60.28H70.6479ZM75.9747 62.59C76.0407 62.59 76.0737 62.557 76.0737 62.491C76.0664 62.1537 75.993 61.9117 75.8537 61.765C75.7217 61.6183 75.52 61.545 75.2487 61.545C74.9627 61.545 74.7464 61.6183 74.5997 61.765C74.4604 61.9043 74.3724 62.15 74.3357 62.502C74.3357 62.5607 74.365 62.59 74.4237 62.59H75.9747ZM75.1937 60.17C77.0564 60.17 77.9914 61.1527 77.9987 63.118C77.9987 63.294 77.9327 63.4443 77.8007 63.569C77.6687 63.6863 77.511 63.745 77.3277 63.745H74.4457C74.3797 63.745 74.354 63.778 74.3687 63.844C74.4347 64.152 74.5777 64.3683 74.7977 64.493C75.025 64.6177 75.377 64.68 75.8537 64.68C76.1544 64.68 76.521 64.636 76.9537 64.548C77.1077 64.5113 77.247 64.5443 77.3717 64.647C77.4964 64.7423 77.5587 64.8707 77.5587 65.032V65.208C77.5587 65.3913 77.5 65.56 77.3827 65.714C77.2727 65.8607 77.1297 65.9487 76.9537 65.978C76.5064 66.066 76.0297 66.11 75.5237 66.11C74.4824 66.11 73.6794 65.857 73.1147 65.351C72.5574 64.8377 72.2787 64.1007 72.2787 63.14C72.2787 62.1867 72.528 61.4533 73.0267 60.94C73.5254 60.4267 74.2477 60.17 75.1937 60.17ZM83.4663 60.28C83.635 60.28 83.7816 60.3423 83.9063 60.467C84.031 60.5917 84.0933 60.7383 84.0933 60.907V61.226C84.0933 61.3947 84.031 61.5413 83.9063 61.666C83.7816 61.7907 83.635 61.853 83.4663 61.853H82.5863C82.5276 61.853 82.4983 61.8823 82.4983 61.941V65.373C82.4983 65.5417 82.436 65.6883 82.3113 65.813C82.1866 65.9377 82.04 66 81.8713 66H80.9473C80.7786 66 80.632 65.9377 80.5073 65.813C80.3826 65.6883 80.3203 65.5417 80.3203 65.373V61.941C80.3203 61.8823 80.291 61.853 80.2323 61.853H79.3523C79.1836 61.853 79.037 61.7907 78.9123 61.666C78.7876 61.5413 78.7253 61.3947 78.7253 61.226V60.907C78.7253 60.7383 78.7876 60.5917 78.9123 60.467C79.037 60.3423 79.1836 60.28 79.3523 60.28H83.4663ZM88.5341 61.985C88.7028 61.985 88.8495 62.0473 88.9741 62.172C89.0988 62.2967 89.1611 62.4433 89.1611 62.612V63.008C89.1611 63.1767 89.0988 63.3233 88.9741 63.448C88.8495 63.5727 88.7028 63.635 88.5341 63.635H85.8281C85.6595 63.635 85.5128 63.5727 85.3881 63.448C85.2635 63.3233 85.2011 63.1767 85.2011 63.008V62.612C85.2011 62.4433 85.2635 62.2967 85.3881 62.172C85.5128 62.0473 85.6595 61.985 85.8281 61.985H88.5341ZM96.6312 60.28C96.7998 60.28 96.9428 60.3423 97.0602 60.467C97.1848 60.5917 97.2472 60.7383 97.2472 60.907V65.373C97.2472 65.5417 97.1848 65.6883 97.0602 65.813C96.9428 65.9377 96.7998 66 96.6312 66H95.8282C95.6595 66 95.5128 65.9377 95.3882 65.813C95.2635 65.6883 95.2012 65.5417 95.2012 65.373V63.151L95.1902 63.14L95.1792 63.151L94.8382 64.229C94.7795 64.405 94.6732 64.548 94.5192 64.658C94.3725 64.768 94.2075 64.823 94.0242 64.823H93.7932C93.6098 64.823 93.4412 64.768 93.2872 64.658C93.1405 64.548 93.0378 64.405 92.9792 64.229L92.6272 63.151L92.6162 63.14V63.151V65.373C92.6162 65.5417 92.5538 65.6883 92.4292 65.813C92.3045 65.9377 92.1578 66 91.9892 66H91.2192C91.0505 66 90.9038 65.9377 90.7792 65.813C90.6618 65.6883 90.6032 65.5417 90.6032 65.373V60.907C90.6032 60.7383 90.6618 60.5917 90.7792 60.467C90.9038 60.3423 91.0505 60.28 91.2192 60.28H92.0772C92.2678 60.28 92.4402 60.335 92.5942 60.445C92.7482 60.5477 92.8582 60.687 92.9242 60.863L93.8922 63.371H93.9032H93.9142L94.8822 60.863C94.9482 60.687 95.0582 60.5477 95.2122 60.445C95.3662 60.335 95.5385 60.28 95.7292 60.28H96.6312ZM101.773 63.69V63.624C101.773 63.558 101.74 63.525 101.674 63.525H101.333C100.6 63.525 100.233 63.745 100.233 64.185C100.233 64.515 100.417 64.68 100.783 64.68C101.069 64.68 101.304 64.592 101.487 64.416C101.678 64.2327 101.773 63.9907 101.773 63.69ZM101.113 60.17C102.081 60.17 102.782 60.346 103.214 60.698C103.647 61.05 103.863 61.6073 103.863 62.37V65.373C103.863 65.5417 103.801 65.6883 103.676 65.813C103.552 65.9377 103.405 66 103.236 66H102.543C102.367 66 102.217 65.9413 102.092 65.824C101.968 65.6993 101.902 65.549 101.894 65.373V65.285C101.894 65.2777 101.891 65.274 101.883 65.274C101.876 65.274 101.869 65.2777 101.861 65.285C101.392 65.835 100.813 66.11 100.123 66.11C99.61 66.11 99.1883 65.9487 98.8583 65.626C98.5283 65.296 98.3633 64.8707 98.3633 64.35C98.3633 63.03 99.3533 62.37 101.333 62.37H101.674C101.74 62.37 101.773 62.337 101.773 62.271V62.26C101.773 61.82 101.517 61.6 101.003 61.6C100.563 61.6 99.995 61.666 99.2983 61.798C99.1443 61.8273 99.005 61.7943 98.8803 61.699C98.7556 61.5963 98.6933 61.4643 98.6933 61.303V61.127C98.6933 60.9437 98.7483 60.7787 98.8583 60.632C98.9756 60.4853 99.1223 60.3973 99.2983 60.368C100.024 60.236 100.629 60.17 101.113 60.17ZM109.514 60.28C109.683 60.28 109.829 60.3423 109.954 60.467C110.079 60.5917 110.141 60.7383 110.141 60.907V61.138C110.141 61.3067 110.079 61.4533 109.954 61.578C109.829 61.7027 109.683 61.765 109.514 61.765H107.479C107.42 61.765 107.391 61.798 107.391 61.864V65.373C107.391 65.5417 107.329 65.6883 107.204 65.813C107.079 65.9377 106.933 66 106.764 66H105.818C105.649 66 105.503 65.9377 105.378 65.813C105.253 65.6883 105.191 65.5417 105.191 65.373V60.907C105.191 60.7383 105.253 60.5917 105.378 60.467C105.503 60.3423 105.649 60.28 105.818 60.28H109.514ZM114.277 63.69V63.624C114.277 63.558 114.244 63.525 114.178 63.525H113.837C113.104 63.525 112.737 63.745 112.737 64.185C112.737 64.515 112.921 64.68 113.287 64.68C113.573 64.68 113.808 64.592 113.991 64.416C114.182 64.2327 114.277 63.9907 114.277 63.69ZM113.617 60.17C114.585 60.17 115.286 60.346 115.718 60.698C116.151 61.05 116.367 61.6073 116.367 62.37V65.373C116.367 65.5417 116.305 65.6883 116.18 65.813C116.056 65.9377 115.909 66 115.74 66H115.047C114.871 66 114.721 65.9413 114.596 65.824C114.472 65.6993 114.406 65.549 114.398 65.373V65.285C114.398 65.2777 114.395 65.274 114.387 65.274C114.38 65.274 114.373 65.2777 114.365 65.285C113.896 65.835 113.317 66.11 112.627 66.11C112.114 66.11 111.692 65.9487 111.362 65.626C111.032 65.296 110.867 64.8707 110.867 64.35C110.867 63.03 111.857 62.37 113.837 62.37H114.178C114.244 62.37 114.277 62.337 114.277 62.271V62.26C114.277 61.82 114.021 61.6 113.507 61.6C113.067 61.6 112.499 61.666 111.802 61.798C111.648 61.8273 111.509 61.7943 111.384 61.699C111.26 61.5963 111.197 61.4643 111.197 61.303V61.127C111.197 60.9437 111.252 60.7787 111.362 60.632C111.48 60.4853 111.626 60.3973 111.802 60.368C112.528 60.236 113.133 60.17 113.617 60.17ZM120.962 63.041C121.373 63.085 121.71 63.2427 121.974 63.514C122.238 63.7853 122.37 64.1007 122.37 64.46C122.37 64.9513 122.121 65.351 121.622 65.659C121.131 65.9597 120.427 66.11 119.51 66.11C119.041 66.11 118.531 66.0513 117.981 65.934C117.798 65.8973 117.647 65.8057 117.53 65.659C117.42 65.5123 117.365 65.3437 117.365 65.153V64.922C117.365 64.768 117.427 64.6433 117.552 64.548C117.677 64.4527 117.816 64.4233 117.97 64.46C118.432 64.57 118.909 64.625 119.4 64.625C120.023 64.625 120.335 64.4783 120.335 64.185C120.335 64.0383 120.232 63.9247 120.027 63.844C119.822 63.7633 119.448 63.7157 118.905 63.701C118.736 63.6937 118.593 63.6313 118.476 63.514C118.359 63.3893 118.3 63.2463 118.3 63.085C118.3 62.9237 118.359 62.7843 118.476 62.667C118.593 62.5423 118.736 62.4763 118.905 62.469C119.426 62.4543 119.785 62.4103 119.983 62.337C120.181 62.2563 120.28 62.139 120.28 61.985C120.28 61.7283 119.95 61.6 119.29 61.6C118.96 61.6 118.553 61.666 118.069 61.798C117.922 61.8347 117.787 61.809 117.662 61.721C117.537 61.633 117.475 61.512 117.475 61.358V61.127C117.475 60.9363 117.53 60.7677 117.64 60.621C117.757 60.467 117.904 60.3717 118.08 60.335C118.579 60.225 119.055 60.17 119.51 60.17C120.368 60.17 121.05 60.3167 121.556 60.61C122.062 60.9033 122.315 61.2517 122.315 61.655C122.315 62.315 121.86 62.7697 120.951 63.019C120.944 63.019 120.94 63.0227 120.94 63.03C120.94 63.0373 120.947 63.041 120.962 63.041ZM128.172 60.28C128.341 60.28 128.488 60.3423 128.612 60.467C128.737 60.5917 128.799 60.7383 128.799 60.907V65.373C128.799 65.5417 128.737 65.6883 128.612 65.813C128.488 65.9377 128.341 66 128.172 66H127.347C127.179 66 127.032 65.9377 126.907 65.813C126.783 65.6883 126.72 65.5417 126.72 65.373V63.151L126.709 63.14L126.698 63.151L125.752 65.428C125.679 65.604 125.565 65.7433 125.411 65.846C125.257 65.9487 125.085 66 124.894 66H124.058C123.89 66 123.743 65.9377 123.618 65.813C123.494 65.6883 123.431 65.5417 123.431 65.373V60.907C123.431 60.7383 123.494 60.5917 123.618 60.467C123.743 60.3423 123.89 60.28 124.058 60.28H124.894C125.063 60.28 125.206 60.3423 125.323 60.467C125.448 60.5917 125.51 60.7383 125.51 60.907V63.129L125.521 63.14L125.532 63.129L126.478 60.852C126.552 60.676 126.665 60.5367 126.819 60.434C126.981 60.3313 127.157 60.28 127.347 60.28H128.172ZM134.929 60.28C135.098 60.28 135.244 60.3423 135.369 60.467C135.494 60.5917 135.556 60.7383 135.556 60.907V65.373C135.556 65.5417 135.494 65.6883 135.369 65.813C135.244 65.9377 135.098 66 134.929 66H134.049C133.88 66 133.734 65.9377 133.609 65.813C133.492 65.6883 133.433 65.5417 133.433 65.373V63.877C133.433 63.8183 133.4 63.789 133.334 63.789H132.41C132.344 63.789 132.311 63.8183 132.311 63.877V65.373C132.311 65.5417 132.249 65.6883 132.124 65.813C132.007 65.9377 131.864 66 131.695 66H130.815C130.646 66 130.5 65.9377 130.375 65.813C130.25 65.6883 130.188 65.5417 130.188 65.373V60.907C130.188 60.7383 130.25 60.5917 130.375 60.467C130.5 60.3423 130.646 60.28 130.815 60.28H131.695C131.864 60.28 132.007 60.3423 132.124 60.467C132.249 60.5917 132.311 60.7383 132.311 60.907V62.238C132.311 62.304 132.344 62.337 132.41 62.337H133.334C133.4 62.337 133.433 62.304 133.433 62.238V60.907C133.433 60.7383 133.492 60.5917 133.609 60.467C133.734 60.3423 133.88 60.28 134.049 60.28H134.929Z" fill="white"/>
</svg>
