<svg width="120" height="53" viewBox="0 0 120 53" fill="none" xmlns="http://www.w3.org/2000/svg">
    <g clip-path="url(#clip0)">
        <path d="M93.5939 7.21582L84.5205 10.7087V15.582L90.667 13.2186C92.4231 12.5493 93.5939 10.8551 93.5939 8.97273V7.21582Z" fill="#104EFF"/>
        <path d="M84.8123 41.2245H92.0459C92.2132 41.2245 92.3386 41.099 92.3386 40.9317V16.6278C92.3386 16.4605 92.2132 16.335 92.0459 16.335H84.8123C84.645 16.335 84.5196 16.4605 84.5196 16.6278V40.9317C84.4987 41.099 84.645 41.2245 84.8123 41.2245Z" fill="#104EFF"/>
        <path d="M75.048 31.2478C75.048 30.5994 75.048 26.4163 75.048 22.7979H80.5674C80.7346 22.7979 80.8601 22.6724 80.8601 22.5051V16.6278C80.8601 16.4605 80.7346 16.335 80.5674 16.335H75.048C75.048 16.335 75.048 12.4238 75.048 11.7127C75.048 11.5454 74.9017 11.4199 74.7554 11.4199H67.3962C67.229 11.4199 67.0827 11.5454 67.1036 11.7127C67.1036 13.5742 67.1036 23.8646 67.1036 32.1472C67.1036 41.1618 75.3616 41.2245 78.2676 41.2245H80.651C80.8182 41.2245 80.9437 41.099 80.9437 40.9317V35.5146C80.9437 35.3473 80.8182 35.2218 80.651 35.2218C78.0795 35.159 75.048 34.5106 75.048 31.2478Z" fill="#104EFF"/>
        <path d="M6.03649 37.9199C6.03649 39.5094 5.17932 41.8311 0.391723 41.8729C0.224471 41.8729 0.078125 41.9984 0.078125 42.1657V47.5828C0.078125 47.7502 0.203564 47.8757 0.370817 47.8757H2.75416C5.66017 47.8757 13.9183 47.7711 13.9183 38.7565C13.9183 30.4112 13.9183 18.6357 13.9183 16.6278C13.9183 16.4605 13.7928 16.335 13.6256 16.335H6.35009C6.18283 16.335 6.05739 16.4605 6.05739 16.6278C6.03649 19.1377 6.03649 36.393 6.03649 37.9199Z" fill="#104EFF"/>
        <path d="M31.8762 32.1681C31.8762 34.2387 30.6427 35.4309 28.4476 35.4309C26.2524 35.4309 25.0189 34.2387 25.0189 32.1681C25.0189 30.6831 25.0189 18.6985 25.0189 16.6488C25.0189 16.4814 24.8725 16.3559 24.7262 16.3559H17.5134C17.3462 16.3559 17.1998 16.4814 17.2207 16.6488C17.2207 18.1338 17.2207 25.747 17.2207 33.0047C17.2207 42.1448 25.7088 42.1866 28.4685 42.1866C31.2281 42.1866 39.7162 42.1866 39.7162 33.0047V16.6278C39.7162 16.4605 39.5907 16.335 39.4235 16.335H32.1898C32.0226 16.335 31.8971 16.4605 31.8971 16.6278V32.1681H31.8762Z" fill="#104EFF"/>
        <path d="M104.382 25.4123C104.382 23.3417 105.615 22.1495 107.81 22.1495C110.005 22.1495 111.239 23.3417 111.239 25.4123C111.239 26.8974 111.239 38.882 111.239 40.9317C111.239 41.099 111.385 41.2245 111.532 41.2245H118.765C118.932 41.2245 119.079 41.099 119.058 40.9317C119.058 39.4467 119.058 31.8334 119.058 24.5757C119.058 15.4356 110.57 15.3938 107.81 15.3938C105.051 15.3938 96.5625 15.3938 96.5625 24.5757V40.9317C96.5625 41.099 96.6879 41.2245 96.8552 41.2245H104.089C104.256 41.2245 104.382 41.099 104.382 40.9317V25.4123Z" fill="#104EFF"/>
        <path d="M58.7211 26.7719C58.533 26.73 53.9336 25.9143 53.7245 25.8725C51.6547 25.496 50.3167 24.8476 50.3167 23.5091C50.3167 22.6306 50.9857 21.1665 53.7036 21.1665C56.6514 21.1665 57.0277 22.9443 57.0486 23.8019C57.0486 23.9692 57.195 24.0947 57.3413 24.0947H63.6551C63.8223 24.0947 63.9687 23.9483 63.9478 23.781C63.8432 20.8319 62.2962 15.4147 53.0764 15.4147C46.0727 15.4147 42.5813 18.9076 42.5813 23.8646C42.5813 27.6294 45.0692 29.6582 48.3724 30.453C50.693 31.0177 56.9859 31.0805 56.9859 33.925C56.9859 34.8034 56.3169 36.2675 53.599 36.2675C50.5467 36.2675 49.8986 34.3851 49.7941 33.5694C49.7732 33.423 49.6477 33.2975 49.5014 33.2975H42.7277C42.5604 33.2975 42.4141 33.4439 42.4141 33.6113C42.5186 36.0165 44.212 42.2285 53.4945 42.2285C60.8536 42.2285 64.5122 38.882 64.5122 33.7786C64.5122 30.0138 62.0453 27.5248 58.7211 26.7719Z" fill="#104EFF"/>
        <path d="M96.2478 0L84.54 4.4341V9.30742L93.3208 5.98185C95.0979 5.31255 96.2687 3.61839 96.2687 1.71508V0H96.2478Z" fill="#104EFF"/>
        <path d="M46.6999 51.1177H47.2225V53.0001H46.2399V52.0589H43.5012V53.0001H42.5186V51.1177H42.9994C43.2712 50.7412 43.4175 50.1765 43.4175 49.4444V47.1019H46.6999V51.1177ZM44.0656 51.1177H45.7173V48.0012H44.4002V49.4444C44.4002 50.1765 44.2956 50.7203 44.0656 51.1177Z" fill="#104EFF"/>
        <path d="M51.9675 51.4103C51.4658 51.9123 50.8595 52.1633 50.1487 52.1633C49.4378 52.1633 48.8315 51.9123 48.3298 51.4103C47.828 50.9084 47.5771 50.3018 47.5771 49.5907C47.5771 48.8796 47.828 48.2521 48.3298 47.771C48.8315 47.2691 49.4378 47.0181 50.1487 47.0181C50.8595 47.0181 51.4658 47.2691 51.9675 47.771C52.4693 48.273 52.7202 48.8796 52.7202 49.5907C52.7202 50.3018 52.4484 50.9084 51.9675 51.4103ZM48.9988 50.741C49.3124 51.0548 49.6887 51.2012 50.1277 51.2012C50.5877 51.2012 50.964 51.0548 51.2567 50.741C51.5703 50.4273 51.7166 50.0508 51.7166 49.5698C51.7166 49.0887 51.5703 48.7122 51.2567 48.3985C50.9431 48.0848 50.5668 47.9384 50.1277 47.9384C49.6678 47.9384 49.2915 48.0848 48.9988 48.3985C48.6852 48.7122 48.5389 49.0887 48.5389 49.5698C48.5389 50.0508 48.6852 50.4273 48.9988 50.741Z" fill="#104EFF"/>
        <path d="M55.7531 52.1425C55.0005 52.1425 54.3942 51.8915 53.9134 51.3895C53.4325 50.8875 53.1816 50.281 53.1816 49.5489C53.1816 48.8169 53.4325 48.2103 53.9134 47.7084C54.3942 47.2064 55.0214 46.9763 55.7531 46.9763C56.1922 46.9763 56.6103 47.0809 56.9866 47.2901C57.363 47.4992 57.6556 47.792 57.8647 48.1476L57.0284 48.6286C56.903 48.3986 56.7358 48.2312 56.5058 48.1058C56.2758 47.9803 56.0249 47.9175 55.7322 47.9175C55.2514 47.9175 54.8542 48.0639 54.5615 48.3777C54.2688 48.6705 54.1224 49.0679 54.1224 49.5489C54.1224 50.03 54.2688 50.4065 54.5615 50.7202C54.8542 51.013 55.2514 51.1803 55.7322 51.1803C56.0249 51.1803 56.2758 51.1176 56.5058 50.9921C56.7358 50.8666 56.903 50.6993 57.0284 50.4692L57.8647 50.9503C57.6556 51.3058 57.363 51.5987 56.9866 51.8078C56.6103 52.0379 56.1922 52.1425 55.7531 52.1425Z" fill="#104EFF"/>
        <path d="M61.7319 47.1019V48.0431H60.3939V52.0588H59.4113V48.0431H58.0732V47.1019H61.7319Z" fill="#104EFF"/>
        <path d="M65.0144 47.1019H65.997L64.5127 50.6993C64.1155 51.6614 63.4674 52.1216 62.5684 52.0588V51.1386C62.8402 51.1595 63.0492 51.1176 63.2165 51.034C63.3837 50.9294 63.5092 50.783 63.6137 50.5738L62.0039 47.1228H62.9865L64.0736 49.5072L65.0144 47.1019Z" fill="#104EFF"/>
        <path d="M70.2194 47.1019V52.0588H69.2368V48.0431H67.4806V52.0588H66.498V47.1019H70.2194Z" fill="#104EFF"/>
        <path d="M73.9415 47.1019H74.9033V52.0588H73.9415V50.0091H72.1018V52.0588H71.1191V47.1019H72.1018V49.0679H73.9415V47.1019Z" fill="#104EFF"/>
        <path d="M79.0217 52.0588L78.729 51.1595H76.7638L76.4711 52.0588H75.4258L77.161 47.1019H78.3736L80.1088 52.0588H79.0217ZM77.0565 50.2392H78.4154L77.7464 48.2104L77.0565 50.2392Z" fill="#104EFF"/>
        <path d="M86.1286 51.1177H86.6512V53.0001H85.6686V52.0589H82.9299V53.0001H81.9473V51.1177H82.4281C82.6999 50.7412 82.8462 50.1765 82.8462 49.4444V47.1019H86.1077V51.1177H86.1286ZM83.4943 51.1177H85.146V48.0012H83.8288V49.4444C83.8498 50.1765 83.7243 50.7203 83.4943 51.1177Z" fill="#104EFF"/>
        <path d="M91.3992 51.4103C90.8974 51.9123 90.2911 52.1633 89.5803 52.1633C88.8695 52.1633 88.2632 51.9123 87.7614 51.4103C87.2597 50.9084 87.0088 50.3018 87.0088 49.5907C87.0088 48.8796 87.2597 48.2521 87.7614 47.771C88.2632 47.2691 88.8695 47.0181 89.5803 47.0181C90.2911 47.0181 90.8974 47.2691 91.3992 47.771C91.9009 48.273 92.1518 48.8796 92.1518 49.5907C92.1518 50.3018 91.9009 50.9084 91.3992 51.4103ZM88.4304 50.741C88.744 51.0548 89.1204 51.2012 89.5594 51.2012C90.0193 51.2012 90.3956 51.0548 90.6883 50.741C91.0019 50.4273 91.1483 50.0508 91.1483 49.5698C91.1483 49.0887 91.0019 48.7122 90.6883 48.3985C90.3747 48.0848 89.9984 47.9384 89.5594 47.9384C89.0994 47.9384 88.7231 48.0848 88.4304 48.3985C88.1168 48.7122 87.9705 49.0887 87.9705 49.5698C87.9914 50.0508 88.1377 50.4273 88.4304 50.741Z" fill="#104EFF"/>
        <path d="M95.1818 52.1425C94.4292 52.1425 93.8229 51.8915 93.3421 51.3895C92.8612 50.8875 92.6104 50.281 92.6104 49.5489C92.6104 48.8169 92.8612 48.2103 93.3421 47.7084C93.8229 47.2064 94.4501 46.9763 95.1818 46.9763C95.6209 46.9763 96.039 47.0809 96.4153 47.2901C96.7916 47.4992 97.0843 47.792 97.2934 48.1476L96.4571 48.6286C96.3317 48.3986 96.1645 48.2312 95.9345 48.1058C95.7045 47.9803 95.4536 47.9175 95.1609 47.9175C94.6801 47.9175 94.2829 48.0639 93.9902 48.3777C93.6975 48.6705 93.5511 49.0679 93.5511 49.5489C93.5511 50.03 93.6975 50.4065 93.9902 50.7202C94.2829 51.013 94.6801 51.1803 95.1609 51.1803C95.4536 51.1803 95.7045 51.1176 95.9345 50.9921C96.1645 50.8666 96.3317 50.6993 96.4571 50.4692L97.2934 50.9503C97.0843 51.3058 96.7916 51.5987 96.4153 51.8078C96.0599 52.0379 95.6418 52.1425 95.1818 52.1425Z" fill="#104EFF"/>
        <path d="M101.161 47.1019V48.0431H99.8226V52.0588H98.84V48.0431H97.502V47.1019H101.161Z" fill="#104EFF"/>
        <path d="M104.527 52.0588L104.234 51.1595H102.269L101.976 52.0588H100.931L102.666 47.1019H103.878L105.614 52.0588H104.527ZM102.582 50.2392H103.941L103.272 48.2104L102.582 50.2392Z" fill="#104EFF"/>
        <path d="M109.063 49.4862C109.502 49.7371 109.712 50.1136 109.712 50.6156C109.712 51.0339 109.565 51.3895 109.273 51.6405C108.98 51.9124 108.604 52.0379 108.185 52.0379H106.095V47.0809H108.039C108.457 47.0809 108.813 47.2064 109.105 47.4783C109.398 47.7502 109.544 48.0639 109.544 48.4822C109.544 48.9005 109.377 49.2352 109.063 49.4862ZM108.039 48.0221H107.056V49.1097H108.039C108.185 49.1097 108.311 49.0678 108.415 48.9633C108.52 48.8587 108.562 48.7332 108.562 48.5659C108.562 48.4195 108.52 48.2731 108.415 48.1685C108.311 48.0639 108.185 48.0221 108.039 48.0221ZM108.185 51.1385C108.353 51.1385 108.478 51.0757 108.604 50.9712C108.708 50.8666 108.771 50.7202 108.771 50.5528C108.771 50.3855 108.708 50.26 108.604 50.1345C108.499 50.03 108.353 49.9672 108.185 49.9672H107.056V51.1385H108.185Z" fill="#104EFF"/>
        <path d="M114.228 52.0588H113.1L111.322 49.7372V52.0588H110.34V47.1019H111.322V49.298L113.016 47.1019H114.145L112.305 49.5072L114.228 52.0588Z" fill="#104EFF"/>
        <path d="M118.012 52.0588L117.719 51.1595H115.754L115.461 52.0588H114.416L116.151 47.1019H117.364L119.099 52.0588H118.012ZM116.068 50.2392H117.427L116.758 48.2104L116.068 50.2392Z" fill="#104EFF"/>
    </g>
    <defs>
        <clipPath id="clip0">
            <rect width="119" height="53" fill="white" transform="translate(0.078125)"/>
        </clipPath>
    </defs>
</svg>
