<svg width="1280" height="1186" viewBox="0 0 1280 1186" fill="none" xmlns="http://www.w3.org/2000/svg" xmlns:xlink="http://www.w3.org/1999/xlink">
    <path d="M0.0761719 8.3472C443.114 -29.8509 872.367 80.7473 1280.08 8.3472V1186H0.0761719V8.3472Z" fill="#C8D744"/>
    <path d="M526.449 185.911L650.002 185.911L650.002 62.4997L526.449 62.4997L526.449 185.911Z" fill="#B6C534"/>
    <path d="M402.895 309.323L526.449 309.323L526.449 185.913L402.895 185.913L402.895 309.323Z" fill="#B6C534"/>
    <path d="M279.343 185.911L402.896 185.911L402.896 62.4996L279.343 62.4996L279.343 185.911Z" fill="#B6C534"/>
    <path d="M32.2356 185.911L155.789 185.911L155.789 62.4998L32.2356 62.4998L32.2356 185.911Z" fill="#B6C534"/>
    <path d="M526.449 680.216L650.002 680.216L650.002 556.805L526.449 556.805L526.449 680.216Z" fill="#B6C534"/>
    <path d="M279.342 680.217L402.896 680.217L402.896 556.806L279.342 556.806L279.342 680.217Z" fill="#B6C534"/>
    <path d="M32.2356 680.217L155.789 680.217L155.789 556.806L32.2356 556.806L32.2356 680.217Z" fill="#B6C534"/>
    <path d="M155.788 309.322L279.341 309.322L279.341 185.911L155.788 185.911L155.788 309.322Z" fill="#B6C534"/>
    <path d="M526.449 432.735L650.002 432.735L650.002 309.324L526.449 309.324L526.449 432.735Z" fill="#B6C534"/>
    <path d="M402.895 556.147L526.449 556.147L526.449 432.736L402.895 432.736L402.895 556.147Z" fill="#B6C534"/>
    <path d="M279.342 432.735L402.896 432.735L402.896 309.324L279.342 309.324L279.342 432.735Z" fill="#B6C534"/>
    <path d="M32.2356 432.735L155.789 432.735L155.789 309.324L32.2356 309.324L32.2356 432.735Z" fill="#B6C534"/>
    <path d="M155.789 556.147L279.342 556.147L279.342 432.736L155.789 432.736L155.789 556.147Z" fill="#B6C534"/>
</svg>
