<svg width="69" height="100" viewBox="0 0 69 100" fill="none" xmlns="http://www.w3.org/2000/svg">
    <path d="M4.936 6.832L42.52 0.927997C43.864 0.735993 44.872 0.975993 45.544 1.648C46.216 2.31999 46.552 3.42399 46.552 4.96V80.56H63.688C66.568 80.56 68.008 81.904 68.008 84.592V95.824C68.008 98.608 66.568 100 63.688 100H4.936C2.056 100 0.616 98.608 0.616 95.824V84.592C0.616 81.904 2.056 80.56 4.936 80.56H22.792V23.392L4.936 26.272C2.056 26.656 0.616 25.456 0.616 22.672V11.44C0.616 8.944 2.056 7.408 4.936 6.832Z" fill="#F27B50"/>
</svg>
