<svg width="103" height="102" viewBox="0 0 103 102" fill="none" xmlns="http://www.w3.org/2000/svg">
    <path d="M51.6441 25.5314L26.3201 0.23584L0.996025 25.5314L26.3201 50.8269L51.6441 25.5314Z" fill="#C8D744"/>
    <path d="M51.6578 76.1962L26.3337 50.9006L1.00969 76.1962L26.3337 101.492L51.6578 76.1962Z" fill="#C8D744"/>
    <path d="M102.367 25.5209L77.0432 0.225342L51.7192 25.5209L77.0432 50.8165L102.367 25.5209Z" fill="#C8D744"/>
    <path d="M102.381 76.1854L77.0566 50.8899L51.7326 76.1854L77.0566 101.481L102.381 76.1854Z" fill="#C8D744"/>
    <g clip-path="url(#clip0)">
        <path d="M82.2592 60.985L79.766 46.8632C79.6613 46.2642 79.2245 45.8056 78.677 45.6388L74.5968 22.5295C74.4215 21.5329 74.5786 20.4888 75.0375 19.5884L75.3816 19.4633C76.5611 19.0344 77.1716 17.7269 76.7425 16.5485L76.1215 14.8442C75.6919 13.6657 74.383 13.056 73.2032 13.485L62.9685 17.2059C61.3186 17.8058 60.4647 19.6348 61.0652 21.283C61.5354 22.5734 62.7597 23.3763 64.0608 23.3763C64.4218 23.3763 64.7887 23.3146 65.1469 23.1843L68.1048 22.1088L70.7861 37.2905C70.8803 37.8237 71.3446 38.1989 71.8685 38.1989C71.932 38.1989 71.9963 38.1933 72.0608 38.1819C72.6593 38.0765 73.059 37.5064 72.9534 36.9084L70.2048 21.3454L72.4309 20.5361C72.2947 21.3189 72.2912 22.1247 72.4294 22.9107L76.4798 45.8521L74.5905 46.1848L73.8528 42.0044C73.7474 41.4066 73.1771 41.0071 72.5782 41.1127C71.9797 41.2181 71.5799 41.7882 71.6855 42.386L72.4529 46.7341C71.9967 47.0769 71.7425 47.6566 71.8471 48.2555L72.4001 51.389C72.4725 51.7989 72.3396 52.2203 72.0453 52.5149L58.8139 65.7313H47.4117C46.804 65.7313 46.3113 66.2235 46.3113 66.8305C46.3113 67.4376 46.804 67.9297 47.4117 67.9297H66.8995C66.9278 67.9297 67.003 67.9297 67.0494 68.0222C67.0958 68.1147 67.0507 68.1749 67.0339 68.1975L63.0263 73.5584C62.7182 73.9705 62.2268 74.2167 61.7118 74.2167H44.6042C44.5673 74.2167 44.5308 74.2113 44.4954 74.2004L36.1068 71.633C35.9599 71.5878 35.8075 71.5649 35.6534 71.5649H25.9078C24.9009 71.5649 24.0537 70.7798 24.0194 69.8146C24.0016 69.3154 24.1822 68.8433 24.5282 68.4853C24.8743 68.127 25.3394 67.9297 25.8378 67.9297H42.2767C42.8844 67.9297 43.3771 67.4376 43.3771 66.8305C43.3771 66.2235 42.8844 65.7313 42.2767 65.7313H38.5842C36.8454 60.1944 31.7242 56.3974 25.8373 56.3974C20.8192 56.3974 16.2692 59.1669 13.9657 63.6198C13.5927 64.3314 13.7255 65.1926 14.2961 65.7626L16.8353 68.299C16.7596 68.7708 16.7188 69.2541 16.7188 69.7469C16.7188 74.7701 20.8092 78.8567 25.8373 78.8567C29.3639 78.8567 32.5 76.8808 34.026 73.7633H35.5545L43.8506 76.3022C44.0949 76.3771 44.3484 76.4151 44.6043 76.4151H61.7123C62.9182 76.4151 64.0686 75.8388 64.7902 74.8737L68.7977 69.5127C69.3374 68.7909 69.4213 67.8422 69.0171 67.0369C68.7476 66.4997 68.2963 66.0994 67.7582 65.8915L73.8811 59.7756L74.3468 62.4132C72.0114 64.1271 70.6378 66.8157 70.6378 69.7467C70.6378 74.77 74.729 78.8565 79.7577 78.8565C84.7866 78.8565 88.8778 74.77 88.8778 69.7467C88.8774 65.6553 86.1365 62.086 82.2592 60.985ZM64.3942 21.1186C63.8848 21.3042 63.3189 21.0406 63.1333 20.5312C62.9478 20.022 63.2116 19.457 63.7213 19.2716L73.9561 15.5507C73.9632 15.5479 73.9854 15.5399 74.0142 15.5532C74.0426 15.5665 74.0508 15.5888 74.0535 15.596L74.6744 17.3C74.6888 17.3394 74.6682 17.3831 74.6288 17.3975L64.3942 21.1186ZM16.0431 64.3991C18.0064 60.8126 21.7346 58.5958 25.8371 58.5958C30.5178 58.5958 34.6208 61.4674 36.2579 65.7313H34.0262C32.5005 62.6133 29.364 60.6372 25.8373 60.6372C22.1771 60.6372 19.0159 62.8037 17.5655 65.9197L16.0431 64.3991ZM25.8371 76.6585C22.0228 76.6585 18.9195 73.5581 18.9195 69.747C18.9195 65.9361 22.0228 62.8357 25.8371 62.8357C28.1264 62.8357 30.1984 63.9334 31.4746 65.7315H25.8378C24.7368 65.7315 23.7093 66.1675 22.9446 66.9589C22.1802 67.7502 21.7808 68.7922 21.8202 69.893C21.8975 72.0633 23.6931 73.7634 25.908 73.7634H31.4743C30.198 75.5611 28.1263 76.6585 25.8371 76.6585ZM72.6778 57.8686L64.806 65.7315H61.9266L73.6029 54.0684C74.404 53.2661 74.7646 52.1215 74.5676 51.0071L74.1249 48.499L77.7088 47.868L81.4425 69.0163C81.4518 69.0693 81.4651 69.1218 81.4823 69.1729C81.5452 69.3611 81.5769 69.5543 81.5769 69.747C81.5769 70.749 80.7609 71.5643 79.7576 71.5643C78.8761 71.5643 78.1243 70.9359 77.9698 70.0699C77.9532 69.9771 77.9249 69.8877 77.8863 69.8036L75.9617 58.9027C75.8363 58.1884 75.3281 57.6087 74.6352 57.3902C73.9421 57.1718 73.1919 57.355 72.6778 57.8686ZM79.7573 76.6585C75.9421 76.6585 72.8382 73.5581 72.8382 69.747C72.8382 67.9127 73.5483 66.2041 74.7909 64.9316L75.7672 70.4612C75.7866 70.5712 75.8225 70.6766 75.873 70.7742C76.333 72.5241 77.9177 73.7627 79.7573 73.7627C81.974 73.7627 83.7775 71.9613 83.7775 69.747C83.7775 69.3463 83.7166 68.9477 83.5967 68.5608L82.7017 63.4911C85.0777 64.6083 86.6766 67.0247 86.6766 69.747C86.6766 73.5581 83.5727 76.6585 79.7573 76.6585Z" fill="#104DFD"/>
    </g>
    <defs>
        <clipPath id="clip0">
            <rect width="75.1216" height="75.0371" fill="white" transform="translate(13.7556 8.5835)"/>
        </clipPath>
    </defs>
</svg>
