<svg width="104" height="104" viewBox="0 0 104 104" fill="none" xmlns="http://www.w3.org/2000/svg">
    <g clip-path="url(#clip0)">
        <path d="M56.2817 103.004L56.2817 71.9L68.407 100.454L76.1509 97.293L64.3313 69.6564L85.5251 90.8683L91.4349 84.9534L69.5278 63.0277L98.3637 74.6534L101.522 66.9029L73.7055 55.6851L103.662 55.6851L103.662 47.3227L72.5846 47.3227L101.217 35.1871L97.9561 27.5386L70.343 39.2663L91.5368 18.0544L85.627 12.1396L63.618 34.0653L75.2339 5.30688L67.49 2.14549L56.2817 29.9861L56.2817 0.00390418L47.9265 0.00390382L47.9265 31.1079L35.8012 2.55341L28.1592 5.81677L39.8769 33.4534L18.5812 12.1395L12.6714 18.0544L34.6803 39.9801L5.84453 28.3544L2.68584 36.1049L30.5027 47.3227L0.444189 47.3227L0.444189 55.6851L31.6235 55.6851L2.99152 67.8207L6.25211 75.4693L33.9671 63.7415L12.7733 84.9534L18.6831 90.8683L40.5901 68.9425L28.9743 97.7009L36.7182 100.862L47.9265 73.0217L47.9265 103.004L56.2817 103.004ZM48.1303 61.294C46.8056 60.7841 45.5829 59.9683 44.564 58.9485C43.647 58.0306 42.8318 56.9089 42.3223 55.5831C41.8129 54.2574 41.5072 52.8297 41.5072 51.4019C41.5072 50.0762 41.8129 48.7504 42.3223 47.4247C42.8318 46.099 43.6469 44.8752 44.6659 43.9574C45.5829 43.0396 46.7038 42.2237 48.0284 41.7138C49.353 41.2039 50.7795 40.898 52.1041 40.898C53.4287 40.898 54.7533 41.2039 56.0779 41.6118C57.4025 42.1217 58.6253 42.9376 59.5423 43.9574C60.4593 44.8752 61.2745 45.997 61.784 47.3227C62.2934 48.6485 62.5991 50.0762 62.5991 51.5039C62.5991 52.8297 62.2934 54.1554 61.784 55.4811C61.2745 56.8069 60.4593 58.0306 59.4404 58.9485C58.5234 59.8663 57.4025 60.6821 56.0779 61.192C54.7533 61.7019 53.3268 62.0079 52.0022 62.0079C50.7795 62.1098 49.353 61.8039 48.1303 61.294Z" fill="#C8D744"/>
    </g>
    <g clip-path="url(#clip1)">
        <path d="M62.5181 49.2179V44.139C63.5332 42.8713 67.0322 38.1431 67.0322 33.2016C67.0322 30.7531 66.0201 28.5363 64.3918 26.9411V18.5069C64.3918 17.1314 62.191 17.0688 62.191 18.5069V25.3646C60.9922 24.7579 59.638 24.4133 58.2036 24.4133C55.7836 24.4133 53.4912 25.4026 51.8393 27.1128C50.1873 25.4024 47.895 24.4133 45.4749 24.4133C44.0406 24.4133 42.6863 24.7577 41.4876 25.3646V18.5069C41.4876 17.1314 39.2868 17.0688 39.2868 18.5069V26.9413C37.6585 28.5366 36.6464 30.7532 36.6464 33.2018C36.6464 38.2621 40.1316 42.8905 41.1604 44.1465V49.2179L23.9681 77.9824C22.6991 80.1057 23.6926 82.9404 26.0042 83.8188C28.5871 84.8005 31.2775 85.6375 34.0142 86.314C34.0692 87.9535 35.1256 89.44 36.7775 89.9879C41.654 91.605 46.7339 92.4396 51.8763 92.4685C51.9681 92.4689 52.0598 92.4692 52.1514 92.4692C57.3287 92.4692 62.3136 91.646 66.972 90.0216C68.6109 89.4501 69.6506 87.9368 69.6798 86.2924C72.4053 85.6183 75.0865 84.7869 77.6623 83.8142C79.9788 82.9392 80.9765 80.1008 79.7059 77.9749L62.5181 49.2179ZM38.8472 33.2018C38.8472 29.568 41.8204 26.6117 45.4749 26.6117C47.6539 26.6117 49.6949 27.6791 50.9347 29.4671C51.3654 30.0882 52.3132 30.0882 52.7438 29.4671C53.9836 27.6791 56.0247 26.6117 58.2036 26.6117C61.8582 26.6117 64.8314 29.568 64.8314 33.2018C64.8314 37.2579 61.8683 41.3936 60.8919 42.6459H57.4917C56.1146 42.6459 56.052 44.8442 57.4917 44.8442H60.3173V48.422H43.3612V44.8442H51.6436C53.0207 44.8442 53.0833 42.6459 51.6436 42.6459H42.7786C41.805 41.4249 38.8472 37.3715 38.8472 33.2018ZM66.2468 87.9462C61.7436 89.5165 56.9118 90.2975 51.8889 90.2701C46.9784 90.2426 42.1276 89.4456 37.4711 87.9013C36.5416 87.5931 36.0137 86.5617 36.2936 85.6337L38.4029 78.6344C38.7999 77.3173 36.7103 76.6235 36.2955 78.0008L34.4408 84.1553C31.8254 83.5045 29.2551 82.7021 26.7868 81.7641C25.7344 81.3642 25.2794 80.0771 25.8577 79.1092L42.8854 50.6202H44.547L37.9757 72.4257C37.5836 73.7259 39.6533 74.486 40.083 73.0594L46.8453 50.6203H56.8331L67.3974 85.6756C67.3993 85.6845 67.4002 85.6936 67.4022 85.7025C67.4047 85.7134 67.4096 85.7229 67.4123 85.7336C67.666 86.6618 67.1626 87.6268 66.2468 87.9462ZM77.9732 80.6425C77.7932 81.158 77.3962 81.5645 76.8841 81.7578C74.4151 82.6902 71.8458 83.4891 69.2329 84.1388L59.1317 50.6202H60.7931L77.8164 79.1018C78.095 79.5683 78.1522 80.1297 77.9732 80.6425Z" fill="#104DFD"/>
    </g>
    <defs>
        <clipPath id="clip0">
            <rect width="103" height="103.116" fill="white" transform="translate(103.662 0.00390625) rotate(90)"/>
        </clipPath>
        <clipPath id="clip1">
            <rect width="75.1216" height="75.0371" fill="white" transform="translate(14.2786 17.4419)"/>
        </clipPath>
    </defs>
</svg>
