<svg width="103" height="102" viewBox="0 0 103 102" fill="none" xmlns="http://www.w3.org/2000/svg">
    <path d="M51.3179 101.614C79.357 101.614 102.07 78.9273 102.07 50.9199C102.07 22.9124 79.357 0.225341 51.3179 0.22534C23.2789 0.225338 0.566314 22.9124 0.566312 50.9199C0.566311 78.9273 23.2789 101.614 51.3179 101.614ZM51.3179 16.3874C70.4126 16.3874 85.8894 31.8467 85.8894 50.9199C85.8894 69.993 70.4126 85.4524 51.3179 85.4524C32.2233 85.4524 16.847 69.993 16.847 50.9199C16.847 31.8467 32.2233 16.3874 51.3179 16.3874Z" fill="#C8D744"/>
    <path d="M30.7156 50.92C30.7156 39.5765 39.9615 30.3411 51.3178 30.3411C62.7746 30.3411 71.9199 39.5765 71.9199 50.92C71.9199 62.2636 62.7746 71.499 51.3178 71.499C39.9615 71.499 30.7156 62.2636 30.7156 50.92Z" fill="#C8D744"/>
    <g clip-path="url(#clip0)">
        <path d="M70.1283 11.0039H34.5102C31.1624 11.0039 28.439 13.7243 28.439 17.0683V87.7391C28.439 91.0831 31.1624 93.8035 34.5102 93.8035H70.1283C73.476 93.8035 76.1995 91.0831 76.1995 87.7391V17.0683C76.1995 13.7243 73.476 11.0039 70.1283 11.0039ZM73.771 76.8231H39.3672C38.6966 76.8231 38.153 77.3662 38.153 78.036C38.153 78.7058 38.6966 79.2489 39.3672 79.2489H73.771V87.7391C73.771 89.7455 72.1369 91.3777 70.1283 91.3777H34.5102C32.5015 91.3777 30.8675 89.7455 30.8675 87.7391V79.2489H34.5102C35.1808 79.2489 35.7245 78.7058 35.7245 78.036C35.7245 77.3662 35.1808 76.8231 34.5102 76.8231H30.8675V23.1328H73.771V76.8231ZM73.771 20.707H30.8675V17.0683C30.8675 15.0619 32.5015 13.4297 34.5102 13.4297H70.1283C72.1369 13.4297 73.771 15.0619 73.771 17.0683V20.707Z" fill="#104DFD"/>
        <path d="M57.1762 15.8555H52.3192C51.6486 15.8555 51.105 16.3985 51.105 17.0684C51.105 17.7382 51.6486 18.2812 52.3192 18.2812H57.1762C57.8468 18.2812 58.3905 17.7382 58.3905 17.0684C58.3905 16.3985 57.8468 15.8555 57.1762 15.8555Z" fill="#104DFD"/>
        <path d="M52.3193 81.6746C50.3106 81.6746 48.6765 83.3068 48.6765 85.3132C48.6765 87.3196 50.3106 88.9519 52.3193 88.9519C54.328 88.9519 55.962 87.3196 55.962 85.3132C55.962 83.3068 54.328 81.6746 52.3193 81.6746ZM52.3193 86.5261C51.6496 86.5261 51.105 85.9821 51.105 85.3132C51.105 84.6443 51.6496 84.1003 52.3193 84.1003C52.9889 84.1003 53.5335 84.6443 53.5335 85.3132C53.5335 85.9821 52.9889 86.5261 52.3193 86.5261Z" fill="#104DFD"/>
        <path d="M47.4623 18.2812C48.1329 18.2812 48.6766 17.7382 48.6766 17.0684C48.6766 16.3985 48.1329 15.8555 47.4623 15.8555C46.7917 15.8555 46.248 16.3985 46.248 17.0684C46.248 17.7382 46.7917 18.2812 47.4623 18.2812Z" fill="#104DFD"/>
    </g>
    <defs>
        <clipPath id="clip0">
            <rect width="82.8928" height="82.7995" fill="white" transform="translate(10.8728 11.0039)"/>
        </clipPath>
    </defs>
</svg>
