<svg width="534" height="534" viewBox="0 0 534 534" fill="none" xmlns="http://www.w3.org/2000/svg">
    <path d="M534 245.123H372.743L520.782 182.393L504.392 142.33L361.111 203.479L471.083 93.8322L440.418 63.2576L326.745 176.594L387.018 27.4116L346.836 11.0701L288.677 154.981V0H245.323V160.78L182.406 12.6515L142.752 29.5202L203.554 172.377L93.5822 62.7305L62.9168 93.305L176.59 207.169L27.4931 147.074L11.103 187.137L155.442 245.123H0V288.349H161.257L13.2178 351.08L30.1366 390.616L173.418 329.994L62.9168 440.168L93.5822 470.742L207.255 356.879L146.982 506.061L187.164 522.403L245.323 378.492V534H288.677V372.693L351.594 520.821L391.248 503.953L330.446 360.569L440.418 470.215L471.083 439.641L357.41 326.304L506.507 386.399L522.897 346.336L378.558 288.349H534V245.123ZM317.756 287.295C315.113 294.148 310.883 300.474 305.596 305.745C300.838 310.49 295.022 314.707 288.149 317.343C281.275 319.978 273.873 321.56 266.471 321.56C259.598 321.56 252.725 319.978 245.852 317.343C238.978 314.707 232.634 310.49 227.875 305.218C223.117 300.474 218.887 294.675 216.244 287.822C213.6 280.969 212.014 273.589 212.014 266.736C212.014 259.884 213.6 253.031 215.715 246.178C218.358 239.325 222.588 232.999 227.875 228.255C232.634 223.51 238.45 219.293 245.323 216.657C252.196 214.022 259.598 212.44 267 212.44C273.873 212.44 280.747 214.022 287.62 216.657C294.493 219.293 300.838 223.51 305.596 228.782C310.354 233.526 314.584 239.325 317.228 246.178C319.871 253.031 321.457 260.411 321.457 267.264C321.986 273.589 320.4 280.969 317.756 287.295Z" fill="#2CD5C4"/>
</svg>
