<svg width="230" height="343" viewBox="0 0 230 343" fill="none" xmlns="http://www.w3.org/2000/svg">
    <path fill-rule="evenodd" clip-rule="evenodd" d="M230.351 274.886V331.645L225.328 333.782L185.006 238.85V342.228H157.221V242.566L119.949 334.795L94.1973 324.322L132.825 228.715L59.9745 301.687L40.3219 282.093L111.139 211.485L19.3138 250.336L8.47098 224.999L103.346 184.796H0V157.094H99.6187L7.11562 119.932L17.6196 94.2562L113.172 132.769L40.3219 59.7969L59.9745 40.2025L130.453 110.472L91.4866 18.9188L116.9 8.10806L157.221 103.04V0H185.006V99.3237L222.279 7.09455L230.351 10.3774V61.3266L209.403 113.175L230.351 92.2891V209.642L229.055 209.12L230.351 210.412V249.601L211.775 231.08L230.351 274.886ZM195.849 195.945C199.237 192.566 201.948 188.512 203.642 184.12C205.337 180.066 206.353 175.337 206.014 171.283C206.014 166.891 204.998 162.161 203.304 157.769C201.609 153.377 198.899 149.661 195.849 146.621C192.8 143.242 188.733 140.54 184.329 138.85C179.924 137.161 175.519 136.148 171.114 136.148C166.37 136.148 161.626 137.161 157.221 138.85C152.816 140.54 149.089 143.242 146.04 146.283C142.651 149.323 139.941 153.377 138.246 157.769C136.891 162.161 135.875 166.553 135.875 170.945C135.875 175.337 136.891 180.066 138.585 184.458C140.279 188.85 142.99 192.566 146.04 195.607C149.089 198.985 153.155 201.688 157.56 203.377C161.965 205.066 166.37 206.08 170.775 206.08C175.519 206.08 180.262 205.066 184.667 203.377C189.072 201.688 192.8 198.985 195.849 195.945Z" fill="#00D6C5"/>
</svg>
