<svg width="71" height="102" viewBox="0 0 71 102" fill="none" xmlns="http://www.w3.org/2000/svg">
    <path d="M25.096 40.816H33.88C41.848 40.816 45.832 37.696 45.832 31.456V29.008C45.832 22.768 42.232 19.648 35.032 19.648C27.736 19.648 24.088 22.768 24.088 29.008V30.736C24.088 33.616 22.696 35.056 19.912 35.056H5.08C2.392 35.056 1.048 33.616 1.048 30.736V25.552C1.048 17.584 3.928 11.488 9.688 7.26399C15.544 3.04 24.088 0.927997 35.32 0.927997C57.88 0.927997 69.16 8.944 69.16 24.976V35.056C69.16 41.968 65.8 46.768 59.08 49.456C66.76 52.912 70.6 58.384 70.6 65.872V77.104C70.6 84.88 67.624 90.832 61.672 94.96C55.72 99.088 47.08 101.152 35.752 101.152C24.328 101.152 15.592 99.04 9.544 94.816C3.496 90.496 0.472 84.4 0.472 76.528V71.344C0.472 68.464 1.816 67.024 4.504 67.024H19.336C22.12 67.024 23.512 68.464 23.512 71.344V73.072C23.512 79.312 27.496 82.432 35.464 82.432C43.336 82.432 47.272 79.312 47.272 73.072V68.752C47.272 62.608 43.288 59.536 35.32 59.536H25.096C22.216 59.536 20.776 58.144 20.776 55.36V44.848C20.776 42.16 22.216 40.816 25.096 40.816Z" fill="#F27B50"/>
</svg>
