<svg width="72" height="100" viewBox="0 0 72 100" fill="none" xmlns="http://www.w3.org/2000/svg">
    <path d="M26.536 76.96V80.56H66.712C69.592 80.56 71.032 81.904 71.032 84.592V95.824C71.032 98.608 69.592 100 66.712 100H7.096C4.216 100 2.776 98.608 2.776 95.824V73.072C2.776 68.848 3.592 65.44 5.224 62.848C6.952 60.256 9.88 58 14.008 56.08L42.232 43.264C45.304 41.824 46.84 39.28 46.84 35.632V29.296C46.84 23.056 42.952 19.936 35.176 19.936C27.496 19.936 23.656 23.056 23.656 29.296V34.48C23.656 37.36 22.312 38.8 19.624 38.8H4.792C2.008 38.8 0.616 37.36 0.616 34.48V25.552C0.616 17.776 3.64 11.728 9.688 7.408C15.736 3.088 24.232 0.927997 35.176 0.927997C46.216 0.927997 54.808 3.136 60.952 7.552C67.192 11.968 70.312 17.968 70.312 25.552V34.768C70.312 46.384 65.656 54.352 56.344 58.672L32.008 69.76C29.704 70.816 28.216 71.776 27.544 72.64C26.872 73.504 26.536 74.944 26.536 76.96Z" fill="#F27B50"/>
</svg>
