<svg width="193" height="175" viewBox="40 0 140 175" fill="none" xmlns="http://www.w3.org/2000/svg">
    <rect x="60.5" y="106.5" width="39" height="124" rx="19.5" transform="rotate(-90 60.5 106.5)" fill="#232323"
          stroke="white"/>
    <g filter="url(#filter0_d_55_9)">
        <path d="M60 115L60 80C60 68.9543 68.9543 60 80 60L115 60L115 95C115 106.046 106.046 115 95 115L60 115Z"
              fill="#969696"/>
    </g>
    <path d="M63.2258 135.6L59.8498 143.152C59.3485 144.272 58.8418 145.029 58.3298 145.424C57.8178 145.808 57.1245 146 56.2498 146H56.0098C55.6898 146 55.5298 145.845 55.5298 145.536V144.304C55.5298 143.984 55.6898 143.824 56.0098 143.824H56.2498C56.5911 143.824 56.8631 143.76 57.0658 143.632C57.2791 143.493 57.4605 143.264 57.6098 142.944L54.4098 135.6C54.2711 135.28 54.3831 135.12 54.7458 135.12H56.6978C56.9538 135.12 57.1458 135.28 57.2738 135.6L58.4738 138.784C58.6338 139.2 58.7885 139.691 58.9378 140.256C59.2365 139.307 59.3911 138.816 59.4018 138.784L60.6178 135.6C60.7351 135.28 60.9218 135.12 61.1778 135.12H62.8738C63.0445 135.12 63.1618 135.163 63.2258 135.248C63.2898 135.333 63.2898 135.451 63.2258 135.6ZM68.4434 146H64.9074C64.5981 146 64.4434 145.84 64.4434 145.52V135.6C64.4434 135.28 64.5981 135.12 64.9074 135.12H67.9154C69.2381 135.12 70.2461 135.333 70.9394 135.76C71.6328 136.187 71.9794 136.805 71.9794 137.616V138.496C71.9794 139.243 71.6168 139.835 70.8914 140.272C71.9688 140.731 72.5074 141.371 72.5074 142.192V143.376C72.5074 144.208 72.1554 144.853 71.4514 145.312C70.7474 145.771 69.7448 146 68.4434 146ZM67.9154 137.2H67.0834V139.504H67.9154C68.3634 139.504 68.7154 139.413 68.9714 139.232C69.2381 139.04 69.3714 138.779 69.3714 138.448V138.032C69.3714 137.733 69.2594 137.52 69.0354 137.392C68.8221 137.264 68.4488 137.2 67.9154 137.2ZM68.4434 141.456H67.0834V143.92H68.4434C68.9021 143.92 69.2594 143.835 69.5154 143.664C69.7714 143.483 69.8994 143.227 69.8994 142.896V142.384C69.8994 142.107 69.7608 141.883 69.4834 141.712C69.2168 141.541 68.8701 141.456 68.4434 141.456ZM76.7903 135.6V145.52C76.7903 145.84 76.641 146 76.3423 146H74.6143C74.305 146 74.1503 145.84 74.1503 145.52V135.6C74.1503 135.28 74.305 135.12 74.6143 135.12H76.3423C76.641 135.12 76.7903 135.28 76.7903 135.6ZM89.0488 135.6V145.52C89.0488 145.84 88.8995 146 88.6008 146H86.9528C86.6435 146 86.4888 145.84 86.4888 145.52V140.432C86.2968 141.221 86.1261 141.787 85.9768 142.128L85.2728 143.872C85.1555 144.192 84.9475 144.352 84.6488 144.352H83.2568C82.9901 144.352 82.7875 144.192 82.6488 143.872L81.7688 141.84C81.6835 141.637 81.5448 141.184 81.3528 140.48V145.52C81.3528 145.84 81.2035 146 80.9048 146H79.3368C79.0275 146 78.8728 145.84 78.8728 145.52V135.6C78.8728 135.28 79.0275 135.12 79.3368 135.12H80.9688C81.1821 135.12 81.3368 135.237 81.4328 135.472L83.4968 140.272C83.6035 140.528 83.7581 140.949 83.9608 141.536C84.1315 141.045 84.2861 140.635 84.4248 140.304L86.4088 135.472C86.5048 135.237 86.6648 135.12 86.8888 135.12H88.6008C88.8995 135.12 89.0488 135.28 89.0488 135.6ZM99.1906 135.6L96.1506 140.464L99.5906 145.52C99.6759 145.648 99.6972 145.76 99.6546 145.856C99.6119 145.952 99.5106 146 99.3506 146H97.0786C96.8439 146 96.6199 145.84 96.4066 145.52L93.8946 141.6H93.7666V145.52C93.7666 145.84 93.6172 146 93.3186 146H91.5906C91.2812 146 91.1266 145.84 91.1266 145.52V135.6C91.1266 135.28 91.2812 135.12 91.5906 135.12H93.3186C93.6172 135.12 93.7666 135.28 93.7666 135.6V139.68H93.8946L96.3106 135.6C96.4919 135.28 96.7426 135.12 97.0626 135.12H98.9666C99.1266 135.12 99.2226 135.168 99.2546 135.264C99.2972 135.349 99.2759 135.461 99.1906 135.6ZM103.442 135.6V139.408H106.338V135.6C106.338 135.28 106.493 135.12 106.802 135.12H108.53C108.829 135.12 108.978 135.28 108.978 135.6V145.52C108.978 145.84 108.829 146 108.53 146H106.802C106.493 146 106.338 145.84 106.338 145.52V141.568H103.442V145.52C103.442 145.84 103.293 146 102.994 146H101.266C100.957 146 100.802 145.84 100.802 145.52V135.6C100.802 135.28 100.957 135.12 101.266 135.12H102.994C103.293 135.12 103.442 135.28 103.442 135.6ZM119.264 135.6L115.888 143.152C115.387 144.272 114.88 145.029 114.368 145.424C113.856 145.808 113.163 146 112.288 146H112.048C111.728 146 111.568 145.845 111.568 145.536V144.304C111.568 143.984 111.728 143.824 112.048 143.824H112.288C112.629 143.824 112.901 143.76 113.104 143.632C113.317 143.493 113.499 143.264 113.648 142.944L110.448 135.6C110.309 135.28 110.421 135.12 110.784 135.12H112.736C112.992 135.12 113.184 135.28 113.312 135.6L114.512 138.784C114.672 139.2 114.827 139.691 114.976 140.256C115.275 139.307 115.429 138.816 115.44 138.784L116.656 135.6C116.773 135.28 116.96 135.12 117.216 135.12H118.912C119.083 135.12 119.2 135.163 119.264 135.248C119.328 135.333 119.328 135.451 119.264 135.6ZM120.146 135.12H126.882C127.202 135.12 127.362 135.269 127.362 135.568V136.816C127.362 137.125 127.202 137.28 126.882 137.28H124.834V145.52C124.834 145.84 124.684 146 124.386 146H122.658C122.348 146 122.194 145.84 122.194 145.52V137.28H120.146C119.826 137.28 119.666 137.125 119.666 136.816V135.568C119.666 135.269 119.826 135.12 120.146 135.12ZM133.602 141.088L131.266 145.6C131.127 145.867 130.898 146 130.578 146H129.074C128.775 146 128.626 145.84 128.626 145.52V135.6C128.626 135.28 128.775 135.12 129.074 135.12H130.802C131.111 135.12 131.266 135.28 131.266 135.6V141.232C131.469 140.677 131.661 140.245 131.842 139.936L134.226 135.52C134.365 135.253 134.594 135.12 134.914 135.12H136.418C136.717 135.12 136.866 135.28 136.866 135.6V145.52C136.866 145.84 136.717 146 136.418 146H134.69C134.381 146 134.226 145.84 134.226 145.52V139.728C134.119 140.027 133.911 140.48 133.602 141.088ZM149.689 142.416V143.392C149.689 144.256 149.348 144.928 148.665 145.408C147.993 145.888 147.023 146.128 145.753 146.128C144.484 146.128 143.508 145.888 142.825 145.408C142.153 144.928 141.817 144.256 141.817 143.392V137.728C141.817 136.864 142.153 136.192 142.825 135.712C143.508 135.232 144.484 134.992 145.753 134.992C147.023 134.992 147.993 135.232 148.665 135.712C149.348 136.192 149.689 136.864 149.689 137.728V138.464C149.689 138.784 149.54 138.944 149.241 138.944H147.593C147.284 138.944 147.129 138.784 147.129 138.464V138.192C147.129 137.499 146.681 137.152 145.785 137.152C144.9 137.152 144.457 137.499 144.457 138.192V142.928C144.457 143.621 144.9 143.968 145.785 143.968C146.681 143.968 147.129 143.621 147.129 142.928V142.416C147.129 142.096 147.284 141.936 147.593 141.936H149.241C149.54 141.936 149.689 142.096 149.689 142.416ZM155.356 146H151.82C151.511 146 151.356 145.84 151.356 145.52V135.6C151.356 135.28 151.511 135.12 151.82 135.12H154.828C156.151 135.12 157.159 135.333 157.852 135.76C158.545 136.187 158.892 136.805 158.892 137.616V138.496C158.892 139.243 158.529 139.835 157.804 140.272C158.881 140.731 159.42 141.371 159.42 142.192V143.376C159.42 144.208 159.068 144.853 158.364 145.312C157.66 145.771 156.657 146 155.356 146ZM154.828 137.2H153.996V139.504H154.828C155.276 139.504 155.628 139.413 155.884 139.232C156.151 139.04 156.284 138.779 156.284 138.448V138.032C156.284 137.733 156.172 137.52 155.948 137.392C155.735 137.264 155.361 137.2 154.828 137.2ZM155.356 141.456H153.996V143.92H155.356C155.815 143.92 156.172 143.835 156.428 143.664C156.684 143.483 156.812 143.227 156.812 142.896V142.384C156.812 142.107 156.673 141.883 156.396 141.712C156.129 141.541 155.783 141.456 155.356 141.456ZM163.703 135.6V145.52C163.703 145.84 163.553 146 163.255 146H161.527C161.217 146 161.063 145.84 161.063 145.52V135.6C161.063 135.28 161.217 135.12 161.527 135.12H163.255C163.553 135.12 163.703 135.28 163.703 135.6ZM165.449 135.12H172.185C172.505 135.12 172.665 135.269 172.665 135.568V136.816C172.665 137.125 172.505 137.28 172.185 137.28H170.137V145.52C170.137 145.84 169.988 146 169.689 146H167.961C167.652 146 167.497 145.84 167.497 145.52V137.28H165.449C165.129 137.28 164.969 137.125 164.969 136.816V135.568C164.969 135.269 165.129 135.12 165.449 135.12ZM174.357 141.28V135.6C174.357 135.28 174.511 135.12 174.821 135.12H181.589C181.887 135.12 182.037 135.28 182.037 135.6V145.52C182.037 145.84 181.887 146 181.589 146H179.861C179.551 146 179.397 145.84 179.397 145.52V137.28H176.917V141.504C176.917 142.976 176.602 144.096 175.973 144.864C175.354 145.621 174.442 146 173.237 146H173.141C172.821 146 172.661 145.845 172.661 145.536V144.16C172.661 143.84 172.821 143.68 173.141 143.68H173.237C173.642 143.68 173.93 143.499 174.101 143.136C174.271 142.763 174.357 142.144 174.357 141.28ZM188.041 146.128C186.761 146.128 185.758 145.883 185.033 145.392C184.318 144.901 183.961 144.235 183.961 143.392V137.728C183.961 136.885 184.318 136.219 185.033 135.728C185.758 135.237 186.761 134.992 188.041 134.992C189.332 134.992 190.334 135.237 191.049 135.728C191.774 136.219 192.137 136.885 192.137 137.728V143.392C192.137 144.235 191.774 144.901 191.049 145.392C190.334 145.883 189.332 146.128 188.041 146.128ZM186.985 143.696C187.241 143.877 187.593 143.968 188.041 143.968C188.489 143.968 188.841 143.877 189.097 143.696C189.364 143.515 189.497 143.259 189.497 142.928V138.192C189.497 137.861 189.364 137.605 189.097 137.424C188.841 137.243 188.489 137.152 188.041 137.152C187.593 137.152 187.241 137.243 186.985 137.424C186.729 137.605 186.601 137.861 186.601 138.192V142.928C186.601 143.259 186.729 143.515 186.985 143.696Z"
          fill="white"/>
    <defs>
        <filter id="filter0_d_55_9" x="0" y="0" width="175" height="175" filterUnits="userSpaceOnUse"
                color-interpolation-filters="sRGB">
            <feFlood flood-opacity="0" result="BackgroundImageFix"/>
            <feColorMatrix in="SourceAlpha" type="matrix" values="0 0 0 0 0 0 0 0 0 0 0 0 0 0 0 0 0 0 127 0"
                           result="hardAlpha"/>
            <feOffset/>
            <feGaussianBlur stdDeviation="30"/>
            <feComposite in2="hardAlpha" operator="out"/>
            <feColorMatrix type="matrix" values="0 0 0 0 0.45 0 0 0 0 0.45 0 0 0 0 0.45 0 0 0 1 0"/>
            <feBlend mode="normal" in2="BackgroundImageFix" result="effect1_dropShadow_55_9"/>
            <feBlend mode="normal" in="SourceGraphic" in2="effect1_dropShadow_55_9" result="shape"/>
        </filter>
    </defs>
</svg>

