<svg width="221" height="49" viewBox="0 0 221 49" fill="none" xmlns="http://www.w3.org/2000/svg">
    <path d="M138.569 8.94856H139.498L138.724 0.768793L138.647 0.687805H138.415V0.768793L137.564 8.94856H137.641H138.569ZM142.98 9.51548V9.43449L144.295 2.14559V2.0646L144.063 1.98361L143.986 2.0646L141.123 9.02955L142.98 9.51548ZM141.587 12.674C142.129 12.674 142.67 12.1881 142.67 11.5402C142.67 10.8923 142.206 10.4063 141.587 10.4063C140.968 10.4063 140.504 10.8923 140.504 11.5402C140.504 12.1881 140.968 12.674 141.587 12.674ZM138.569 12.2691C139.111 12.2691 139.653 11.7831 139.653 11.1352C139.653 10.4873 139.188 10.0014 138.569 10.0014C137.95 10.0014 137.486 10.4873 137.486 11.1352C137.409 11.8641 137.95 12.2691 138.569 12.2691ZM134.159 9.51548L135.939 9.02955H136.016L133.076 2.0646L132.998 1.98361L132.843 2.0646L132.766 2.14559L134.082 9.43449L134.159 9.51548ZM134.391 11.4592C134.391 12.1071 134.855 12.593 135.474 12.593C136.016 12.593 136.558 12.1071 136.558 11.4592C136.558 10.8113 136.093 10.3254 135.474 10.3254C134.933 10.4063 134.391 10.8923 134.391 11.4592ZM10.2768 14.6987H0.914062C0.914062 14.6987 1.1462 17.0473 1.1462 21.0967V41.5867C1.1462 45.636 0.914062 47.9847 0.914062 47.9847L0.99144 48.0657H7.1043V47.9847C7.1043 47.9847 6.87217 45.636 6.87217 41.5867V35.5936L6.94954 35.5126C7.8007 35.5936 9.65777 35.6745 10.2768 35.6745C16.5444 35.6745 21.9609 31.7061 21.9609 24.9032C21.8835 18.4241 16.467 14.6987 10.2768 14.6987ZM9.96728 30.2484C9.27088 30.2484 7.56857 30.1674 6.87217 30.0054V20.1249H10.4316C13.604 20.1249 16.0801 21.4207 16.0801 24.9032C16.0801 28.3856 13.9136 30.2484 9.96728 30.2484ZM39.2935 17.3713C38.5971 15.6706 38.365 14.6987 38.365 14.6987L38.2876 14.6177H33.4128L33.3354 14.6987C33.3354 14.6987 33.1807 15.6706 32.4843 17.3713L21.7287 44.4212C20.8002 46.6889 19.8717 47.9847 19.8717 47.9847V48.0657H26.1393L26.2167 47.9847C26.2167 47.8227 26.3714 47.0128 27.1452 44.9881L29.0796 39.8859H42.9303L45.0195 44.9881C45.7159 46.9318 46.1028 47.9847 46.1028 47.9847L46.1802 48.0657H52.4478V47.9847C52.4478 47.9847 51.5966 46.7699 50.5907 44.4212L39.2935 17.3713ZM31.2462 34.3787L35.7341 22.6355H35.8115L40.6863 34.3787H31.2462ZM83.8632 14.6987L78.292 14.6177L78.2146 14.6987C78.2146 14.6987 78.4468 17.0473 78.4468 21.0967V37.8612H78.3694L61.1915 14.6987H55.0786C55.775 16.2375 56.1619 17.2903 56.1619 18.0192V41.5867C56.1619 45.636 55.9298 47.9847 55.9298 47.9847L56.0072 48.0657H61.5784L61.6558 47.9847C61.6558 47.9847 61.4236 45.636 61.4236 41.5867V24.4982H61.501L78.7563 47.9847H83.9406L84.018 47.9037C84.018 47.9037 83.7859 45.5551 83.7859 41.5057V21.0967C83.6311 17.0473 83.8632 14.6987 83.8632 14.6987ZM101.196 14.6987H90.5177L90.4404 14.7797C90.4404 14.7797 90.6725 17.1283 90.6725 21.1777V41.6676C90.6725 45.717 90.4404 48.0657 90.4404 48.0657L90.5177 48.1467H93.7676C95.9342 48.1467 98.3329 48.4706 101.041 48.4706C110.791 48.4706 117.755 41.2627 117.755 31.5442C117.755 21.6636 111.023 14.6987 101.196 14.6987ZM100.809 42.8015C99.2614 42.8015 97.8687 42.7205 97.0175 42.4775C96.5532 42.3155 96.3985 42.1536 96.3985 41.2627V20.1249H100.654C107.541 20.1249 111.951 24.9841 111.951 31.4632C111.951 37.8612 107.541 42.8015 100.809 42.8015ZM138.569 14.2128C129.361 14.2128 122.243 21.6636 122.243 31.3012C122.243 41.0197 129.361 48.3896 138.569 48.3896C147.855 48.3896 154.896 41.0197 154.896 31.3012C154.896 21.6636 147.855 14.2128 138.569 14.2128ZM138.569 42.9634C132.689 42.9634 128.046 37.9422 128.046 31.3822C128.046 24.8222 132.611 19.8009 138.569 19.8009C144.528 19.8009 149.093 24.8222 149.093 31.3822C149.093 37.8612 144.528 42.9634 138.569 42.9634ZM177.568 36.7274C176.794 35.4316 175.633 34.3787 174.395 33.9738V33.8928C177.723 33.1639 180.818 29.1145 180.818 25.0651C180.818 19.558 176.794 14.6987 170.527 14.6987H160.313L160.235 14.7797C160.235 14.7797 160.467 17.1283 160.467 21.1777V41.6676C160.467 45.717 160.235 48.0657 160.235 48.0657L160.313 48.1467H166.426L166.503 48.0657C166.503 48.0657 166.271 45.717 166.271 41.6676V35.2696C169.289 35.2696 170.527 35.9175 171.61 37.6992L174.241 41.9916C176.407 45.636 177.258 47.9037 177.258 47.9037L177.336 47.9847H184.609V47.9037C184.609 47.9037 182.752 45.5551 180.663 41.9916L177.568 36.7274ZM169.134 29.9244C168.437 29.9244 167.122 29.9244 166.271 29.7624V20.1249H169.753C173.157 20.1249 175.014 22.4735 175.014 25.1461C175.014 27.6567 173.157 29.9244 169.134 29.9244ZM218.424 44.4212L207.126 17.3713C206.43 15.6706 206.198 14.6987 206.198 14.6987L206.12 14.6177H201.168L201.091 14.6987C201.091 14.6987 200.936 15.6706 200.24 17.3713L189.562 44.4212C188.633 46.6889 187.704 47.9847 187.704 47.9847V48.0657H193.972L194.049 47.9847C194.049 47.8227 194.204 47.0128 194.978 44.9881L196.912 39.8859H210.763L212.852 44.9881C213.549 46.9318 213.936 47.9847 213.936 47.9847L214.013 48.0657H220.281V47.9847C220.281 47.9847 219.429 46.7699 218.424 44.4212ZM199.079 34.3787L203.567 22.6355H203.644L208.519 34.3787H199.079Z" fill="white"/>
</svg>
