<svg width="221" height="55" viewBox="0 0 221 55" fill="none" xmlns="http://www.w3.org/2000/svg">
    <path fill-rule="evenodd" clip-rule="evenodd" d="M15.1966 26.2349C15.3412 25.6441 15.4354 24.6638 15.1275 23.9034C14.4327 22.1583 11.9859 20.8194 9.30801 19.3541C5.73725 17.4002 1.75564 15.2215 0.969192 11.555C0.642413 9.97762 0.673835 8.72078 0.900066 7.30684C1.73587 2.1915 6.30449 0.343933 11.8974 0.343933C16.3467 0.343933 22.4925 1.41225 22.4925 8.26203V10.4678H14.6562V8.52597C14.6562 6.81038 13.569 5.67295 11.734 5.67295C9.76709 5.67295 9.0821 6.77897 8.86216 7.77816C8.78675 8.13636 8.74276 8.80877 8.89358 9.43719C9.27003 10.9991 11.6406 12.2524 14.3447 13.6821C18.0052 15.6174 22.2767 17.8758 23.0393 21.66C23.165 22.3323 23.4541 24.1108 23.0707 26.8255C22.3292 32.0667 17.6475 34.0085 11.9603 34.0085C6.04683 34.0085 0.529297 31.8906 0.529297 24.8837L0.535583 22.4518H8.96899V25.4934C8.96899 27.2152 10.163 28.3463 12.1362 28.3463C14.2226 28.3463 14.9327 27.2781 15.1966 26.2349ZM36.8528 32.7708L41.1575 4.2531H41.3334L45.5186 32.7708H53.9773L48.1707 1.33723H34.1883L28.3628 32.7708H36.8528ZM182.189 1.33723L182.616 26.0153H182.447L175.22 1.33723H163.543V32.444H171.279L170.845 6.91761H171.015L178.782 32.444H189.969V1.33723H182.189ZM77.8103 25.3681L81.6939 1.33723H94.5137L95.1925 32.7708H87.3372L87.1298 4.51076H86.9664L81.7128 32.7708H73.7381L68.4783 4.51076H68.3086L68.1139 32.7708H60.2397L60.9372 1.33723H73.7633L77.6407 25.3681H77.8103ZM117.34 23.846C117.648 24.6001 117.547 25.5553 117.409 26.146C117.151 27.1892 116.448 28.2387 114.374 28.2387C112.432 28.2387 111.244 27.1075 111.244 25.4234L111.238 22.407H102.893L102.88 24.8075C102.88 31.7453 108.347 33.8379 114.198 33.8379C119.822 33.8379 124.46 31.9212 125.195 26.7305C125.579 24.0345 125.308 22.2812 125.17 21.6214C124.411 17.8744 120.185 15.6378 116.562 13.7207C113.885 12.3035 111.536 11.0609 111.163 9.51174C111.012 8.88332 111.056 8.22349 111.131 7.88413C111.357 6.87237 112.03 5.79779 113.978 5.79779C115.8 5.79779 116.862 6.9038 116.862 8.6131V10.5361H124.642V8.34917C124.642 1.57479 118.547 0.512763 114.135 0.512763C108.605 0.512763 104.074 2.33519 103.257 7.41911C103.031 8.8142 103.006 10.0459 103.332 11.617C104.105 15.2492 108.048 17.4087 111.584 19.3449C114.233 20.7955 116.654 22.1207 117.34 23.846ZM146.751 25.7876C146.6 26.5606 145.922 28.0688 143.741 28.0688C141.541 28.0688 140.882 26.5543 140.706 25.7814C140.643 25.4482 140.63 24.9895 140.63 24.5811V1.32322H132.687V23.871C132.675 24.4428 132.731 25.6367 132.756 25.9321C133.309 31.8016 137.953 33.7057 143.735 33.7057C149.51 33.7057 154.148 31.8016 154.707 25.9321C154.738 25.6367 154.795 24.4491 154.776 23.871V1.32322H146.826V24.5874C146.833 24.9958 146.814 25.4482 146.751 25.7876ZM209.315 27.7366C211.59 27.7366 212.389 26.2976 212.533 25.4617C212.59 25.1036 212.609 24.6636 212.603 24.2678V19.7054H209.378V15.118H220.527V23.5577C220.521 24.1484 220.508 24.582 220.414 25.6315C219.892 31.3501 214.928 33.3925 209.359 33.3925C203.779 33.3925 198.827 31.3501 198.292 25.6315C198.206 24.582 198.193 24.1484 198.181 23.5577L198.187 10.3231C198.187 9.76381 198.255 8.77719 198.318 8.24933C199.016 2.37359 203.779 0.482038 209.359 0.482038C214.934 0.482038 219.817 2.36101 220.395 8.24933C220.496 9.24851 220.464 10.3231 220.464 10.3231V11.3726H212.54V9.61299C212.546 9.61928 212.527 8.86517 212.439 8.419C212.307 7.72144 211.703 6.12526 209.303 6.12526C207.009 6.12526 206.343 7.63347 206.173 8.419C206.079 8.83375 206.041 9.39305 206.041 9.90207V24.2803C206.035 24.6762 206.06 25.1162 206.123 25.4743C206.248 26.2976 207.041 27.7366 209.315 27.7366ZM3.08272 49.7113H6.63438L7.32898 51.9131H8.99341L5.73008 42.4246H4.01323L0.749908 51.9131H2.40123L3.08272 49.7113ZM6.21499 48.3352H3.489L4.83889 43.9841L6.21499 48.3352ZM14.3148 48.1124C15.241 48.3746 15.704 48.925 15.704 49.7638C15.704 50.4365 15.4856 50.9652 15.0488 51.3496C14.6206 51.7253 14.0396 51.9131 13.3057 51.9131H10.0948V44.7967H12.9256C13.6683 44.7967 14.2493 44.9715 14.6687 45.321C15.0881 45.6704 15.2977 46.151 15.2977 46.7625C15.2977 47.3916 14.9701 47.8416 14.3148 48.1124ZM11.615 47.7193H12.8601C13.1484 47.7193 13.3668 47.6451 13.5154 47.4965C13.6726 47.3391 13.7513 47.1296 13.7513 46.8674C13.7513 46.5965 13.6683 46.3868 13.5023 46.2384C13.3363 46.0898 13.1135 46.0155 12.8339 46.0155H11.615V47.7193ZM13.1615 50.6943C13.4673 50.6943 13.7032 50.6113 13.8692 50.4453C14.0352 50.2793 14.1182 50.0478 14.1182 49.7506C14.1182 49.4535 14.0309 49.2264 13.8561 49.0692C13.6814 48.912 13.4411 48.8332 13.1353 48.8332H11.615V50.6943H13.1615ZM18.2863 51.9131H19.8328V46.1073H21.7987V44.7967H16.3335V46.1073H18.2863V51.9131ZM25.6784 52.0836C24.6823 52.0836 23.9178 51.7691 23.3848 51.1399C22.8518 50.5108 22.5854 49.5847 22.5854 48.3615C22.5854 47.1383 22.8518 46.2122 23.3848 45.5831C23.9265 44.9453 24.6954 44.6263 25.6914 44.6263C26.6875 44.6263 27.4519 44.9453 27.9849 45.5831C28.5179 46.2122 28.7844 47.1383 28.7844 48.3615C28.7844 49.5847 28.5135 50.5108 27.9718 51.1399C27.4389 51.7691 26.6744 52.0836 25.6784 52.0836ZM25.6784 50.7075C26.185 50.7075 26.5652 50.5108 26.8186 50.1176C27.0718 49.7245 27.1985 49.1392 27.1985 48.3615C27.1985 46.7976 26.6963 46.0156 25.6914 46.0156C24.6779 46.0156 24.1711 46.7976 24.1711 48.3615C24.1711 49.1392 24.2978 49.7245 24.5512 50.1176C24.8046 50.5108 25.1803 50.7075 25.6784 50.7075ZM35.6784 51.1137C36.1415 50.4584 36.3731 49.541 36.3731 48.3615C36.3731 47.182 36.1459 46.2646 35.6916 45.6093C35.2373 44.9541 34.5993 44.6263 33.7781 44.6263C32.9132 44.6263 32.2491 45.0153 31.786 45.7928V44.7968H30.3838V54.6261H31.9302V51.3103C32.3759 51.8258 32.9743 52.0836 33.7256 52.0836C34.5644 52.0836 35.2154 51.7603 35.6784 51.1137ZM33.2931 46.0811C34.2892 46.0811 34.7872 46.8588 34.7872 48.414C34.7872 49.9342 34.311 50.6944 33.3587 50.6944C33.0878 50.6944 32.8258 50.6375 32.5724 50.524C32.3277 50.4103 32.1136 50.2487 31.9302 50.039V46.7495C32.1399 46.5136 32.354 46.3433 32.5724 46.2385C32.7909 46.1336 33.0311 46.0811 33.2931 46.0811ZM39.5179 49.4493L42.4536 44.7967H43.9346V51.9131H42.3882V47.2737L39.4393 51.9131H37.9715V44.7967H39.5179V49.4493ZM50.3825 48.7416C50.1379 48.462 49.8101 48.2566 49.3995 48.1257C49.7315 47.9858 49.9893 47.7893 50.1728 47.5359C50.365 47.2738 50.4611 46.9679 50.4611 46.6184C50.4611 45.9195 50.2077 45.4127 49.701 45.0983C49.203 44.7837 48.5608 44.6263 47.7745 44.6263C46.9793 44.6263 46.2279 44.7924 45.5202 45.1244L45.9528 46.3171C46.5294 46.0462 47.0535 45.9107 47.5255 45.9107C47.9447 45.9107 48.2767 45.9895 48.5215 46.1467C48.7661 46.3039 48.8884 46.5354 48.8884 46.8412C48.8884 47.1383 48.7792 47.3611 48.5608 47.5096C48.3423 47.6495 48.0321 47.7193 47.6303 47.7193H46.4901V48.8465H47.6957C48.1851 48.8465 48.552 48.9076 48.7966 49.0299C49.0414 49.1522 49.1637 49.3838 49.1637 49.7245C49.1637 50.0741 49.0151 50.3361 48.718 50.5108C48.4297 50.6768 48.0321 50.7598 47.5255 50.7598C46.9051 50.7598 46.3067 50.62 45.7299 50.3405L45.1926 51.5331C45.4985 51.7165 45.8654 51.8521 46.2935 51.9395C46.7303 52.0267 47.176 52.0704 47.6303 52.0704C48.5827 52.0704 49.3383 51.8739 49.8975 51.4807C50.4655 51.0876 50.7494 50.5326 50.7494 49.8163C50.7494 49.3706 50.6271 49.0125 50.3825 48.7416ZM54.8913 52.0836C53.8952 52.0836 53.1307 51.7691 52.5978 51.1399C52.0649 50.5108 51.7984 49.5847 51.7984 48.3615C51.7984 47.1383 52.0649 46.2122 52.5978 45.5831C53.1395 44.9453 53.9084 44.6263 54.9045 44.6263C55.9005 44.6263 56.665 44.9453 57.1979 45.5831C57.7308 46.2122 57.9974 47.1383 57.9974 48.3615C57.9974 49.5847 57.7266 50.5108 57.1849 51.1399C56.6518 51.7691 55.8873 52.0836 54.8913 52.0836ZM54.8913 50.7075C55.3981 50.7075 55.7782 50.5108 56.0315 50.1176C56.2849 49.7245 56.4116 49.1392 56.4116 48.3615C56.4116 46.7976 55.9092 46.0156 54.9045 46.0156C53.891 46.0156 53.3842 46.7976 53.3842 48.3615C53.3842 49.1392 53.5109 49.7245 53.7643 50.1176C54.0177 50.5108 54.3932 50.7075 54.8913 50.7075ZM65.2044 49.7638C65.2044 48.925 64.7413 48.3746 63.8152 48.1124C64.4704 47.8416 64.798 47.3916 64.798 46.7625C64.798 46.151 64.5885 45.6704 64.1691 45.321C63.7496 44.9715 63.1686 44.7967 62.426 44.7967H59.5951V51.9131H62.806C63.5399 51.9131 64.121 51.7253 64.549 51.3496C64.9859 50.9652 65.2044 50.4365 65.2044 49.7638ZM62.3604 47.7193H61.1154V46.0155H62.3342C62.6138 46.0155 62.8366 46.0898 63.0026 46.2384C63.1686 46.3868 63.2516 46.5965 63.2516 46.8674C63.2516 47.1296 63.173 47.3391 63.0157 47.4965C62.8673 47.6451 62.6487 47.7193 62.3604 47.7193ZM63.3695 50.4453C63.2035 50.6113 62.9677 50.6943 62.6618 50.6943H61.1154V48.8332H62.6357C62.9415 48.8332 63.1817 48.912 63.3565 49.0692C63.5313 49.2264 63.6185 49.4535 63.6185 49.7506C63.6185 50.0478 63.5355 50.2793 63.3695 50.4453ZM70.2895 50.9172C69.8439 51.6772 69.1406 52.0574 68.1795 52.0574C67.4893 52.0574 66.9563 51.8695 66.5806 51.4938C66.205 51.1181 66.0171 50.5938 66.0171 49.9211C66.0171 49.0736 66.3447 48.4533 67 48.0601C67.6554 47.6582 68.7037 47.4529 70.1453 47.4441V47.1165C70.1453 46.3826 69.6691 46.0156 68.7168 46.0156C68.1576 46.0156 67.6029 46.1379 67.0525 46.3826L66.6593 45.1769C67.4194 44.8098 68.1927 44.6263 68.979 44.6263C69.8177 44.6263 70.4731 44.8274 70.9448 45.2292C71.4254 45.6312 71.6656 46.2034 71.6656 46.946V51.9132H70.2895V50.9172ZM70.1453 48.5057C69.228 48.5145 68.5552 48.6237 68.1271 48.8333C67.7077 49.043 67.498 49.3664 67.498 49.8032C67.498 50.4235 67.8519 50.7337 68.5596 50.7337C69.1625 50.7337 69.691 50.4933 70.1453 50.0128V48.5057ZM77.8373 51.9131H79.3839V44.7967H77.8373V47.5621H75.177V44.7967H73.6304V51.9131H75.177V48.8857H77.8373V51.9131ZM82.9761 49.4493L85.9119 44.7967H87.3927V51.9131H85.8463V47.2737L82.8975 51.9131H81.4297V44.7967H82.9761V49.4493ZM93.9187 44.7967L90.9829 49.4493V44.7967H89.4365V51.9132H90.9043L93.8531 47.2738V51.9132H95.3995V44.7967H93.9187ZM90.865 43.3551C91.2756 43.6958 91.8129 43.8662 92.4769 43.8662C93.1235 43.8662 93.652 43.6958 94.0628 43.3551C94.4734 43.0143 94.718 42.5033 94.7966 41.8218H93.8924C93.735 42.4333 93.2677 42.7391 92.49 42.7391C92.0707 42.7391 91.7518 42.6605 91.5334 42.5033C91.3149 42.3459 91.1663 42.1187 91.0877 41.8218H90.1572C90.2272 42.5033 90.463 43.0143 90.865 43.3551ZM103.368 45.4127C104.25 45.4127 104.927 45.6835 105.399 46.2252C105.871 46.767 106.107 47.5447 106.107 48.5581C106.107 49.3008 105.967 49.9385 105.687 50.4715C105.408 50.9957 105.023 51.3977 104.534 51.6772C104.053 51.9481 103.512 52.0836 102.909 52.0836C101.913 52.0836 101.144 51.7516 100.602 51.0875C100.069 50.4235 99.8028 49.4798 99.8028 48.2566C99.8028 46.1248 100.122 44.6221 100.759 43.7483C101.03 43.3813 101.345 43.0974 101.703 42.8965C102.061 42.6955 102.516 42.5426 103.066 42.4377C103.617 42.3329 104.377 42.2368 105.346 42.1494L105.491 43.5254C104.713 43.6042 104.115 43.6784 103.695 43.7483C103.285 43.8181 102.944 43.9143 102.673 44.0366C102.411 44.1502 102.197 44.3162 102.031 44.5347C101.777 44.8492 101.603 45.3515 101.506 46.0418C102.039 45.6224 102.66 45.4127 103.368 45.4127ZM102.922 50.7074C103.411 50.7074 103.8 50.5196 104.088 50.1439C104.377 49.7681 104.521 49.2527 104.521 48.5974C104.521 47.9771 104.39 47.5184 104.128 47.2213C103.874 46.9155 103.477 46.7626 102.935 46.7626C102.419 46.7626 101.913 46.9286 101.415 47.2606C101.406 47.4791 101.402 47.8198 101.402 48.2829C101.402 49.8992 101.908 50.7074 102.922 50.7074ZM112.999 51.1137C113.462 50.4584 113.694 49.541 113.694 48.3615C113.694 47.182 113.467 46.2646 113.012 45.6093C112.558 44.9541 111.92 44.6263 111.099 44.6263C110.234 44.6263 109.57 45.0153 109.107 45.7928V44.7968H107.705V54.6261H109.251V51.3103C109.697 51.8258 110.295 52.0836 111.047 52.0836C111.885 52.0836 112.536 51.7603 112.999 51.1137ZM110.614 46.0811C111.61 46.0811 112.108 46.8588 112.108 48.414C112.108 49.9342 111.632 50.6944 110.68 50.6944C110.409 50.6944 110.147 50.6375 109.893 50.524C109.649 50.4103 109.435 50.2487 109.251 50.039V46.7495C109.461 46.5136 109.675 46.3433 109.893 46.2385C110.112 46.1336 110.352 46.0811 110.614 46.0811ZM120.604 51.3759C120.28 51.5942 119.9 51.7646 119.463 51.887C119.035 52.0093 118.594 52.0704 118.14 52.0704C117.083 52.0704 116.266 51.7472 115.689 51.1006C115.112 50.4454 114.824 49.5324 114.824 48.3615C114.824 47.1732 115.095 46.2559 115.637 45.6093C116.178 44.9541 116.938 44.6263 117.917 44.6263C118.861 44.6263 119.59 44.9279 120.106 45.5307C120.63 46.1248 120.892 46.9679 120.892 48.0601C120.892 48.3922 120.87 48.6498 120.826 48.8333H116.384C116.497 50.0565 117.135 50.6682 118.297 50.6682C118.891 50.6682 119.472 50.5152 120.04 50.2094L120.604 51.3759ZM117.878 45.9895C117.013 45.9895 116.519 46.5747 116.397 47.7456H119.359C119.341 47.1864 119.201 46.7539 118.939 46.448C118.686 46.1423 118.332 45.9895 117.878 45.9895ZM126.618 51.9131H128.165V44.7967H126.618V47.5621H123.958V44.7967H122.411V51.9131H123.958V48.8857H126.618V51.9131ZM137.037 50.6025V53.9183H135.923L135.674 51.9131H130.825L130.563 53.9183H129.449V50.6025H129.921C130.314 50.3491 130.598 50.0608 130.773 49.7376C130.956 49.4142 131.074 48.9818 131.127 48.44L131.48 44.7967H135.976V50.6025H137.037ZM134.429 50.6025V46.1073H132.909L132.647 48.6104C132.603 49.0648 132.511 49.4493 132.372 49.7638C132.232 50.0783 132.026 50.3579 131.756 50.6025H134.429ZM138.609 51.1399C139.142 51.7691 139.907 52.0836 140.903 52.0836C141.899 52.0836 142.663 51.7691 143.196 51.1399C143.738 50.5108 144.009 49.5847 144.009 48.3615C144.009 47.1383 143.742 46.2122 143.209 45.5831C142.676 44.9453 141.912 44.6263 140.916 44.6263C139.92 44.6263 139.151 44.9453 138.609 45.5831C138.076 46.2122 137.81 47.1383 137.81 48.3615C137.81 49.5847 138.076 50.5108 138.609 51.1399ZM142.043 50.1176C141.79 50.5108 141.409 50.7075 140.903 50.7075C140.405 50.7075 140.029 50.5108 139.776 50.1176C139.522 49.7245 139.396 49.1392 139.396 48.3615C139.396 46.7976 139.902 46.0156 140.916 46.0156C141.921 46.0156 142.423 46.7976 142.423 48.3615C142.423 49.1392 142.296 49.7245 142.043 50.1176ZM149.826 48.1124C150.753 48.3746 151.216 48.925 151.216 49.7638C151.216 50.4365 150.997 50.9652 150.56 51.3496C150.132 51.7253 149.551 51.9131 148.817 51.9131H145.606V44.7967H148.437C149.18 44.7967 149.761 44.9715 150.18 45.321C150.6 45.6704 150.809 46.151 150.809 46.7625C150.809 47.3916 150.482 47.8416 149.826 48.1124ZM147.127 47.7193H148.372C148.66 47.7193 148.878 47.6451 149.027 47.4965C149.184 47.3391 149.263 47.1296 149.263 46.8674C149.263 46.5965 149.18 46.3868 149.014 46.2384C148.848 46.0898 148.625 46.0155 148.346 46.0155H147.127V47.7193ZM148.673 50.6943C148.979 50.6943 149.215 50.6113 149.381 50.4453C149.547 50.2793 149.63 50.0478 149.63 49.7506C149.63 49.4535 149.542 49.2264 149.368 49.0692C149.193 48.912 148.953 48.8332 148.647 48.8332H147.127V50.6943H148.673ZM157.141 44.7967L154.205 49.4493V44.7967H152.659V51.9131H154.127L157.076 47.2737V51.9131H158.621V44.7967H157.141ZM162.214 49.4493L165.149 44.7967H166.63V51.9132H165.083V47.2738L162.135 51.9132H160.667V44.7967H162.214V49.4493ZM163.707 43.8662C163.044 43.8662 162.506 43.6958 162.096 43.3551C161.694 43.0143 161.458 42.5033 161.387 41.8218H162.318C162.396 42.1187 162.546 42.3459 162.764 42.5033C162.983 42.6605 163.302 42.7391 163.72 42.7391C164.498 42.7391 164.965 42.4333 165.122 41.8218H166.028C165.949 42.5033 165.704 43.0143 165.294 43.3551C164.883 43.6958 164.354 43.8662 163.707 43.8662ZM177.414 51.9131H178.882V44.7967H177.087L175.173 49.1478L173.285 44.7967H171.451V51.9131H172.905V47.0901L174.518 50.7597H175.775L177.414 47.0901V51.9131ZM184.586 50.9172C184.14 51.6772 183.437 52.0574 182.475 52.0574C181.785 52.0574 181.252 51.8695 180.876 51.4938C180.5 51.1181 180.313 50.5938 180.313 49.9211C180.313 49.0736 180.64 48.4533 181.296 48.0601C181.951 47.6582 183 47.4529 184.441 47.4441V47.1165C184.441 46.3826 183.965 46.0156 183.012 46.0156C182.453 46.0156 181.899 46.1379 181.348 46.3826L180.955 45.1769C181.716 44.8098 182.489 44.6263 183.275 44.6263C184.113 44.6263 184.768 44.8274 185.24 45.2292C185.721 45.6312 185.962 46.2034 185.962 46.946V51.9132H184.586V50.9172ZM184.441 48.5057C183.523 48.5145 182.851 48.6237 182.423 48.8333C182.003 49.043 181.794 49.3664 181.794 49.8032C181.794 50.4235 182.148 50.7337 182.855 50.7337C183.459 50.7337 183.987 50.4933 184.441 50.0128V48.5057ZM192.423 44.7967H187.927V51.9131H189.473V46.1073H192.423V44.7967ZM197.296 50.9172C196.851 51.6772 196.146 52.0574 195.186 52.0574C194.496 52.0574 193.963 51.8695 193.587 51.4938C193.212 51.1181 193.023 50.5938 193.023 49.9211C193.023 49.0736 193.351 48.4533 194.007 48.0601C194.662 47.6582 195.709 47.4529 197.153 47.4441V47.1165C197.153 46.3826 196.676 46.0156 195.724 46.0156C195.164 46.0156 194.609 46.1379 194.059 46.3826L193.666 45.1769C194.425 44.8098 195.199 44.6263 195.986 44.6263C196.824 44.6263 197.48 44.8274 197.951 45.2292C198.432 45.6312 198.673 46.2034 198.673 46.946V51.9132H197.296V50.9172ZM197.153 48.5057C196.235 48.5145 195.562 48.6237 195.134 48.8333C194.714 49.043 194.504 49.3664 194.504 49.8032C194.504 50.4235 194.859 50.7337 195.566 50.7337C196.169 50.7337 196.698 50.4933 197.153 50.0128V48.5057ZM204.977 48.7416C204.731 48.462 204.404 48.2566 203.992 48.1257C204.326 47.9858 204.582 47.7893 204.766 47.5359C204.958 47.2738 205.055 46.9679 205.055 46.6184C205.055 45.9195 204.801 45.4127 204.294 45.0983C203.796 44.7837 203.155 44.6263 202.369 44.6263C201.573 44.6263 200.822 44.7924 200.114 45.1244L200.547 46.3171C201.124 46.0462 201.647 45.9107 202.119 45.9107C202.538 45.9107 202.87 45.9895 203.115 46.1467C203.359 46.3039 203.482 46.5354 203.482 46.8412C203.482 47.1383 203.373 47.3611 203.155 47.5096C202.936 47.6495 202.626 47.7193 202.224 47.7193H201.084V48.8465H202.29C202.779 48.8465 203.145 48.9076 203.39 49.0299C203.634 49.1522 203.757 49.3838 203.757 49.7245C203.757 50.0741 203.609 50.3361 203.312 50.5108C203.023 50.6768 202.626 50.7598 202.119 50.7598C201.499 50.7598 200.9 50.62 200.323 50.3405L199.786 51.5331C200.092 51.7165 200.459 51.8521 200.888 51.9395C201.323 52.0267 201.77 52.0704 202.224 52.0704C203.177 52.0704 203.931 51.8739 204.491 51.4807C205.058 51.0876 205.343 50.5326 205.343 49.8163C205.343 49.3706 205.22 49.0125 204.977 48.7416ZM208.385 49.4493L211.322 44.7967H212.803V51.9131H211.256V47.2737L208.307 51.9131H206.838V44.7967H208.385V49.4493ZM219.052 51.9131H220.599V44.7967H219.052V47.5621H216.392V44.7967H214.845V51.9131H216.392V48.8857H219.052V51.9131Z" fill="white"/>
</svg>
