<svg width="267" height="75" viewBox="0 0 267 75" fill="none" xmlns="http://www.w3.org/2000/svg">
    <path d="M22.351 34.4651C27.0261 41.5584 29.8312 39.108 32.6041 36.98C31.3788 38.7533 29.0896 42.3322 25.672 42.3322C24.4145 42.3322 22.8346 42.1387 21.5127 40.3654C18.095 35.8192 18.9011 36.5931 14.903 36.98C13.3876 37.1412 12.9685 37.4958 11.4853 36.98C8.55127 35.9805 6.16534 33.4978 7.584 29.532C9.29285 24.6956 15.8703 22.5032 20.0618 20.6331C25.8332 18.0537 29.9924 18.4406 32.8942 23.9218C34.732 27.4362 38.5366 33.2076 37.8273 37.9472C34.1194 63.8378 -9.98807 44.4924 3.3925 14.2814C9.38957 0.707348 26.5103 -3.96779 39.246 4.83437C65.0076 25.5017 35.6026 55.4871 25.672 74.1231C20.3842 67.0621 19.7071 64.7084 14.2259 57.7763C12.3236 55.3903 5.81067 47.5232 4.16632 44.3957C2.3285 40.8813 2.10281 37.3991 2.10281 37.3991C4.26304 41.3972 5.45601 42.8803 8.74473 46.2335C11.0662 48.6195 13.4199 50.425 15.4511 52.7142C24.6402 63.0318 25.672 66.9009 25.672 66.9009C28.7995 60.9683 33.6036 53.1334 37.4404 46.2335C44.9206 32.7885 50.4663 18.7631 35.6026 7.80066C21.2225 -1.3884 2.84438 11.573 5.00462 27.8876C8.648 55.3581 49.3378 48.6517 28.735 24.7601C26.3813 21.3102 22.9314 22.3097 18.2885 24.7601C17.16 25.3727 12.904 27.0493 11.4853 29.532C10.1634 31.8212 12.1302 33.9814 14.903 33.4978C20.7066 32.4983 21.0291 32.466 22.351 34.4651Z" fill="white"/>
    <path d="M17.3852 15.6046C17.6753 17.9261 16.3212 19.9896 14.3866 20.2475C12.4521 20.5055 10.6143 18.8289 10.3241 16.5074C10.0339 14.186 11.3881 12.1225 13.3226 11.8645C15.2894 11.6388 17.095 13.3154 17.3852 15.6046Z" fill="white"/>
    <path d="M27.0581 11.639C27.2193 14.2506 25.5427 16.4754 23.3502 16.6043C21.1577 16.7333 19.2554 14.702 19.0942 12.0904C18.933 9.47877 20.6096 7.25405 22.8021 7.12508C24.9946 6.99611 26.8969 9.02738 27.0581 11.639Z" fill="white"/>
    <path d="M36.7301 15.8598C35.7628 18.278 33.3124 19.5677 31.2811 18.7616C29.2498 17.9233 28.3793 15.3117 29.3466 12.8613C30.3138 10.4431 32.7643 9.15338 34.7955 9.95944C36.859 10.7977 37.7296 13.4416 36.7301 15.8598Z" fill="white"/>
    <path d="M39.2455 25.5023C37.311 26.2439 35.2152 25.5346 34.6026 23.8902C33.9578 22.2458 35.0218 20.3113 36.9563 19.5375C38.8909 18.7959 40.9866 19.5052 41.5992 21.1496C42.2441 22.8262 41.1801 24.7607 39.2455 25.5023Z" fill="white"/>
    <path d="M63.5562 21.5035L71.1654 21.3745C76.0662 21.3745 78.5489 21.8259 78.5489 22.7609C78.5489 23.2446 78.033 24.373 77.0335 26.1464C76.034 27.8875 74.712 29.7898 73.1322 31.8533C71.5523 33.9168 70.4883 35.3354 69.9724 36.1737C68.2636 38.4629 66.587 40.9134 64.9104 43.4605C65.2328 43.7184 65.6519 43.8152 66.1356 43.8152C69.3276 43.8152 72.2294 43.8474 74.7765 43.9441L76.84 43.8797C78.2587 43.8797 78.968 44.1698 78.968 44.7824C78.968 46.1044 78.4844 46.9427 77.5171 47.2651C76.9045 47.4586 76.0017 47.5553 74.7765 47.5553L66.4257 47.6198C59.4936 47.6198 56.0115 47.3296 56.0115 46.717C56.0115 46.4268 56.2694 45.9754 56.753 45.3306C57.2367 44.6535 57.4946 44.2666 57.5591 44.1698C60.8156 39.4302 64.7814 34.1102 69.4243 28.1454C69.5533 27.9519 69.7789 27.6618 70.1014 27.3071C70.7785 26.5333 71.2299 25.8884 71.4555 25.3726L68.2313 25.3081C68.2313 25.3081 65.4585 25.3403 59.8806 25.437C58.6231 25.437 57.817 25.3403 57.4301 25.1791C57.0755 24.9857 56.882 24.5665 56.882 23.9539C56.882 23.3091 56.9143 22.8577 57.011 22.5675C57.14 22.2773 57.2044 22.0516 57.2689 21.8904C57.3657 21.6969 57.5913 21.568 58.0105 21.5357C58.4619 21.439 58.7521 21.4068 58.9133 21.4068H60.4932L63.5562 21.5035Z" fill="white"/>
    <path d="M95.3143 43.8151C97.8615 43.8151 99.925 42.9123 101.473 41.0745C103.052 39.2045 103.859 36.9153 103.859 34.2069C103.859 31.4985 103.181 29.2416 101.795 27.4682C100.441 25.6949 98.4741 24.7921 95.8302 24.7921C93.2186 24.7921 91.0261 25.5982 89.2528 27.2103C87.5117 28.8224 86.6411 31.1439 86.6411 34.1102C86.6411 37.1087 87.4472 39.4624 89.0915 41.2035C90.6714 42.9446 92.7672 43.8151 95.3143 43.8151ZM109.082 33.8522C109.082 38.0115 107.631 41.4614 104.761 44.2343C101.924 46.9426 98.4741 48.2968 94.476 48.2968C90.5102 48.2968 87.1892 47.0393 84.5454 44.5244C81.9337 42.0095 80.644 38.6563 80.644 34.4003C80.644 30.1121 82.0305 26.7589 84.7711 24.3407C87.5762 21.8903 91.413 20.6329 96.2816 20.6329C98.9899 20.6329 101.698 21.4712 104.374 23.18C105.761 24.115 106.857 25.5015 107.728 27.3715C108.63 29.1771 109.082 31.3696 109.082 33.8522Z" fill="white"/>
    <path d="M126.042 43.8151C128.589 43.8151 130.653 42.9123 132.201 41.0745C133.78 39.2045 134.587 36.9153 134.587 34.2069C134.587 31.4985 133.909 29.2416 132.523 27.4682C131.169 25.6949 129.202 24.7921 126.558 24.7921C123.947 24.7921 121.754 25.5982 119.981 27.2103C118.24 28.8224 117.369 31.1439 117.369 34.1102C117.369 37.1087 118.175 39.4624 119.82 41.2035C121.399 42.9446 123.495 43.8151 126.042 43.8151ZM139.81 33.8522C139.81 38.0115 138.359 41.4614 135.489 44.2343C132.652 46.9426 129.202 48.2968 125.204 48.2968C121.238 48.2968 117.917 47.0393 115.273 44.5244C112.662 42.0095 111.372 38.6563 111.372 34.4003C111.372 30.1121 112.758 26.7589 115.499 24.3407C118.304 21.8903 122.141 20.6329 127.01 20.6329C129.718 20.6329 132.426 21.4712 135.102 23.18C136.489 24.115 137.585 25.5015 138.456 27.3715C139.358 29.1771 139.81 31.3696 139.81 33.8522Z" fill="white"/>
    <path d="M146.966 21.2454L149.578 21.3099C149.61 21.3421 149.803 22.0515 150.126 23.3734C150.448 23.2444 151.287 22.8898 152.673 22.3416C155.478 21.2454 157.671 20.6973 159.25 20.6973C161.894 20.6973 163.99 21.7613 165.57 23.9215L166.183 23.5024C166.634 23.2122 166.924 23.0187 167.021 22.9542L167.762 22.5351C168.182 22.2772 168.472 22.1159 168.665 22.0515C168.859 21.9547 169.181 21.8258 169.568 21.6323C170.019 21.4389 170.374 21.2776 170.664 21.2132C170.987 21.1164 171.341 21.0197 171.76 20.923C172.534 20.7618 173.405 20.665 174.372 20.665C178.628 20.665 181.336 22.6963 182.529 26.7588C182.852 27.6616 183.045 29.8219 183.142 33.2395V44.5888C183.142 45.9753 182.884 46.8781 182.4 47.265C181.949 47.6196 181.078 47.8131 179.789 47.8131C178.531 47.8131 177.758 47.7164 177.467 47.5551C177.209 47.3617 177.113 46.8781 177.113 46.1365L177.306 42.4609V35.1741V33.5942C177.306 32.6914 177.274 31.9176 177.242 31.2728C177.242 30.6279 177.145 29.8219 176.951 28.8223C176.79 27.8551 176.532 27.1457 176.145 26.7588C175.146 25.6304 173.631 25.05 171.631 25.05C167.859 25.05 165.989 26.2752 165.989 28.7579L166.183 34.3035V42.5898C166.183 44.3954 166.021 45.5561 165.699 46.1365C165.538 46.4267 165.183 46.5556 164.603 46.5556C162.346 46.5556 161.024 46.2655 160.637 45.6851C160.347 45.2659 160.218 44.6533 160.282 43.7828C160.379 42.9122 160.411 42.4286 160.411 42.3319L160.701 31.5307C160.701 29.2093 160.314 27.6294 159.541 26.7588C158.767 25.8883 157.574 25.4691 155.962 25.4691C152.06 25.4691 150.126 26.2107 150.126 27.7261L150.255 32.7237L150.126 43.2992V44.4599C150.158 44.9435 150.158 45.2659 150.126 45.4272L150.061 46.1687C150.029 46.4911 149.965 46.7168 149.868 46.8458C149.384 47.2972 148.965 47.5229 148.643 47.5874C147.74 47.7164 147.031 47.7808 146.515 47.7808C146.031 47.7808 145.676 47.7486 145.483 47.7164C145.322 47.6841 145.193 47.6196 145.064 47.5229C144.935 47.3939 144.838 47.2972 144.774 47.2327C144.677 47.1037 144.612 46.9425 144.516 46.7491C144.483 46.4911 144.419 46.2977 144.387 46.1365V45.2659V42.1384L144.645 29.435L144.774 24.3729L144.903 23.1477C144.903 22.6641 144.999 22.2772 145.193 21.987C145.451 21.6646 145.612 21.4711 145.741 21.4389C146.225 21.3421 146.644 21.2454 146.966 21.2454Z" fill="white"/>
    <path d="M203.165 41.3969C203.261 40.2684 203.294 39.0432 203.294 37.7212C203.294 36.4315 203.261 35.69 203.229 35.5288C197.619 36.0446 194.234 37.0764 193.008 38.5918C192.364 39.3656 192.041 40.2684 192.041 41.2679C192.041 43.4281 193.653 44.4921 196.845 44.4921C198.457 44.4921 199.908 44.1375 201.166 43.3959C202.455 42.6221 203.132 41.9772 203.165 41.3969ZM205.422 47.8131C204.196 47.8131 203.648 47.136 203.713 45.8141C203.713 45.3627 203.648 45.137 203.519 45.137C203.197 45.2659 202.552 45.6206 201.585 46.1687C196.748 49.135 192.525 49.3285 188.881 46.7168C187.205 45.5239 186.399 43.9118 186.399 41.8482C186.399 38.7207 187.85 36.4315 190.719 35.0129C193.653 33.5942 197.232 32.8849 201.553 32.8849C202.326 32.8849 202.907 32.9171 203.261 32.9494C203.261 32.2723 203.294 31.7564 203.326 31.4985C203.326 29.177 202.681 27.4359 201.391 26.3074C200.134 25.1145 198.361 24.5341 196.104 24.5341C195.007 24.5341 193.847 24.6953 192.589 25.0178C191.332 25.3402 190.526 25.5014 190.171 25.5014C189.816 25.5014 189.494 25.2757 189.268 24.8243C189.075 24.3729 188.978 23.7925 188.978 23.051C188.978 22.3094 189.881 21.7613 191.654 21.3421C193.492 20.8907 195.233 20.665 196.877 20.665C200.811 20.665 203.777 21.6968 205.809 23.7925C207.872 25.8561 208.904 28.8868 208.904 32.8849V45.4594C208.904 46.5556 208.71 47.2327 208.291 47.4584C207.808 47.6841 206.873 47.8131 205.422 47.8131Z" fill="white"/>
    <path d="M220.834 47.4926C220.705 49.7818 220.64 53.0705 220.64 57.391C220.737 58.4872 220.769 59.6802 220.769 60.9376C220.769 62.2273 220.64 63.0334 220.35 63.3236C220.06 63.646 218.609 63.8072 215.965 63.8072C215.352 63.8072 214.966 63.5493 214.74 63.0011C214.546 62.4853 214.45 61.8082 214.482 61.0344C214.74 50.0397 214.837 42.2693 214.837 37.7232L214.708 25.1486V24.3426V23.601C214.74 23.472 214.772 23.3108 214.772 23.0529C214.804 22.7627 214.869 22.5693 214.901 22.5048C214.933 22.3758 214.998 22.2468 215.03 22.0856C215.127 21.8922 215.191 21.7632 215.288 21.731C215.417 21.6342 215.546 21.5697 215.707 21.473C215.965 21.3118 216.707 21.2151 217.964 21.2151C219.254 21.2151 219.963 21.2473 220.092 21.2796C220.124 21.3763 220.189 21.7632 220.221 22.4403C220.253 23.1174 220.318 23.6333 220.415 23.9557C223.445 21.731 226.766 20.6025 230.313 20.6025C233.924 20.6025 236.729 21.8599 238.76 24.3748C240.792 26.8897 241.791 29.6948 241.791 32.7901C241.791 35.8853 241.308 38.5292 240.34 40.7217C239.405 42.9142 237.793 44.752 235.536 46.2029C233.279 47.6538 230.474 48.3954 227.218 48.3954C225.38 48.4921 223.252 48.1374 220.834 47.4926ZM220.737 31.8873L220.608 40.0124C220.608 41.8824 220.963 43.1399 221.64 43.7847C222.317 44.4296 223.897 44.752 226.379 44.752C229.7 44.752 232.151 43.817 233.666 41.9469C235.214 40.0446 235.988 37.5297 235.988 34.4344C235.988 31.3069 235.278 28.8888 233.86 27.2444C232.473 25.5356 230.603 24.665 228.217 24.665C226.895 24.665 225.348 24.9552 223.607 25.5356C221.898 26.0514 220.963 26.5673 220.737 27.0509C220.64 27.1799 220.608 27.4379 220.608 27.857L220.672 29.5658C220.705 30.114 220.737 30.8878 220.737 31.8873Z" fill="white"/>
    <path d="M260.267 41.3969C260.363 40.2684 260.395 39.0432 260.395 37.7212C260.395 36.4315 260.363 35.69 260.331 35.5288C254.721 36.0446 251.335 37.0764 250.11 38.5918C249.465 39.3656 249.143 40.2684 249.143 41.2679C249.143 43.4281 250.755 44.4921 253.947 44.4921C255.559 44.4921 257.01 44.1375 258.267 43.3959C259.557 42.6221 260.234 41.9772 260.267 41.3969ZM262.523 47.8131C261.298 47.8131 260.75 47.136 260.815 45.8141C260.815 45.3627 260.75 45.137 260.621 45.137C260.299 45.2659 259.654 45.6206 258.687 46.1687C253.85 49.135 249.627 49.3285 245.983 46.7168C244.307 45.5239 243.5 43.9118 243.5 41.8482C243.5 38.7207 244.951 36.4315 247.821 35.0129C250.755 33.5942 254.334 32.8849 258.654 32.8849C259.428 32.8849 260.009 32.9171 260.363 32.9494C260.363 32.2723 260.395 31.7564 260.428 31.4985C260.428 29.177 259.783 27.4359 258.493 26.3074C257.236 25.1145 255.462 24.5341 253.205 24.5341C252.109 24.5341 250.948 24.6953 249.691 25.0178C248.434 25.3402 247.628 25.5014 247.273 25.5014C246.918 25.5014 246.596 25.2757 246.37 24.8243C246.177 24.3729 246.08 23.7925 246.08 23.051C246.08 22.3094 246.983 21.7613 248.756 21.3421C250.594 20.8907 252.335 20.665 253.979 20.665C257.913 20.665 260.879 21.6968 262.91 23.7925C264.974 25.8561 266.006 28.8868 266.006 32.8849V45.4594C266.006 46.5556 265.812 47.2327 265.393 47.4584C264.909 47.6841 263.974 47.8131 262.523 47.8131Z" fill="white"/>
    <path d="M133.974 62.5154C133.974 62.5477 133.974 62.5799 133.941 62.6121C133.909 62.6444 133.909 62.6444 133.845 62.6766C133.812 62.6766 133.748 62.7089 133.683 62.7089C133.619 62.7089 133.522 62.7089 133.426 62.7089C133.329 62.7089 133.232 62.7089 133.168 62.7089C133.103 62.7089 133.039 62.6766 133.006 62.6766C132.974 62.6766 132.942 62.6444 132.91 62.6121C132.877 62.5799 132.877 62.5477 132.877 62.5154V59.2589C132.877 59.0977 132.877 58.9365 132.877 58.7431C132.877 58.5819 132.91 58.4206 132.91 58.2272C132.813 58.3884 132.716 58.5496 132.587 58.7108C132.458 58.872 132.362 59.0332 132.233 59.1945L129.847 62.4832C129.814 62.5154 129.782 62.5477 129.782 62.5799C129.75 62.6121 129.718 62.6121 129.685 62.6444C129.653 62.6444 129.589 62.6766 129.556 62.6766C129.492 62.6766 129.427 62.6766 129.363 62.6766C129.266 62.6766 129.202 62.6766 129.137 62.6766C129.073 62.6766 129.041 62.6444 129.008 62.6444C128.976 62.6444 128.944 62.6121 128.944 62.5799C128.944 62.5477 128.912 62.5154 128.912 62.4832V56.8085C128.912 56.7763 128.912 56.744 128.944 56.7118C128.944 56.6796 128.976 56.6796 129.041 56.6473C129.073 56.6151 129.137 56.6151 129.202 56.6151C129.266 56.6151 129.363 56.6151 129.46 56.6151C129.653 56.6151 129.814 56.6151 129.879 56.6473C129.943 56.6796 130.008 56.7118 130.008 56.7763V60.065C130.008 60.2262 130.008 60.3874 130.008 60.5486C130.008 60.7098 129.976 60.8711 129.976 61.0323C130.072 60.8711 130.169 60.7098 130.266 60.5486C130.363 60.3874 130.459 60.2585 130.588 60.0972L133.006 56.7763C133.039 56.744 133.071 56.7118 133.071 56.6796C133.103 56.6473 133.135 56.6473 133.168 56.6151C133.2 56.6151 133.264 56.5828 133.297 56.5828C133.361 56.5828 133.426 56.5828 133.522 56.5828C133.619 56.5828 133.683 56.5828 133.748 56.5828C133.812 56.5828 133.845 56.6151 133.909 56.6151C133.941 56.6473 133.974 56.6473 133.974 56.6796C133.974 56.7118 134.006 56.744 134.006 56.7763V62.5154H133.974ZM126.3 59.7103C126.3 59.4202 126.268 59.13 126.235 58.872C126.203 58.6141 126.107 58.3562 126.01 58.1627C125.913 57.937 125.752 57.7758 125.591 57.6468C125.397 57.5179 125.172 57.4534 124.914 57.4534C124.785 57.4534 124.656 57.4856 124.527 57.5179C124.398 57.5501 124.269 57.6146 124.14 57.7113C124.011 57.808 123.85 57.9048 123.721 58.066C123.559 58.1949 123.43 58.3884 123.269 58.5819V60.8388C123.559 61.1935 123.817 61.4514 124.075 61.6449C124.333 61.8383 124.591 61.9351 124.881 61.9351C125.139 61.9351 125.365 61.8706 125.558 61.7416C125.752 61.6126 125.881 61.4514 126.01 61.2257C126.139 61 126.203 60.7743 126.268 60.5164C126.268 60.2262 126.3 59.9683 126.3 59.7103ZM127.364 59.5814C127.364 60.065 127.299 60.5164 127.203 60.9033C127.106 61.2902 126.945 61.6449 126.719 61.9028C126.526 62.193 126.268 62.3864 125.945 62.5477C125.655 62.7089 125.3 62.7734 124.914 62.7734C124.752 62.7734 124.591 62.7411 124.462 62.7089C124.333 62.6766 124.172 62.6121 124.043 62.5477C123.914 62.4832 123.785 62.3865 123.624 62.2897C123.495 62.193 123.334 62.064 123.205 61.9028V64.7401C123.205 64.7724 123.205 64.8046 123.172 64.8369C123.14 64.8691 123.14 64.8691 123.076 64.9014C123.044 64.9014 122.979 64.9336 122.915 64.9336C122.85 64.9336 122.753 64.9336 122.657 64.9336C122.56 64.9336 122.463 64.9336 122.399 64.9336C122.334 64.9336 122.27 64.9014 122.237 64.9014C122.205 64.8691 122.173 64.8691 122.141 64.8369C122.141 64.8046 122.108 64.7724 122.108 64.7401V56.8408C122.108 56.8085 122.108 56.7763 122.141 56.744C122.141 56.7118 122.173 56.7118 122.205 56.6796C122.237 56.6473 122.302 56.6473 122.366 56.6473C122.431 56.6473 122.495 56.6473 122.592 56.6473C122.689 56.6473 122.753 56.6473 122.818 56.6473C122.882 56.6473 122.915 56.6796 122.947 56.6796C122.979 56.7118 123.011 56.7118 123.011 56.744C123.011 56.7763 123.044 56.8085 123.044 56.8408V57.5823C123.205 57.4211 123.366 57.2599 123.527 57.131C123.688 57.002 123.85 56.9053 124.011 56.8085C124.172 56.7118 124.333 56.6473 124.494 56.6151C124.656 56.5828 124.849 56.5506 125.043 56.5506C125.462 56.5506 125.784 56.6151 126.074 56.7763C126.364 56.9375 126.59 57.1632 126.784 57.4211C126.977 57.7113 127.106 58.0337 127.171 58.3884C127.332 58.7753 127.364 59.1622 127.364 59.5814ZM119.561 59.6781C119.561 59.3557 119.529 59.0655 119.465 58.8076C119.4 58.5496 119.303 58.2917 119.174 58.0982C119.045 57.9048 118.852 57.7436 118.659 57.6146C118.433 57.4856 118.143 57.4211 117.82 57.4211C117.498 57.4211 117.24 57.4856 117.014 57.5823C116.788 57.6791 116.627 57.8403 116.466 58.0337C116.337 58.2272 116.208 58.4851 116.144 58.7431C116.079 59.001 116.047 59.3234 116.047 59.6459C116.047 59.9683 116.079 60.2585 116.144 60.5164C116.208 60.7743 116.305 61.0323 116.434 61.2257C116.563 61.4192 116.756 61.5804 116.982 61.7094C117.208 61.8383 117.498 61.9028 117.82 61.9028C118.11 61.9028 118.401 61.8383 118.594 61.7416C118.82 61.6449 119.013 61.4837 119.142 61.2902C119.271 61.0968 119.4 60.8711 119.465 60.5809C119.497 60.2907 119.561 60.0005 119.561 59.6781ZM120.625 59.6136C120.625 60.065 120.561 60.4842 120.432 60.9033C120.303 61.2902 120.142 61.6126 119.884 61.9028C119.658 62.193 119.336 62.4187 118.981 62.5477C118.626 62.7089 118.207 62.7734 117.724 62.7734C117.272 62.7734 116.853 62.7089 116.498 62.5799C116.144 62.4509 115.853 62.2252 115.628 61.9673C115.402 61.7094 115.241 61.3869 115.112 61C114.983 60.6131 114.951 60.194 114.951 59.7103C114.951 59.2589 115.015 58.8398 115.144 58.4529C115.273 58.066 115.434 57.7436 115.692 57.4534C115.918 57.1632 116.24 56.9697 116.595 56.8085C116.95 56.6473 117.369 56.5828 117.852 56.5828C118.304 56.5828 118.723 56.6473 119.078 56.7763C119.432 56.9053 119.723 57.1309 119.948 57.3889C120.174 57.6468 120.367 57.9692 120.464 58.3562C120.561 58.7108 120.625 59.13 120.625 59.6136ZM114.209 62.5477C114.209 62.5799 114.209 62.5799 114.177 62.6121C114.177 62.6444 114.145 62.6444 114.08 62.6444C114.048 62.6444 113.983 62.6766 113.919 62.6766C113.854 62.6766 113.758 62.6766 113.661 62.6766C113.532 62.6766 113.435 62.6766 113.371 62.6766C113.306 62.6766 113.242 62.6444 113.177 62.6444C113.145 62.6444 113.113 62.6121 113.081 62.5799C113.048 62.5477 113.048 62.5154 113.048 62.5154L112.436 61.0645C112.371 60.8711 112.275 60.7099 112.21 60.5809C112.113 60.4519 112.017 60.3229 111.92 60.2585C111.823 60.1617 111.694 60.1295 111.533 60.065C111.404 60.0328 111.243 60.0005 111.049 60.0005H110.598V62.5477C110.598 62.5799 110.598 62.5799 110.566 62.6121C110.533 62.6444 110.501 62.6444 110.469 62.6766C110.437 62.6766 110.372 62.7089 110.308 62.7089C110.243 62.7089 110.179 62.7089 110.082 62.7089C109.985 62.7089 109.921 62.7089 109.856 62.7089C109.792 62.7089 109.727 62.6766 109.695 62.6766C109.663 62.6766 109.631 62.6444 109.598 62.6121C109.566 62.5799 109.566 62.5799 109.566 62.5477V56.7763C109.566 56.744 109.566 56.744 109.598 56.7118C109.631 56.6796 109.663 56.6796 109.695 56.6796C109.727 56.6796 109.792 56.6473 109.856 56.6473C109.921 56.6473 109.985 56.6473 110.082 56.6473C110.179 56.6473 110.243 56.6473 110.308 56.6473C110.372 56.6473 110.437 56.6796 110.469 56.6796C110.501 56.6796 110.533 56.7118 110.566 56.7118C110.598 56.744 110.598 56.744 110.598 56.7763V59.1622H111.049C111.211 59.1622 111.34 59.13 111.469 59.0977C111.597 59.0655 111.726 59.001 111.823 58.9365C111.92 58.8398 112.017 58.7431 112.113 58.6141C112.21 58.4851 112.275 58.3239 112.339 58.1305L112.855 56.8085C112.855 56.7763 112.887 56.744 112.887 56.7118C112.919 56.6796 112.952 56.6796 112.984 56.6473C113.016 56.6151 113.081 56.6151 113.145 56.6151C113.21 56.6151 113.306 56.6151 113.435 56.6151C113.532 56.6151 113.629 56.6151 113.693 56.6151C113.758 56.6151 113.822 56.6473 113.854 56.6473C113.887 56.6473 113.919 56.6796 113.919 56.6796C113.919 56.7118 113.951 56.7118 113.951 56.744C113.951 56.7763 113.951 56.8085 113.951 56.873C113.951 56.9053 113.919 56.9697 113.919 57.0342L113.371 58.2917C113.274 58.5174 113.21 58.6786 113.113 58.8076C113.016 58.9365 112.919 59.0655 112.823 59.1622C112.726 59.2589 112.629 59.3234 112.5 59.3879C112.404 59.4524 112.307 59.4846 112.21 59.5169C112.371 59.5814 112.5 59.6136 112.629 59.7103C112.758 59.7748 112.855 59.8715 112.984 59.9683C113.081 60.065 113.177 60.194 113.274 60.3552C113.371 60.4842 113.468 60.6776 113.532 60.8388L114.145 62.2575C114.177 62.2897 114.177 62.322 114.177 62.3542C114.177 62.3865 114.177 62.4187 114.209 62.4187C114.209 62.4509 114.209 62.4509 114.209 62.4832C114.209 62.5154 114.209 62.5477 114.209 62.5477ZM103.73 59.9038H102.86C102.57 59.9038 102.344 59.936 102.118 59.9683C101.925 60.0005 101.731 60.0972 101.602 60.194C101.473 60.2907 101.377 60.3874 101.312 60.5486C101.248 60.6776 101.215 60.8388 101.215 61C101.215 61.2902 101.312 61.5159 101.506 61.7094C101.699 61.8706 101.957 61.9673 102.279 61.9673C102.537 61.9673 102.795 61.9028 103.021 61.7738C103.247 61.6449 103.505 61.4192 103.763 61.129V59.9038H103.73ZM104.762 62.5154C104.762 62.5799 104.73 62.6121 104.698 62.6444C104.665 62.6766 104.633 62.6766 104.569 62.7089C104.504 62.7089 104.44 62.7411 104.311 62.7411C104.214 62.7411 104.117 62.7411 104.053 62.7089C103.988 62.7089 103.956 62.6766 103.924 62.6444C103.892 62.6121 103.892 62.5799 103.892 62.5154V61.9351C103.634 62.193 103.376 62.4187 103.053 62.5477C102.763 62.6766 102.441 62.7734 102.086 62.7734C101.796 62.7734 101.506 62.7411 101.28 62.6444C101.054 62.5799 100.829 62.4509 100.667 62.322C100.506 62.1608 100.377 61.9995 100.28 61.7738C100.184 61.5482 100.151 61.3225 100.151 61.0323C100.151 60.7098 100.216 60.4197 100.345 60.194C100.474 59.9683 100.667 59.7748 100.893 59.6136C101.151 59.4524 101.441 59.3557 101.796 59.2589C102.15 59.1945 102.537 59.13 102.989 59.13H103.763V58.6786C103.763 58.4529 103.73 58.2594 103.698 58.0982C103.666 57.937 103.569 57.7758 103.472 57.6791C103.376 57.5823 103.247 57.4856 103.086 57.4211C102.924 57.3566 102.731 57.3244 102.473 57.3244C102.215 57.3244 101.989 57.3566 101.796 57.4211C101.602 57.4856 101.409 57.5501 101.248 57.6146C101.086 57.6791 100.958 57.7436 100.861 57.808C100.764 57.8725 100.667 57.9048 100.635 57.9048C100.603 57.9048 100.571 57.9048 100.538 57.8725C100.506 57.8725 100.506 57.8403 100.474 57.808C100.442 57.7758 100.442 57.7436 100.442 57.6791C100.442 57.6146 100.442 57.5823 100.442 57.5179C100.442 57.4211 100.442 57.3244 100.474 57.2599C100.474 57.1954 100.538 57.131 100.571 57.0987C100.635 57.0342 100.732 56.9697 100.861 56.9053C100.99 56.8408 101.151 56.7763 101.344 56.7118C101.538 56.6473 101.731 56.6151 101.925 56.5506C102.15 56.5183 102.344 56.4861 102.57 56.4861C102.989 56.4861 103.311 56.5183 103.601 56.6151C103.892 56.7118 104.117 56.8408 104.278 57.0342C104.44 57.2277 104.569 57.4211 104.665 57.7113C104.73 57.9693 104.794 58.2917 104.794 58.6463V62.5154H104.762ZM99.4744 57.1632C99.4744 57.2599 99.4744 57.3244 99.4744 57.3889C99.4744 57.4534 99.4421 57.4856 99.4421 57.5179C99.4099 57.5501 99.4099 57.5823 99.3776 57.6146C99.3454 57.6468 99.3132 57.6468 99.2809 57.6468H97.5721V62.5154C97.5721 62.5477 97.5721 62.5799 97.5398 62.6121C97.5076 62.6444 97.5076 62.6444 97.4431 62.6766C97.4109 62.6766 97.3464 62.7089 97.2819 62.7089C97.2174 62.7089 97.1207 62.7089 97.0239 62.7089C96.9272 62.7089 96.8305 62.7089 96.766 62.7089C96.7015 62.7089 96.637 62.6766 96.6048 62.6766C96.5726 62.6444 96.5403 62.6444 96.5081 62.6121C96.5081 62.5799 96.4758 62.5477 96.4758 62.5154V57.6468H94.767C94.7347 57.6468 94.7025 57.6468 94.6703 57.6146C94.638 57.5823 94.6058 57.5823 94.6058 57.5179C94.6058 57.4856 94.5735 57.4211 94.5735 57.3566C94.5735 57.2922 94.5735 57.2277 94.5735 57.131C94.5735 57.0665 94.5735 57.002 94.5735 56.9375C94.5735 56.873 94.6058 56.8408 94.6058 56.7763C94.638 56.744 94.638 56.7118 94.6703 56.6796C94.7025 56.6473 94.7347 56.6473 94.767 56.6473H99.1842C99.2164 56.6473 99.2487 56.6473 99.2809 56.6796C99.3132 56.7118 99.3454 56.7118 99.3454 56.7763C99.3454 56.8085 99.3776 56.873 99.3776 56.9375C99.4744 57.002 99.4744 57.0665 99.4744 57.1632ZM90.8012 54.9385C90.8012 55.1964 90.7689 55.3576 90.6722 55.4221C90.5755 55.5188 90.4143 55.5511 90.1563 55.5511C89.8984 55.5511 89.7372 55.5188 89.6404 55.4221C89.5437 55.3254 89.5115 55.1642 89.5115 54.9385C89.5115 54.6805 89.5437 54.5193 89.6404 54.4548C89.7372 54.3581 89.8984 54.3259 90.1563 54.3259C90.4143 54.3259 90.5755 54.3581 90.6722 54.4548C90.7689 54.5193 90.8012 54.6805 90.8012 54.9385ZM90.7045 62.5154C90.7045 62.5477 90.7044 62.5799 90.6722 62.6121C90.64 62.6444 90.64 62.6444 90.5755 62.6766C90.5432 62.6766 90.4788 62.7089 90.4143 62.7089C90.3498 62.7089 90.2531 62.7089 90.1563 62.7089C90.0596 62.7089 89.9629 62.7089 89.8984 62.7089C89.8339 62.7089 89.7694 62.6766 89.7372 62.6766C89.7049 62.6444 89.6727 62.6444 89.6404 62.6121C89.6404 62.5799 89.6082 62.5477 89.6082 62.5154V56.8408C89.6082 56.8085 89.6082 56.7763 89.6404 56.744C89.6404 56.7118 89.6727 56.7118 89.7372 56.6796C89.7694 56.6796 89.8339 56.6473 89.8984 56.6473C89.9629 56.6473 90.0596 56.6473 90.1563 56.6473C90.2531 56.6473 90.3498 56.6473 90.4143 56.6473C90.4788 56.6473 90.5432 56.6796 90.5755 56.6796C90.6077 56.7118 90.64 56.7118 90.6722 56.744C90.7044 56.7763 90.7045 56.8085 90.7045 56.8408V62.5154ZM87.7382 62.5154C87.7382 62.5477 87.7382 62.5799 87.7059 62.6121C87.6737 62.6444 87.6737 62.6444 87.6092 62.6766C87.5769 62.6766 87.5125 62.7089 87.448 62.7089C87.3835 62.7089 87.2868 62.7089 87.19 62.7089C87.0933 62.7089 86.9966 62.7089 86.9321 62.7089C86.8676 62.7089 86.8031 62.6766 86.7709 62.6766C86.7386 62.6444 86.7064 62.6444 86.6742 62.6121C86.6419 62.5799 86.6419 62.5477 86.6419 62.5154V60.0328H83.7724V62.5154C83.7724 62.5477 83.7723 62.5799 83.7401 62.6121C83.7079 62.6444 83.7079 62.6444 83.6434 62.6766C83.6111 62.6766 83.5467 62.7089 83.4822 62.7089C83.4177 62.7089 83.321 62.7089 83.2242 62.7089C83.1275 62.7089 83.0308 62.7089 82.9663 62.7089C82.9018 62.7089 82.8373 62.6766 82.8051 62.6766C82.7728 62.6444 82.7406 62.6444 82.7084 62.6121C82.7084 62.5799 82.6761 62.5477 82.6761 62.5154V56.8408C82.6761 56.8085 82.6761 56.7763 82.7084 56.744C82.7084 56.7118 82.7406 56.7118 82.8051 56.6796C82.8373 56.6473 82.9018 56.6473 82.9663 56.6473C83.0308 56.6473 83.1275 56.6473 83.2242 56.6473C83.321 56.6473 83.4177 56.6473 83.4822 56.6473C83.5467 56.6473 83.6111 56.6796 83.6434 56.6796C83.6756 56.7118 83.7079 56.7118 83.7401 56.744C83.7723 56.7763 83.7724 56.8085 83.7724 56.8408V59.13H86.6419V56.8408C86.6419 56.8085 86.6419 56.7763 86.6742 56.744C86.7064 56.7118 86.7064 56.7118 86.7709 56.6796C86.8031 56.6473 86.8676 56.6473 86.9321 56.6473C86.9966 56.6473 87.0933 56.6473 87.19 56.6473C87.2868 56.6473 87.3835 56.6473 87.448 56.6473C87.5125 56.6473 87.5769 56.6796 87.6092 56.6796C87.6414 56.7118 87.6737 56.7118 87.7059 56.744C87.7382 56.7763 87.7382 56.8085 87.7382 56.8408V62.5154ZM80.8383 62.5154C80.8383 62.5477 80.8383 62.5799 80.8061 62.6121C80.7738 62.6444 80.7738 62.6444 80.7093 62.6766C80.6771 62.6766 80.6126 62.7089 80.5481 62.7089C80.4836 62.7089 80.3869 62.7089 80.2902 62.7089C80.1935 62.7089 80.0967 62.7089 80.0322 62.7089C79.9678 62.7089 79.9033 62.6766 79.871 62.6766C79.8388 62.6444 79.8065 62.6444 79.7743 62.6121C79.7743 62.5799 79.7421 62.5477 79.7421 62.5154V60.2262C79.5164 60.3229 79.2584 60.4197 79.0005 60.4842C78.7425 60.5486 78.4524 60.5809 78.1622 60.5809C77.7753 60.5809 77.4529 60.5164 77.1949 60.4197C76.937 60.3229 76.7113 60.194 76.5823 60.0005C76.4211 59.8393 76.3244 59.6136 76.2599 59.3879C76.1954 59.13 76.1632 58.8398 76.1632 58.4851V56.873C76.1632 56.8408 76.1632 56.8085 76.1954 56.7763C76.1954 56.744 76.2276 56.744 76.2921 56.7118C76.3244 56.6796 76.3889 56.6796 76.4533 56.6796C76.5178 56.6796 76.6145 56.6796 76.7113 56.6796C76.808 56.6796 76.9047 56.6796 76.9692 56.6796C77.0337 56.6796 77.0982 56.7118 77.1304 56.7118C77.1627 56.744 77.1949 56.744 77.2272 56.7763C77.2594 56.8085 77.2594 56.8408 77.2594 56.873V58.3239C77.2594 58.6786 77.2916 58.9043 77.3239 59.0977C77.3884 59.2589 77.4529 59.3879 77.5496 59.4846C77.6463 59.5814 77.7753 59.6459 77.9042 59.6781C78.0332 59.7103 78.1944 59.7426 78.3879 59.7426C78.6458 59.7426 78.8715 59.7103 79.0972 59.6459C79.3229 59.5814 79.5808 59.4846 79.8065 59.3879V56.873C79.8065 56.8408 79.8065 56.8085 79.8388 56.7763C79.8388 56.744 79.871 56.744 79.9355 56.7118C79.9678 56.6796 80.0322 56.6796 80.0967 56.6796C80.1612 56.6796 80.2579 56.6796 80.3547 56.6796C80.4514 56.6796 80.5481 56.6796 80.6126 56.6796C80.6771 56.6796 80.7416 56.7118 80.7738 56.7118C80.8061 56.744 80.8383 56.744 80.8705 56.7763C80.9028 56.8085 80.9028 56.8408 80.9028 56.873V62.5154H80.8383ZM73.8095 59.9038H72.9389C72.6487 59.9038 72.423 59.936 72.1973 59.9683C72.0039 60.0005 71.8104 60.0972 71.6815 60.194C71.5525 60.2907 71.4558 60.3874 71.3913 60.5486C71.3268 60.6776 71.2946 60.8388 71.2946 61C71.2946 61.2902 71.3913 61.5159 71.5847 61.7094C71.7782 61.8706 72.0361 61.9673 72.3586 61.9673C72.6165 61.9673 72.8744 61.9028 73.1001 61.7738C73.3258 61.6449 73.5838 61.4192 73.8417 61.129V59.9038H73.8095ZM74.8412 62.5154C74.8412 62.5799 74.809 62.6121 74.7767 62.6444C74.7445 62.6766 74.7123 62.6766 74.6478 62.7089C74.5833 62.7089 74.5188 62.7411 74.3898 62.7411C74.2931 62.7411 74.1964 62.7411 74.1319 62.7089C74.0674 62.7089 74.0352 62.6766 74.0029 62.6444C73.9707 62.6121 73.9707 62.5799 73.9707 62.5154V61.9351C73.7127 62.193 73.4548 62.4187 73.1324 62.5477C72.8422 62.6766 72.5198 62.7734 72.1651 62.7734C71.8749 62.7734 71.5847 62.7411 71.3591 62.6444C71.1334 62.5799 70.9077 62.4509 70.7464 62.322C70.5852 62.1608 70.4563 61.9995 70.3595 61.7738C70.2628 61.5482 70.2306 61.3225 70.2306 61.0323C70.2306 60.7098 70.2951 60.4197 70.424 60.194C70.553 59.9683 70.7464 59.7748 70.9721 59.6136C71.2301 59.4524 71.5203 59.3557 71.8749 59.2589C72.2296 59.1945 72.6165 59.13 73.0679 59.13H73.8417V58.6786C73.8417 58.4529 73.8095 58.2594 73.7772 58.0982C73.745 57.937 73.6483 57.7758 73.5515 57.6791C73.4548 57.5823 73.3258 57.4856 73.1646 57.4211C73.0034 57.3566 72.81 57.3244 72.552 57.3244C72.2941 57.3244 72.0684 57.3566 71.8749 57.4211C71.6815 57.4856 71.488 57.5501 71.3268 57.6146C71.1656 57.6791 71.0366 57.7436 70.9399 57.808C70.8432 57.8725 70.7464 57.9048 70.7142 57.9048C70.682 57.9048 70.6497 57.9048 70.6175 57.8725C70.5852 57.8725 70.5852 57.8403 70.553 57.808C70.5208 57.7758 70.5208 57.7436 70.5208 57.6791C70.5208 57.6146 70.5208 57.5823 70.5208 57.5179C70.5208 57.4211 70.5208 57.3244 70.553 57.2599C70.553 57.1954 70.6175 57.131 70.6497 57.0987C70.7142 57.0342 70.8109 56.9697 70.9399 56.9053C71.0689 56.8408 71.2301 56.7763 71.4235 56.7118C71.617 56.6473 71.8104 56.6151 72.0039 56.5506C72.2296 56.5183 72.423 56.4861 72.6487 56.4861C73.0679 56.4861 73.3903 56.5183 73.6805 56.6151C73.9707 56.7118 74.1964 56.8408 74.3576 57.0342C74.5188 57.2277 74.6478 57.4211 74.7445 57.7113C74.809 57.9693 74.8735 58.2917 74.8735 58.6463V62.5154H74.8412ZM69.0054 62.4509C69.0054 62.5477 68.9731 62.6121 68.9086 62.6444C68.8441 62.6766 68.7152 62.7089 68.5217 62.7089C68.425 62.7089 68.3283 62.7089 68.2638 62.7089C68.1993 62.7089 68.1348 62.7089 68.1026 62.6766C68.0703 62.6766 68.0381 62.6444 68.0381 62.6121C68.0381 62.5799 68.0058 62.5477 68.0058 62.5154L67.5867 59.2267C67.5867 59.0977 67.5545 58.9688 67.5545 58.8398C67.5545 58.7108 67.5222 58.5819 67.5222 58.4206C67.5222 58.2917 67.49 58.1305 67.49 58.0015C67.49 57.8725 67.4577 57.7436 67.4577 57.6146V57.4856C67.4255 57.6146 67.3932 57.7436 67.3288 57.8725C67.2965 58.0015 67.232 58.1305 67.1998 58.2917C67.1675 58.4206 67.1031 58.5819 67.0708 58.7108C67.0386 58.8398 66.9741 58.9688 66.9418 59.0977L65.7489 62.4509C65.7166 62.5154 65.7166 62.5477 65.6844 62.5799C65.6522 62.6121 65.6199 62.6444 65.5877 62.6766C65.5554 62.7089 65.4909 62.7089 65.4265 62.7089C65.362 62.7089 65.2975 62.7089 65.2008 62.7089C65.104 62.7089 65.0396 62.7089 64.9751 62.7089C64.9106 62.7089 64.8783 62.6766 64.8139 62.6766C64.7816 62.6444 64.7494 62.6444 64.7171 62.6121C64.6849 62.5799 64.6849 62.5477 64.6526 62.4832L63.5242 59.13C63.4919 59.001 63.4274 58.872 63.3952 58.7431C63.363 58.6141 63.2985 58.4851 63.2662 58.3239C63.234 58.1949 63.1695 58.0337 63.1373 57.9048C63.105 57.7758 63.0728 57.6468 63.0405 57.5179V57.6468C63.0405 57.7758 63.0083 57.9048 63.0083 58.0337C63.0083 58.1627 62.976 58.3239 62.976 58.4529C62.976 58.5819 62.9438 58.7431 62.9438 58.872C62.9438 59.001 62.9116 59.13 62.9116 59.2589L62.5247 62.5154C62.5247 62.5799 62.5247 62.6121 62.4924 62.6444C62.4924 62.6766 62.4602 62.7089 62.3957 62.7089C62.3634 62.7089 62.299 62.7411 62.2345 62.7411C62.17 62.7411 62.0733 62.7411 61.9765 62.7411C61.8798 62.7411 61.7831 62.7411 61.7186 62.7411C61.6541 62.7411 61.6219 62.7089 61.5896 62.7089C61.5574 62.6766 61.5251 62.6766 61.5251 62.6444C61.5251 62.6121 61.5251 62.5799 61.5251 62.5154L62.1377 57.0987C62.17 56.9697 62.2022 56.873 62.2667 56.8085C62.3312 56.744 62.4602 56.7118 62.5891 56.7118H63.0728C63.2017 56.7118 63.2985 56.7118 63.3952 56.744C63.4919 56.7763 63.5564 56.8085 63.6209 56.8408C63.6854 56.873 63.7176 56.9375 63.7821 57.0342C63.8143 57.0987 63.8788 57.1954 63.9111 57.3244L64.7494 59.7426C64.7816 59.9038 64.8461 60.0328 64.8783 60.194C64.9428 60.3552 64.9751 60.4842 65.0073 60.6454C65.0396 60.7743 65.104 60.9355 65.1363 61.0645C65.1685 61.1935 65.2008 61.3225 65.233 61.4514C65.2653 61.3225 65.2975 61.1935 65.362 61.0323C65.3942 60.9033 65.4587 60.7421 65.4909 60.5809C65.5232 60.4197 65.5877 60.2907 65.6199 60.1295C65.6844 59.9683 65.7166 59.8393 65.7489 59.7103L66.5872 57.3244C66.6194 57.2277 66.6517 57.1309 66.6839 57.0665C66.7162 57.002 66.7806 56.9375 66.8451 56.873C66.9096 56.8085 66.9741 56.7763 67.0708 56.7763C67.1675 56.744 67.2643 56.744 67.361 56.744H67.8446C68.0058 56.744 68.1026 56.7763 68.1993 56.8408C68.2638 56.9053 68.3283 57.002 68.3283 57.131L69.0054 62.4509ZM60.4934 61.6449C60.4934 61.7094 60.4934 61.7738 60.4934 61.8383C60.4934 61.9028 60.4934 61.9351 60.4611 61.9673C60.4611 61.9995 60.4289 62.0318 60.4289 62.064C60.4289 62.0963 60.3967 62.1285 60.3322 62.193C60.2677 62.2575 60.2032 62.322 60.0742 62.3864C59.9453 62.4509 59.8163 62.5477 59.6551 62.5799C59.4939 62.6444 59.3327 62.6766 59.1392 62.7411C58.9458 62.7734 58.7523 62.8056 58.5588 62.8056C58.1397 62.8056 57.785 62.7411 57.4626 62.6121C57.1402 62.4832 56.8822 62.2897 56.6888 62.0318C56.4631 61.7738 56.3019 61.4514 56.2052 61.0968C56.1084 60.7098 56.0439 60.2907 56.0439 59.8071C56.0439 59.2589 56.1084 58.7753 56.2374 58.3562C56.3664 57.9692 56.5598 57.6146 56.7855 57.3889C57.0112 57.1309 57.3014 56.9375 57.6238 56.8085C57.9462 56.6796 58.3009 56.6151 58.6556 56.6151C58.849 56.6151 59.0102 56.6473 59.1715 56.6796C59.3327 56.7118 59.4939 56.744 59.6551 56.8085C59.7841 56.873 59.913 56.9375 60.042 57.002C60.1387 57.0665 60.2354 57.131 60.2999 57.1954C60.3644 57.2599 60.3967 57.2922 60.3967 57.3244C60.4289 57.3566 60.4289 57.3889 60.4289 57.4211C60.4289 57.4534 60.4611 57.5179 60.4611 57.5501C60.4611 57.6146 60.4611 57.6791 60.4611 57.7436C60.4611 57.9048 60.4289 58.0337 60.3967 58.0982C60.3644 58.1627 60.2999 58.1949 60.2677 58.1949C60.2032 58.1949 60.1387 58.1627 60.042 58.0982C59.9453 58.0337 59.8485 57.937 59.7196 57.8725C59.5906 57.7758 59.4294 57.7113 59.2682 57.6468C59.0747 57.5823 58.8813 57.5501 58.6233 57.5501C58.1075 57.5501 57.7528 57.7436 57.4626 58.1305C57.2047 58.5174 57.0757 59.0655 57.0757 59.8071C57.0757 60.1617 57.1079 60.4842 57.1724 60.7743C57.2369 61.0323 57.3336 61.2902 57.4949 61.4514C57.6238 61.6449 57.785 61.7738 57.9785 61.8706C58.1719 61.9673 58.3976 61.9995 58.6556 61.9995C58.8813 61.9995 59.107 61.9673 59.3004 61.8706C59.4939 61.8061 59.6228 61.7094 59.7841 61.6126C59.913 61.5159 60.042 61.4514 60.1065 61.3547C60.2032 61.2902 60.2677 61.258 60.3322 61.258C60.3644 61.258 60.3967 61.258 60.3967 61.2902C60.4289 61.3225 60.4289 61.3225 60.4611 61.3869C60.4611 61.4192 60.4934 61.4837 60.4934 61.5482C60.4934 61.4837 60.4934 61.5482 60.4934 61.6449Z" fill="white"/>
    <path d="M208.775 62.5154C208.775 62.5477 208.775 62.5799 208.743 62.6121C208.711 62.6444 208.711 62.6444 208.646 62.6766C208.614 62.6766 208.549 62.7089 208.485 62.7089C208.42 62.7089 208.324 62.7089 208.227 62.7089C208.13 62.7089 208.034 62.7089 207.969 62.7089C207.905 62.7089 207.84 62.6766 207.808 62.6766C207.776 62.6766 207.743 62.6444 207.711 62.6121C207.679 62.5799 207.679 62.5477 207.679 62.5154V59.2589C207.679 59.0977 207.679 58.9365 207.679 58.7431C207.679 58.5819 207.711 58.4206 207.711 58.2272C207.614 58.3884 207.518 58.5496 207.389 58.7108C207.26 58.872 207.163 59.0332 207.034 59.1945L204.648 62.4832C204.616 62.5154 204.584 62.5477 204.584 62.5799C204.551 62.6121 204.519 62.6121 204.487 62.6444C204.455 62.6444 204.39 62.6766 204.358 62.6766C204.293 62.6766 204.229 62.6766 204.164 62.6766C204.068 62.6766 204.003 62.6766 203.939 62.6766C203.874 62.6766 203.842 62.6444 203.81 62.6444C203.778 62.6444 203.745 62.6121 203.745 62.5799C203.745 62.5477 203.713 62.5154 203.713 62.4832V56.8085C203.713 56.7763 203.713 56.744 203.745 56.7118C203.745 56.6796 203.778 56.6796 203.842 56.6473C203.874 56.6151 203.939 56.6151 204.003 56.6151C204.068 56.6151 204.164 56.6151 204.261 56.6151C204.455 56.6151 204.616 56.6151 204.68 56.6473C204.745 56.6796 204.809 56.7118 204.809 56.7763V60.065C204.809 60.2262 204.809 60.3874 204.809 60.5486C204.809 60.7098 204.777 60.8711 204.777 61.0323C204.874 60.8711 204.97 60.7098 205.067 60.5486C205.164 60.3874 205.261 60.2585 205.39 60.0972L207.808 56.7763C207.84 56.744 207.872 56.7118 207.872 56.6796C207.905 56.6473 207.937 56.6473 207.969 56.6151C208.001 56.6151 208.066 56.5828 208.098 56.5828C208.162 56.5828 208.227 56.5828 208.324 56.5828C208.42 56.5828 208.485 56.5828 208.549 56.5828C208.614 56.5828 208.646 56.6151 208.711 56.6151C208.743 56.6473 208.775 56.6473 208.775 56.6796C208.775 56.7118 208.807 56.744 208.807 56.7763V62.5154H208.775ZM201.101 59.7103C201.101 59.4202 201.069 59.13 201.037 58.872C201.005 58.6141 200.908 58.3562 200.811 58.1627C200.714 57.937 200.553 57.7758 200.392 57.6468C200.199 57.5179 199.973 57.4534 199.715 57.4534C199.586 57.4534 199.457 57.4856 199.328 57.5179C199.199 57.5501 199.07 57.6146 198.941 57.7113C198.812 57.808 198.651 57.9048 198.522 58.066C198.361 58.1949 198.232 58.3884 198.071 58.5819V60.8388C198.361 61.1935 198.619 61.4514 198.877 61.6449C199.135 61.8383 199.393 61.9351 199.683 61.9351C199.941 61.9351 200.166 61.8706 200.36 61.7416C200.553 61.6126 200.682 61.4514 200.811 61.2257C200.94 61 201.005 60.7743 201.069 60.5164C201.069 60.2262 201.101 59.9683 201.101 59.7103ZM202.165 59.5814C202.165 60.065 202.101 60.5164 202.004 60.9033C201.907 61.2902 201.746 61.6449 201.521 61.9028C201.327 62.193 201.069 62.3864 200.747 62.5477C200.457 62.7089 200.102 62.7734 199.715 62.7734C199.554 62.7734 199.393 62.7411 199.264 62.7089C199.135 62.6766 198.973 62.6121 198.844 62.5477C198.715 62.4832 198.587 62.3865 198.425 62.2897C198.296 62.193 198.135 62.064 198.006 61.9028V64.7401C198.006 64.7724 198.006 64.8046 197.974 64.8369C197.942 64.8691 197.942 64.8691 197.877 64.9014C197.845 64.9014 197.78 64.9336 197.716 64.9336C197.651 64.9336 197.555 64.9336 197.458 64.9336C197.361 64.9336 197.265 64.9336 197.2 64.9336C197.136 64.9336 197.071 64.9014 197.039 64.9014C197.007 64.8691 196.974 64.8691 196.942 64.8369C196.942 64.8046 196.91 64.7724 196.91 64.7401V56.8408C196.91 56.8085 196.91 56.7763 196.942 56.744C196.942 56.7118 196.974 56.7118 197.007 56.6796C197.039 56.6473 197.103 56.6473 197.168 56.6473C197.232 56.6473 197.297 56.6473 197.394 56.6473C197.49 56.6473 197.555 56.6473 197.619 56.6473C197.684 56.6473 197.716 56.6796 197.748 56.6796C197.78 56.7118 197.813 56.7118 197.813 56.744C197.813 56.7763 197.845 56.8085 197.845 56.8408V57.5823C198.006 57.4211 198.167 57.2599 198.329 57.131C198.49 57.002 198.651 56.9053 198.812 56.8085C198.973 56.7118 199.135 56.6473 199.296 56.6151C199.457 56.5828 199.65 56.5506 199.844 56.5506C200.263 56.5506 200.586 56.6151 200.876 56.7763C201.166 56.9375 201.392 57.1632 201.585 57.4211C201.778 57.7113 201.907 58.0337 201.972 58.3884C202.133 58.7753 202.165 59.1622 202.165 59.5814ZM194.04 59.9038H193.17C192.88 59.9038 192.654 59.936 192.428 59.9683C192.235 60.0005 192.041 60.0972 191.912 60.194C191.783 60.2907 191.687 60.3874 191.622 60.5486C191.558 60.6776 191.525 60.8388 191.525 61C191.525 61.2902 191.622 61.5159 191.816 61.7094C192.009 61.8706 192.267 61.9673 192.589 61.9673C192.847 61.9673 193.105 61.9028 193.331 61.7738C193.557 61.6449 193.815 61.4192 194.073 61.129V59.9038H194.04ZM195.072 62.5154C195.072 62.5799 195.04 62.6121 195.008 62.6444C194.975 62.6766 194.943 62.6766 194.879 62.7089C194.814 62.7089 194.75 62.7411 194.621 62.7411C194.524 62.7411 194.427 62.7411 194.363 62.7089C194.298 62.7089 194.266 62.6766 194.234 62.6444C194.202 62.6121 194.202 62.5799 194.202 62.5154V61.9351C193.944 62.193 193.686 62.4187 193.363 62.5477C193.073 62.6766 192.751 62.7734 192.396 62.7734C192.106 62.7734 191.816 62.7411 191.59 62.6444C191.364 62.5799 191.139 62.4509 190.977 62.322C190.816 62.1608 190.687 61.9995 190.59 61.7738C190.494 61.5482 190.461 61.3225 190.461 61.0323C190.461 60.7098 190.526 60.4197 190.655 60.194C190.784 59.9683 190.977 59.7748 191.203 59.6136C191.461 59.4524 191.751 59.3557 192.106 59.2589C192.46 59.1945 192.847 59.13 193.299 59.13H194.073V58.6786C194.073 58.4529 194.04 58.2594 194.008 58.0982C193.976 57.937 193.879 57.7758 193.782 57.6791C193.686 57.5823 193.557 57.4856 193.395 57.4211C193.234 57.3566 193.041 57.3244 192.783 57.3244C192.525 57.3244 192.299 57.3566 192.106 57.4211C191.912 57.4856 191.719 57.5501 191.558 57.6146C191.396 57.6791 191.267 57.7436 191.171 57.808C191.074 57.8725 190.977 57.9048 190.945 57.9048C190.913 57.9048 190.881 57.9048 190.848 57.8725C190.816 57.8725 190.816 57.8403 190.784 57.808C190.752 57.7758 190.752 57.7436 190.752 57.6791C190.752 57.6146 190.752 57.5823 190.752 57.5179C190.752 57.4211 190.752 57.3244 190.784 57.2599C190.784 57.1954 190.848 57.131 190.881 57.0987C190.945 57.0342 191.042 56.9697 191.171 56.9053C191.3 56.8408 191.461 56.7763 191.654 56.7118C191.848 56.6473 192.041 56.6151 192.235 56.5506C192.46 56.5183 192.654 56.4861 192.88 56.4861C193.299 56.4861 193.621 56.5183 193.911 56.6151C194.202 56.7118 194.427 56.8408 194.588 57.0342C194.75 57.2277 194.879 57.4211 194.975 57.7113C195.04 57.9693 195.104 58.2917 195.104 58.6463V62.5154H195.072ZM188.237 60.9033C188.237 60.7421 188.204 60.5809 188.14 60.4519C188.075 60.3229 187.979 60.2262 187.85 60.1295C187.721 60.0328 187.56 59.9683 187.366 59.936C187.173 59.9038 186.947 59.8716 186.657 59.8716H185.657V61.8706C185.722 61.8706 185.819 61.9028 185.915 61.9028C186.012 61.9028 186.076 61.9028 186.173 61.9351C186.27 61.9351 186.367 61.9351 186.431 61.9351C186.528 61.9351 186.592 61.9351 186.689 61.9351C186.947 61.9351 187.205 61.9028 187.398 61.8706C187.592 61.8383 187.753 61.7416 187.882 61.6449C188.011 61.5482 188.108 61.4514 188.172 61.3225C188.204 61.1935 188.237 61.0645 188.237 60.9033ZM188.043 58.2594C188.043 58.1305 188.011 58.0015 187.979 57.9048C187.914 57.808 187.85 57.7113 187.721 57.6146C187.592 57.5501 187.463 57.4856 187.269 57.4534C187.076 57.4211 186.85 57.3889 186.592 57.3889C186.399 57.3889 186.205 57.3889 186.044 57.3889C185.883 57.3889 185.754 57.4211 185.625 57.4211V59.1622H186.689C187.108 59.1622 187.463 59.0977 187.689 58.9365C187.914 58.7753 188.043 58.5496 188.043 58.2594ZM189.301 60.8711C189.301 61.1612 189.236 61.4514 189.14 61.6771C189.011 61.9028 188.849 62.0963 188.624 62.2575C188.398 62.4187 188.14 62.5477 187.785 62.6121C187.463 62.7089 187.076 62.7411 186.625 62.7411C186.496 62.7411 186.367 62.7411 186.238 62.7411C186.109 62.7411 185.98 62.7411 185.851 62.7411C185.722 62.7411 185.593 62.7411 185.496 62.7089C185.367 62.7089 185.27 62.6766 185.141 62.6766C184.98 62.6444 184.851 62.6121 184.755 62.5154C184.69 62.4187 184.626 62.2897 184.626 62.1285V57.2599C184.626 57.0987 184.658 56.9697 184.755 56.873C184.819 56.7763 184.948 56.7118 185.109 56.7118C185.206 56.7118 185.335 56.6796 185.464 56.6796C185.593 56.6796 185.722 56.6796 185.851 56.6473C185.98 56.6473 186.109 56.6473 186.27 56.6473C186.399 56.6473 186.56 56.6473 186.689 56.6473C187.108 56.6473 187.463 56.6796 187.753 56.744C188.043 56.8085 188.301 56.9053 188.495 57.0342C188.688 57.1632 188.849 57.3244 188.946 57.5179C189.043 57.7113 189.075 57.937 189.075 58.1627C189.075 58.4851 188.978 58.7431 188.817 58.9688C188.656 59.1945 188.398 59.3557 188.075 59.4524C188.495 59.5491 188.817 59.7103 189.011 59.9683C189.172 60.1617 189.301 60.4842 189.301 60.8711ZM182.014 59.6781C182.014 59.3557 181.982 59.0655 181.917 58.8076C181.853 58.5496 181.756 58.2917 181.627 58.0982C181.498 57.9048 181.305 57.7436 181.111 57.6146C180.885 57.4856 180.595 57.4211 180.273 57.4211C179.95 57.4211 179.693 57.4856 179.467 57.5823C179.241 57.6791 179.08 57.8403 178.919 58.0337C178.79 58.2272 178.661 58.4851 178.596 58.7431C178.532 59.001 178.5 59.3234 178.5 59.6459C178.5 59.9683 178.532 60.2585 178.596 60.5164C178.661 60.7743 178.757 61.0323 178.886 61.2257C179.015 61.4192 179.209 61.5804 179.435 61.7094C179.66 61.8383 179.95 61.9028 180.273 61.9028C180.563 61.9028 180.853 61.8383 181.047 61.7416C181.272 61.6449 181.466 61.4837 181.595 61.2902C181.724 61.0968 181.853 60.8711 181.917 60.5809C181.982 60.2907 182.014 60.0005 182.014 59.6781ZM183.11 59.6136C183.11 60.065 183.046 60.4842 182.917 60.9033C182.788 61.2902 182.627 61.6126 182.369 61.9028C182.143 62.193 181.82 62.4187 181.466 62.5477C181.111 62.7089 180.692 62.7734 180.208 62.7734C179.757 62.7734 179.338 62.7089 178.983 62.5799C178.629 62.4509 178.338 62.2252 178.113 61.9673C177.887 61.7094 177.726 61.3869 177.597 61C177.468 60.6131 177.436 60.194 177.436 59.7103C177.436 59.2589 177.5 58.8398 177.629 58.4529C177.758 58.066 177.919 57.7436 178.177 57.4534C178.403 57.1632 178.725 56.9697 179.08 56.8085C179.435 56.6473 179.854 56.5828 180.337 56.5828C180.789 56.5828 181.208 56.6473 181.563 56.7763C181.917 56.9053 182.207 57.1309 182.433 57.3889C182.659 57.6468 182.852 57.9692 182.949 58.3562C183.046 58.7108 183.11 59.13 183.11 59.6136ZM176.952 57.1632C176.952 57.2599 176.952 57.3244 176.952 57.3889C176.952 57.4534 176.92 57.4856 176.92 57.5179C176.887 57.5501 176.887 57.5823 176.855 57.6146C176.823 57.6468 176.791 57.6468 176.758 57.6468H175.05V62.5154C175.05 62.5477 175.05 62.5799 175.017 62.6121C174.985 62.6444 174.985 62.6444 174.921 62.6766C174.888 62.6766 174.824 62.7089 174.759 62.7089C174.695 62.7089 174.598 62.7089 174.501 62.7089C174.405 62.7089 174.308 62.7089 174.244 62.7089C174.179 62.7089 174.115 62.6766 174.082 62.6766C174.05 62.6444 174.018 62.6444 173.986 62.6121C173.986 62.5799 173.953 62.5477 173.953 62.5154V57.6468H172.245C172.212 57.6468 172.18 57.6468 172.148 57.6146C172.116 57.5823 172.083 57.5823 172.083 57.5179C172.083 57.4856 172.051 57.4211 172.051 57.3566C172.051 57.2922 172.051 57.2277 172.051 57.131C172.051 57.0665 172.051 57.002 172.051 56.9375C172.051 56.873 172.083 56.8408 172.083 56.7763C172.116 56.744 172.116 56.7118 172.148 56.6796C172.18 56.6473 172.212 56.6473 172.245 56.6473H176.662C176.694 56.6473 176.726 56.6473 176.758 56.6796C176.791 56.7118 176.823 56.7118 176.823 56.7763C176.823 56.8085 176.855 56.873 176.855 56.9375C176.952 57.002 176.952 57.0665 176.952 57.1632ZM170.503 59.6781C170.503 59.3557 170.471 59.0655 170.407 58.8076C170.342 58.5496 170.246 58.2917 170.117 58.0982C169.988 57.9048 169.794 57.7436 169.601 57.6146C169.375 57.4856 169.085 57.4211 168.762 57.4211C168.44 57.4211 168.182 57.4856 167.956 57.5823C167.731 57.6791 167.569 57.8403 167.408 58.0337C167.279 58.2272 167.15 58.4851 167.086 58.7431C167.021 59.001 166.989 59.3234 166.989 59.6459C166.989 59.9683 167.021 60.2585 167.086 60.5164C167.15 60.7743 167.247 61.0323 167.376 61.2257C167.505 61.4192 167.698 61.5804 167.924 61.7094C168.15 61.8383 168.44 61.9028 168.762 61.9028C169.053 61.9028 169.343 61.8383 169.536 61.7416C169.762 61.6449 169.955 61.4837 170.084 61.2902C170.213 61.0968 170.342 60.8711 170.407 60.5809C170.439 60.2907 170.503 60.0005 170.503 59.6781ZM171.567 59.6136C171.567 60.065 171.503 60.4842 171.374 60.9033C171.245 61.2902 171.084 61.6126 170.826 61.9028C170.6 62.193 170.278 62.4187 169.923 62.5477C169.568 62.7089 169.149 62.7734 168.666 62.7734C168.214 62.7734 167.795 62.7089 167.44 62.5799C167.086 62.4509 166.796 62.2252 166.57 61.9673C166.344 61.7094 166.183 61.3869 166.054 61C165.925 60.6131 165.893 60.194 165.893 59.7103C165.893 59.2589 165.957 58.8398 166.086 58.4529C166.215 58.066 166.376 57.7436 166.634 57.4534C166.86 57.1632 167.182 56.9697 167.537 56.8085C167.892 56.6473 168.311 56.5828 168.795 56.5828C169.246 56.5828 169.665 56.6473 170.02 56.7763C170.374 56.9053 170.665 57.1309 170.89 57.3889C171.116 57.6468 171.309 57.9692 171.406 58.3562C171.503 58.7108 171.567 59.13 171.567 59.6136ZM163.7 59.6781C163.7 59.3557 163.668 59.0655 163.604 58.8076C163.539 58.5496 163.442 58.2917 163.313 58.0982C163.184 57.9048 162.991 57.7436 162.798 57.6146C162.572 57.4856 162.282 57.4211 161.959 57.4211C161.637 57.4211 161.379 57.4856 161.153 57.5823C160.927 57.6791 160.766 57.8403 160.605 58.0337C160.476 58.2272 160.347 58.4851 160.283 58.7431C160.218 59.001 160.186 59.3234 160.186 59.6459C160.186 59.9683 160.218 60.2585 160.283 60.5164C160.347 60.7743 160.444 61.0323 160.573 61.2257C160.702 61.4192 160.895 61.5804 161.121 61.7094C161.347 61.8383 161.637 61.9028 161.959 61.9028C162.249 61.9028 162.54 61.8383 162.733 61.7416C162.959 61.6449 163.152 61.4837 163.281 61.2902C163.41 61.0968 163.539 60.8711 163.604 60.5809C163.668 60.2907 163.7 60.0005 163.7 59.6781ZM164.764 59.6136C164.764 60.065 164.7 60.4842 164.571 60.9033C164.442 61.2902 164.281 61.6126 164.023 61.9028C163.797 62.193 163.475 62.4187 163.12 62.5477C162.765 62.7089 162.346 62.7734 161.862 62.7734C161.411 62.7734 160.992 62.7089 160.637 62.5799C160.283 62.4509 159.992 62.2252 159.767 61.9673C159.541 61.7094 159.38 61.3869 159.251 61C159.122 60.6131 159.09 60.194 159.09 59.7103C159.09 59.2589 159.154 58.8398 159.283 58.4529C159.412 58.066 159.573 57.7436 159.831 57.4534C160.057 57.1632 160.379 56.9697 160.734 56.8085C161.089 56.6473 161.508 56.5828 161.991 56.5828C162.443 56.5828 162.862 56.6473 163.217 56.7763C163.571 56.9053 163.862 57.1309 164.087 57.3889C164.313 57.6468 164.506 57.9692 164.603 58.3562C164.732 58.7108 164.764 59.13 164.764 59.6136ZM157.993 60.9355C157.993 61.2257 157.929 61.4837 157.832 61.7094C157.703 61.9351 157.542 62.1285 157.349 62.2897C157.123 62.4509 156.865 62.5799 156.575 62.6444C156.252 62.7411 155.93 62.7734 155.543 62.7734C155.317 62.7734 155.124 62.7734 154.93 62.7411C154.737 62.7089 154.576 62.6766 154.415 62.6121C154.253 62.5799 154.124 62.5154 154.028 62.4509C153.931 62.3865 153.834 62.3542 153.802 62.322C153.77 62.2897 153.737 62.2575 153.705 62.2252C153.673 62.193 153.673 62.1608 153.673 62.1285C153.673 62.0963 153.641 62.0318 153.641 61.9995C153.641 61.9351 153.641 61.8706 153.641 61.8061C153.641 61.7416 153.641 61.6771 153.641 61.6449C153.641 61.6126 153.673 61.5482 153.673 61.5482C153.673 61.5159 153.705 61.4837 153.705 61.4837C153.737 61.4837 153.737 61.4514 153.77 61.4514C153.802 61.4514 153.866 61.4837 153.963 61.5482C154.06 61.6126 154.157 61.6771 154.286 61.7416C154.415 61.8061 154.608 61.8706 154.801 61.9351C154.995 61.9995 155.253 62.0318 155.543 62.0318C155.769 62.0318 155.93 61.9995 156.123 61.9673C156.285 61.9351 156.446 61.8706 156.542 61.7738C156.671 61.6771 156.736 61.5804 156.833 61.4514C156.897 61.3225 156.929 61.1612 156.929 61C156.929 60.8388 156.897 60.7098 156.833 60.6131C156.768 60.4842 156.671 60.3874 156.542 60.3229C156.414 60.2262 156.252 60.1617 156.027 60.1295C155.801 60.0972 155.575 60.065 155.253 60.065H154.64C154.608 60.065 154.576 60.065 154.543 60.0328C154.511 60.0328 154.511 60.0005 154.479 59.9683C154.447 59.936 154.447 59.9038 154.447 59.8393C154.447 59.7748 154.447 59.7103 154.447 59.6459C154.447 59.5814 154.447 59.5169 154.447 59.4846C154.447 59.4202 154.479 59.3879 154.479 59.3557C154.511 59.3234 154.511 59.2912 154.543 59.2912C154.576 59.2912 154.608 59.2589 154.64 59.2589H155.253C155.511 59.2589 155.736 59.2267 155.93 59.1945C156.123 59.1622 156.285 59.0977 156.414 59.001C156.543 58.9043 156.639 58.8076 156.704 58.7108C156.768 58.5819 156.8 58.4529 156.8 58.2917C156.8 58.1627 156.768 58.0337 156.704 57.937C156.639 57.8403 156.575 57.7436 156.478 57.6791C156.381 57.6146 156.252 57.5501 156.123 57.5179C155.994 57.4856 155.833 57.4534 155.672 57.4534C155.414 57.4534 155.188 57.4856 154.995 57.5501C154.801 57.6146 154.608 57.6791 154.479 57.7436C154.35 57.808 154.221 57.8725 154.124 57.937C154.028 58.0015 153.963 58.0337 153.931 58.0337C153.899 58.0337 153.899 58.0337 153.866 58.0337C153.834 58.0337 153.834 58.0015 153.802 57.9693C153.802 57.937 153.77 57.9048 153.77 57.8725C153.77 57.8403 153.77 57.7758 153.77 57.7113C153.77 57.5823 153.77 57.4856 153.802 57.4211C153.834 57.3566 153.866 57.2922 153.899 57.2277C153.963 57.1632 154.028 57.1309 154.157 57.0665C154.286 57.002 154.415 56.9375 154.608 56.873C154.769 56.8085 154.963 56.7763 155.156 56.744C155.35 56.7118 155.575 56.6796 155.769 56.6796C156.091 56.6796 156.349 56.7118 156.607 56.7763C156.865 56.8408 157.091 56.9375 157.252 57.0665C157.445 57.1954 157.574 57.3566 157.671 57.5501C157.768 57.7436 157.832 57.9693 157.832 58.2272C157.832 58.3884 157.8 58.5174 157.768 58.6786C157.703 58.8076 157.639 58.9365 157.542 59.0655C157.445 59.1945 157.316 59.2912 157.187 59.3879C157.058 59.4846 156.897 59.5491 156.736 59.6136C156.897 59.6459 157.058 59.6781 157.22 59.7426C157.381 59.8071 157.51 59.936 157.639 60.0328C157.768 60.1617 157.864 60.2907 157.929 60.4842C157.961 60.5486 157.993 60.7421 157.993 60.9355ZM149.385 54.9385C149.385 55.1964 149.352 55.3576 149.256 55.4221C149.159 55.5188 148.998 55.5511 148.74 55.5511C148.482 55.5511 148.321 55.5188 148.224 55.4221C148.127 55.3254 148.095 55.1642 148.095 54.9385C148.095 54.6805 148.127 54.5193 148.224 54.4548C148.321 54.3581 148.482 54.3259 148.74 54.3259C148.998 54.3259 149.159 54.3581 149.256 54.4548C149.32 54.5193 149.385 54.6805 149.385 54.9385ZM149.256 62.5154C149.256 62.5477 149.256 62.5799 149.223 62.6121C149.191 62.6444 149.191 62.6444 149.127 62.6766C149.095 62.6766 149.03 62.7089 148.966 62.7089C148.901 62.7089 148.804 62.7089 148.708 62.7089C148.611 62.7089 148.514 62.7089 148.45 62.7089C148.385 62.7089 148.321 62.6766 148.288 62.6766C148.256 62.6444 148.224 62.6444 148.192 62.6121C148.192 62.5799 148.159 62.5477 148.159 62.5154V56.8408C148.159 56.8085 148.159 56.7763 148.192 56.744C148.192 56.7118 148.224 56.7118 148.288 56.6796C148.321 56.6796 148.385 56.6473 148.45 56.6473C148.514 56.6473 148.611 56.6473 148.708 56.6473C148.804 56.6473 148.901 56.6473 148.966 56.6473C149.03 56.6473 149.095 56.6796 149.127 56.6796C149.159 56.7118 149.191 56.7118 149.223 56.744C149.256 56.7763 149.256 56.8085 149.256 56.8408V62.5154ZM146.289 62.5154C146.289 62.5477 146.289 62.5799 146.257 62.6121C146.225 62.6444 146.225 62.6444 146.16 62.6766C146.128 62.6766 146.064 62.7089 145.999 62.7089C145.935 62.7089 145.838 62.7089 145.741 62.7089C145.645 62.7089 145.548 62.7089 145.483 62.7089C145.419 62.7089 145.354 62.6766 145.322 62.6766C145.29 62.6444 145.258 62.6444 145.225 62.6121C145.193 62.5799 145.193 62.5477 145.193 62.5154V60.0328H142.324V62.5154C142.324 62.5477 142.324 62.5799 142.291 62.6121C142.259 62.6444 142.259 62.6444 142.195 62.6766C142.162 62.6766 142.098 62.7089 142.033 62.7089C141.969 62.7089 141.872 62.7089 141.776 62.7089C141.679 62.7089 141.582 62.7089 141.518 62.7089C141.453 62.7089 141.389 62.6766 141.356 62.6766C141.324 62.6444 141.292 62.6444 141.26 62.6121C141.26 62.5799 141.227 62.5477 141.227 62.5154V56.8408C141.227 56.8085 141.227 56.7763 141.26 56.744C141.26 56.7118 141.292 56.7118 141.356 56.6796C141.389 56.6473 141.453 56.6473 141.518 56.6473C141.582 56.6473 141.679 56.6473 141.776 56.6473C141.872 56.6473 141.969 56.6473 142.033 56.6473C142.098 56.6473 142.162 56.6796 142.195 56.6796C142.227 56.7118 142.259 56.7118 142.291 56.744C142.324 56.7763 142.324 56.8085 142.324 56.8408V59.13H145.193V56.8408C145.193 56.8085 145.193 56.7763 145.225 56.744C145.258 56.7118 145.258 56.7118 145.322 56.6796C145.354 56.6473 145.419 56.6473 145.483 56.6473C145.548 56.6473 145.645 56.6473 145.741 56.6473C145.838 56.6473 145.935 56.6473 145.999 56.6473C146.064 56.6473 146.128 56.6796 146.16 56.6796C146.193 56.7118 146.225 56.7118 146.257 56.744C146.289 56.7763 146.289 56.8085 146.289 56.8408V62.5154ZM139.97 61.6449C139.97 61.7094 139.97 61.7738 139.97 61.8383C139.97 61.9028 139.97 61.9351 139.938 61.9673C139.938 61.9995 139.905 62.0318 139.905 62.064C139.905 62.0963 139.873 62.1285 139.809 62.193C139.744 62.2575 139.68 62.322 139.551 62.3864C139.422 62.4509 139.293 62.5477 139.132 62.5799C138.97 62.6444 138.809 62.6766 138.616 62.7411C138.422 62.7734 138.229 62.8056 138.035 62.8056C137.616 62.8056 137.262 62.7411 136.939 62.6121C136.617 62.4832 136.359 62.2897 136.165 62.0318C135.94 61.7738 135.778 61.4514 135.682 61.0968C135.585 60.7098 135.521 60.2907 135.521 59.8071C135.521 59.2589 135.585 58.7753 135.714 58.3562C135.843 57.9692 136.036 57.6146 136.262 57.3889C136.488 57.1309 136.778 56.9375 137.1 56.8085C137.423 56.6796 137.777 56.6151 138.132 56.6151C138.326 56.6151 138.487 56.6473 138.648 56.6796C138.809 56.7118 138.97 56.744 139.132 56.8085C139.261 56.873 139.39 56.9375 139.519 57.002C139.615 57.0665 139.712 57.131 139.776 57.1954C139.841 57.2599 139.873 57.2922 139.873 57.3244C139.905 57.3566 139.905 57.3889 139.905 57.4211C139.905 57.4534 139.938 57.5179 139.938 57.5501C139.938 57.6146 139.938 57.6791 139.938 57.7436C139.938 57.9048 139.905 58.0337 139.873 58.0982C139.841 58.1627 139.776 58.1949 139.744 58.1949C139.68 58.1949 139.615 58.1627 139.519 58.0982C139.422 58.0337 139.325 57.937 139.196 57.8725C139.067 57.7758 138.906 57.7113 138.745 57.6468C138.551 57.5823 138.358 57.5501 138.1 57.5501C137.584 57.5501 137.229 57.7436 136.939 58.1305C136.681 58.5174 136.552 59.0655 136.552 59.8071C136.552 60.1617 136.585 60.4842 136.649 60.7743C136.713 61.0323 136.81 61.2902 136.971 61.4514C137.1 61.6449 137.262 61.7738 137.455 61.8706C137.649 61.9673 137.874 61.9995 138.132 61.9995C138.358 61.9995 138.584 61.9673 138.777 61.8706C138.97 61.8061 139.099 61.7094 139.261 61.6126C139.39 61.5159 139.519 61.4514 139.583 61.3547C139.68 61.2902 139.744 61.258 139.809 61.258C139.841 61.258 139.873 61.258 139.873 61.2902C139.905 61.3225 139.905 61.3225 139.938 61.3869C139.938 61.4192 139.97 61.4837 139.97 61.5482C139.97 61.4837 139.97 61.5482 139.97 61.6449Z" fill="white"/>
</svg>
