<svg width="151" height="152" viewBox="0 0 151 152" fill="none" xmlns="http://www.w3.org/2000/svg">
    <path fill-rule="evenodd" clip-rule="evenodd" d="M74.5467 0.78006C109.818 0.78006 150.969 20.5664 150.969 72.0111C150.969 123.456 100.021 143.242 58.8703 129.392C60.2494 134.502 65.2697 139.495 74.5467 143.242C84.3445 147.199 100.021 147.199 100.021 147.199V151.156C66.7085 154.454 0.0839729 143.242 0.0839844 72.0111C0.0839959 25.2273 39.2749 0.78006 74.5467 0.78006ZM90.3386 76.2226C90.3386 88.9308 80.0642 99.2326 67.3905 99.2326C54.7164 99.2326 44.4424 88.9308 44.4424 76.2226C44.4424 63.5145 54.7164 53.2127 67.3905 53.2127C80.0642 53.2127 90.3386 63.5145 90.3386 76.2226ZM75.735 76.2226C75.735 80.8437 71.9991 84.5898 67.3905 84.5898C62.7819 84.5898 59.0456 80.8437 59.0456 76.2226C59.0456 71.6016 62.7819 67.8555 67.3905 67.8555C71.9991 67.8555 75.735 71.6016 75.735 76.2226ZM140.407 76.2226C140.407 88.9308 130.133 99.2326 117.459 99.2326C104.785 99.2326 94.5109 88.9308 94.5109 76.2226C94.5109 63.5145 104.785 53.2127 117.459 53.2127C130.133 53.2127 140.407 63.5145 140.407 76.2226ZM125.804 76.2226C125.804 80.8437 122.068 84.5898 117.459 84.5898C112.85 84.5898 109.114 80.8437 109.114 76.2226C109.114 71.6016 112.85 67.8555 117.459 67.8555C122.068 67.8555 125.804 71.6016 125.804 76.2226ZM40.8127 55.3045H10.646V67.3346H23.2119L12.24 97.1408H40.2698V84.6758H29.5441L40.8127 55.3045Z" fill="#EC320C"/>
</svg>
