<svg width="103" height="104" viewBox="0 0 103 104" fill="none" xmlns="http://www.w3.org/2000/svg">
    <path d="M29.6299 0.634766L20.0773 15.0059L10.7784 0.634766H0V41.4234H9.84845V17.2884L16.2732 27.2636H23.7969L30.6866 16.8234V41.4234H40.5351V0.634766H29.6299Z" fill="white"/>
    <path d="M27.7282 61.9648L20.0777 74.0535L12.6808 61.9648H1.1416L15.0901 84.7473V102.796H24.9385V84.7473L39.3942 61.9648H27.7282Z" fill="white"/>
    <path d="M81.4508 61.2891C69.8271 61.2891 60.4014 70.7571 60.4014 82.3386C60.4014 93.9623 69.8694 103.388 81.4508 103.388C93.0323 103.388 102.5 93.9623 102.5 82.3386C102.5 70.7148 93.0746 61.2891 81.4508 61.2891ZM92.6942 82.3808C92.6942 88.552 87.6643 93.5818 81.4931 93.5818C75.322 93.5818 70.2921 88.552 70.2921 82.3808C70.2921 76.2097 75.322 71.1798 81.4931 71.1798C87.6643 71.1375 92.6942 76.1674 92.6942 82.3808Z" fill="white"/>
    <path d="M81.4508 0C69.8271 0 60.4014 9.46804 60.4014 21.0495C60.4014 32.6732 69.8694 42.099 81.4508 42.099C93.0323 42.099 102.5 32.6732 102.5 21.0495C102.5 9.42577 93.0746 0 81.4508 0ZM92.6942 21.0495C92.6942 27.2206 87.6643 32.2505 81.4931 32.2505C75.322 32.2505 70.2921 27.2206 70.2921 21.0495C70.2921 14.8784 75.322 9.84845 81.4931 9.84845C87.6643 9.84845 92.6942 14.8784 92.6942 21.0495Z" fill="white"/>
</svg>
