<svg width="191" height="175" viewBox="0 0 191 175" fill="none" xmlns="http://www.w3.org/2000/svg">
    <rect x="60.5" y="106.5" width="39" height="124" rx="19.5" transform="rotate(-90 60.5 106.5)" fill="#232323" stroke="white"/>
    <g filter="url(#filter0_d_55_9)">
        <path d="M60 115L60 80C60 68.9543 68.9543 60 80 60L115 60L115 95C115 106.046 106.046 115 95 115L60 115Z" fill="#969696"/>
    </g>
    <path d="M60.4337 146H56.8977C56.5884 146 56.4337 145.84 56.4337 145.52V135.6C56.4337 135.28 56.5884 135.12 56.8977 135.12H59.9057C61.2284 135.12 62.2364 135.333 62.9297 135.76C63.6231 136.187 63.9697 136.805 63.9697 137.616V138.496C63.9697 139.243 63.6071 139.835 62.8817 140.272C63.9591 140.731 64.4977 141.371 64.4977 142.192V143.376C64.4977 144.208 64.1457 144.853 63.4417 145.312C62.7377 145.771 61.7351 146 60.4337 146ZM59.9057 137.2H59.0737V139.504H59.9057C60.3537 139.504 60.7057 139.413 60.9617 139.232C61.2284 139.04 61.3617 138.779 61.3617 138.448V138.032C61.3617 137.733 61.2497 137.52 61.0257 137.392C60.8124 137.264 60.4391 137.2 59.9057 137.2ZM60.4337 141.456H59.0737V143.92H60.4337C60.8924 143.92 61.2497 143.835 61.5057 143.664C61.7617 143.483 61.8897 143.227 61.8897 142.896V142.384C61.8897 142.107 61.7511 141.883 61.4737 141.712C61.2071 141.541 60.8604 141.456 60.4337 141.456ZM71.1166 141.088L68.7806 145.6C68.642 145.867 68.4126 146 68.0926 146H66.5886C66.29 146 66.1406 145.84 66.1406 145.52V135.6C66.1406 135.28 66.29 135.12 66.5886 135.12H68.3166C68.626 135.12 68.7806 135.28 68.7806 135.6V141.232C68.9833 140.677 69.1753 140.245 69.3566 139.936L71.7406 135.52C71.8793 135.253 72.1086 135.12 72.4286 135.12H73.9326C74.2313 135.12 74.3806 135.28 74.3806 135.6V145.52C74.3806 145.84 74.2313 146 73.9326 146H72.2046C71.8953 146 71.7406 145.84 71.7406 145.52V139.728C71.634 140.027 71.426 140.48 71.1166 141.088ZM86.6329 135.6V145.52C86.6329 145.84 86.4835 146 86.1849 146H84.5369C84.2275 146 84.0729 145.84 84.0729 145.52V140.432C83.8809 141.221 83.7102 141.787 83.5609 142.128L82.8569 143.872C82.7395 144.192 82.5315 144.352 82.2329 144.352H80.8409C80.5742 144.352 80.3715 144.192 80.2329 143.872L79.3529 141.84C79.2675 141.637 79.1289 141.184 78.9369 140.48V145.52C78.9369 145.84 78.7875 146 78.4889 146H76.9209C76.6115 146 76.4569 145.84 76.4569 145.52V135.6C76.4569 135.28 76.6115 135.12 76.9209 135.12H78.5529C78.7662 135.12 78.9209 135.237 79.0169 135.472L81.0809 140.272C81.1875 140.528 81.3422 140.949 81.5449 141.536C81.7155 141.045 81.8702 140.635 82.0089 140.304L83.9929 135.472C84.0889 135.237 84.2489 135.12 84.4729 135.12H86.1849C86.4835 135.12 86.6329 135.28 86.6329 135.6ZM96.7746 135.6L93.7346 140.464L97.1746 145.52C97.26 145.648 97.2813 145.76 97.2386 145.856C97.196 145.952 97.0946 146 96.9346 146H94.6626C94.428 146 94.204 145.84 93.9906 145.52L91.4786 141.6H91.3506V145.52C91.3506 145.84 91.2013 146 90.9026 146H89.1746C88.8653 146 88.7106 145.84 88.7106 145.52V135.6C88.7106 135.28 88.8653 135.12 89.1746 135.12H90.9026C91.2013 135.12 91.3506 135.28 91.3506 135.6V139.68H91.4786L93.8946 135.6C94.076 135.28 94.3266 135.12 94.6466 135.12H96.5506C96.7106 135.12 96.8066 135.168 96.8386 135.264C96.8813 135.349 96.86 135.461 96.7746 135.6ZM101.026 135.6V139.408H103.922V135.6C103.922 135.28 104.077 135.12 104.386 135.12H106.114C106.413 135.12 106.562 135.28 106.562 135.6V145.52C106.562 145.84 106.413 146 106.114 146H104.386C104.077 146 103.922 145.84 103.922 145.52V141.568H101.026V145.52C101.026 145.84 100.877 146 100.578 146H98.8502C98.5409 146 98.3862 145.84 98.3862 145.52V135.6C98.3862 135.28 98.5409 135.12 98.8502 135.12H100.578C100.877 135.12 101.026 135.28 101.026 135.6ZM116.848 135.6L113.472 143.152C112.971 144.272 112.464 145.029 111.952 145.424C111.44 145.808 110.747 146 109.872 146H109.632C109.312 146 109.152 145.845 109.152 145.536V144.304C109.152 143.984 109.312 143.824 109.632 143.824H109.872C110.213 143.824 110.485 143.76 110.688 143.632C110.901 143.493 111.083 143.264 111.232 142.944L108.032 135.6C107.893 135.28 108.005 135.12 108.368 135.12H110.32C110.576 135.12 110.768 135.28 110.896 135.6L112.096 138.784C112.256 139.2 112.411 139.691 112.56 140.256C112.859 139.307 113.013 138.816 113.024 138.784L114.24 135.6C114.357 135.28 114.544 135.12 114.8 135.12H116.496C116.667 135.12 116.784 135.163 116.848 135.248C116.912 135.333 116.912 135.451 116.848 135.6ZM117.73 135.12H124.466C124.786 135.12 124.946 135.269 124.946 135.568V136.816C124.946 137.125 124.786 137.28 124.466 137.28H122.418V145.52C122.418 145.84 122.268 146 121.97 146H120.242C119.932 146 119.778 145.84 119.778 145.52V137.28H117.73C117.41 137.28 117.25 137.125 117.25 136.816V135.568C117.25 135.269 117.41 135.12 117.73 135.12ZM131.186 141.088L128.85 145.6C128.711 145.867 128.482 146 128.162 146H126.658C126.359 146 126.21 145.84 126.21 145.52V135.6C126.21 135.28 126.359 135.12 126.658 135.12H128.386C128.695 135.12 128.85 135.28 128.85 135.6V141.232C129.053 140.677 129.245 140.245 129.426 139.936L131.81 135.52C131.949 135.253 132.178 135.12 132.498 135.12H134.002C134.301 135.12 134.45 135.28 134.45 135.6V145.52C134.45 145.84 134.301 146 134.002 146H132.274C131.965 146 131.81 145.84 131.81 145.52V139.728C131.703 140.027 131.495 140.48 131.186 141.088ZM147.273 142.416V143.392C147.273 144.256 146.932 144.928 146.249 145.408C145.577 145.888 144.607 146.128 143.337 146.128C142.068 146.128 141.092 145.888 140.409 145.408C139.737 144.928 139.401 144.256 139.401 143.392V137.728C139.401 136.864 139.737 136.192 140.409 135.712C141.092 135.232 142.068 134.992 143.337 134.992C144.607 134.992 145.577 135.232 146.249 135.712C146.932 136.192 147.273 136.864 147.273 137.728V138.464C147.273 138.784 147.124 138.944 146.825 138.944H145.177C144.868 138.944 144.713 138.784 144.713 138.464V138.192C144.713 137.499 144.265 137.152 143.369 137.152C142.484 137.152 142.041 137.499 142.041 138.192V142.928C142.041 143.621 142.484 143.968 143.369 143.968C144.265 143.968 144.713 143.621 144.713 142.928V142.416C144.713 142.096 144.868 141.936 145.177 141.936H146.825C147.124 141.936 147.273 142.096 147.273 142.416ZM152.94 146H149.404C149.095 146 148.94 145.84 148.94 145.52V135.6C148.94 135.28 149.095 135.12 149.404 135.12H152.412C153.735 135.12 154.743 135.333 155.436 135.76C156.129 136.187 156.476 136.805 156.476 137.616V138.496C156.476 139.243 156.113 139.835 155.388 140.272C156.465 140.731 157.004 141.371 157.004 142.192V143.376C157.004 144.208 156.652 144.853 155.948 145.312C155.244 145.771 154.241 146 152.94 146ZM152.412 137.2H151.58V139.504H152.412C152.86 139.504 153.212 139.413 153.468 139.232C153.735 139.04 153.868 138.779 153.868 138.448V138.032C153.868 137.733 153.756 137.52 153.532 137.392C153.319 137.264 152.945 137.2 152.412 137.2ZM152.94 141.456H151.58V143.92H152.94C153.399 143.92 153.756 143.835 154.012 143.664C154.268 143.483 154.396 143.227 154.396 142.896V142.384C154.396 142.107 154.257 141.883 153.98 141.712C153.713 141.541 153.367 141.456 152.94 141.456ZM161.287 135.6V145.52C161.287 145.84 161.138 146 160.839 146H159.111C158.802 146 158.647 145.84 158.647 145.52V135.6C158.647 135.28 158.802 135.12 159.111 135.12H160.839C161.138 135.12 161.287 135.28 161.287 135.6ZM163.033 135.12H169.769C170.089 135.12 170.249 135.269 170.249 135.568V136.816C170.249 137.125 170.089 137.28 169.769 137.28H167.721V145.52C167.721 145.84 167.572 146 167.273 146H165.545C165.236 146 165.081 145.84 165.081 145.52V137.28H163.033C162.713 137.28 162.553 137.125 162.553 136.816V135.568C162.553 135.269 162.713 135.12 163.033 135.12ZM171.941 141.28V135.6C171.941 135.28 172.095 135.12 172.405 135.12H179.173C179.471 135.12 179.621 135.28 179.621 135.6V145.52C179.621 145.84 179.471 146 179.173 146H177.445C177.135 146 176.981 145.84 176.981 145.52V137.28H174.501V141.504C174.501 142.976 174.186 144.096 173.557 144.864C172.938 145.621 172.026 146 170.821 146H170.725C170.405 146 170.245 145.845 170.245 145.536V144.16C170.245 143.84 170.405 143.68 170.725 143.68H170.821C171.226 143.68 171.514 143.499 171.685 143.136C171.855 142.763 171.941 142.144 171.941 141.28ZM185.625 146.128C184.345 146.128 183.342 145.883 182.617 145.392C181.902 144.901 181.545 144.235 181.545 143.392V137.728C181.545 136.885 181.902 136.219 182.617 135.728C183.342 135.237 184.345 134.992 185.625 134.992C186.916 134.992 187.918 135.237 188.633 135.728C189.358 136.219 189.721 136.885 189.721 137.728V143.392C189.721 144.235 189.358 144.901 188.633 145.392C187.918 145.883 186.916 146.128 185.625 146.128ZM184.569 143.696C184.825 143.877 185.177 143.968 185.625 143.968C186.073 143.968 186.425 143.877 186.681 143.696C186.948 143.515 187.081 143.259 187.081 142.928V138.192C187.081 137.861 186.948 137.605 186.681 137.424C186.425 137.243 186.073 137.152 185.625 137.152C185.177 137.152 184.825 137.243 184.569 137.424C184.313 137.605 184.185 137.861 184.185 138.192V142.928C184.185 143.259 184.313 143.515 184.569 143.696Z" fill="white"/>
    <defs>
        <filter id="filter0_d_55_9" x="0" y="0" width="175" height="175" filterUnits="userSpaceOnUse" color-interpolation-filters="sRGB">
            <feFlood flood-opacity="0" result="BackgroundImageFix"/>
            <feColorMatrix in="SourceAlpha" type="matrix" values="0 0 0 0 0 0 0 0 0 0 0 0 0 0 0 0 0 0 127 0" result="hardAlpha"/>
            <feOffset/>
            <feGaussianBlur stdDeviation="30"/>
            <feComposite in2="hardAlpha" operator="out"/>
            <feColorMatrix type="matrix" values="0 0 0 0 0.45 0 0 0 0 0.45 0 0 0 0 0.45 0 0 0 1 0"/>
            <feBlend mode="normal" in2="BackgroundImageFix" result="effect1_dropShadow_55_9"/>
            <feBlend mode="normal" in="SourceGraphic" in2="effect1_dropShadow_55_9" result="shape"/>
        </filter>
    </defs>
</svg>
