<svg width="190" height="175" viewBox="0 0 190 175" fill="none" xmlns="http://www.w3.org/2000/svg">
    <rect x="5.5" y="106.5" width="39" height="124" rx="19.5" transform="rotate(-90 5.5 106.5)" fill="#232323" stroke="#304FFE"/>
    <g filter="url(#filter0_d_6_16)">
        <path d="M75 115L75 80C75 68.9543 83.9543 60 95 60L130 60L130 95C130 106.046 121.046 115 110 115L75 115Z" fill="#304FFE"/>
    </g>
    <path d="M5.43375 146H1.89775C1.58841 146 1.43375 145.84 1.43375 145.52V135.6C1.43375 135.28 1.58841 135.12 1.89775 135.12H4.90575C6.22841 135.12 7.23641 135.333 7.92975 135.76C8.62308 136.187 8.96975 136.805 8.96975 137.616V138.496C8.96975 139.243 8.60708 139.835 7.88175 140.272C8.95908 140.731 9.49775 141.371 9.49775 142.192V143.376C9.49775 144.208 9.14575 144.853 8.44175 145.312C7.73775 145.771 6.73508 146 5.43375 146ZM4.90575 137.2H4.07375V139.504H4.90575C5.35375 139.504 5.70575 139.413 5.96175 139.232C6.22841 139.04 6.36175 138.779 6.36175 138.448V138.032C6.36175 137.733 6.24975 137.52 6.02575 137.392C5.81241 137.264 5.43908 137.2 4.90575 137.2ZM5.43375 141.456H4.07375V143.92H5.43375C5.89241 143.92 6.24975 143.835 6.50575 143.664C6.76175 143.483 6.88975 143.227 6.88975 142.896V142.384C6.88975 142.107 6.75108 141.883 6.47375 141.712C6.20708 141.541 5.86041 141.456 5.43375 141.456ZM16.1166 141.088L13.7806 145.6C13.642 145.867 13.4126 146 13.0926 146H11.5886C11.29 146 11.1406 145.84 11.1406 145.52V135.6C11.1406 135.28 11.29 135.12 11.5886 135.12H13.3166C13.626 135.12 13.7806 135.28 13.7806 135.6V141.232C13.9833 140.677 14.1753 140.245 14.3566 139.936L16.7406 135.52C16.8793 135.253 17.1086 135.12 17.4286 135.12H18.9326C19.2313 135.12 19.3806 135.28 19.3806 135.6V145.52C19.3806 145.84 19.2313 146 18.9326 146H17.2046C16.8953 146 16.7406 145.84 16.7406 145.52V139.728C16.634 140.027 16.426 140.48 16.1166 141.088ZM31.6329 135.6V145.52C31.6329 145.84 31.4835 146 31.1849 146H29.5369C29.2275 146 29.0729 145.84 29.0729 145.52V140.432C28.8809 141.221 28.7102 141.787 28.5609 142.128L27.8569 143.872C27.7395 144.192 27.5315 144.352 27.2329 144.352H25.8409C25.5742 144.352 25.3715 144.192 25.2329 143.872L24.3529 141.84C24.2675 141.637 24.1289 141.184 23.9369 140.48V145.52C23.9369 145.84 23.7875 146 23.4889 146H21.9209C21.6115 146 21.4569 145.84 21.4569 145.52V135.6C21.4569 135.28 21.6115 135.12 21.9209 135.12H23.5529C23.7662 135.12 23.9209 135.237 24.0169 135.472L26.0809 140.272C26.1875 140.528 26.3422 140.949 26.5449 141.536C26.7155 141.045 26.8702 140.635 27.0089 140.304L28.9929 135.472C29.0889 135.237 29.2489 135.12 29.4729 135.12H31.1849C31.4835 135.12 31.6329 135.28 31.6329 135.6ZM41.7746 135.6L38.7346 140.464L42.1746 145.52C42.26 145.648 42.2813 145.76 42.2386 145.856C42.196 145.952 42.0946 146 41.9346 146H39.6626C39.428 146 39.204 145.84 38.9906 145.52L36.4786 141.6H36.3506V145.52C36.3506 145.84 36.2013 146 35.9026 146H34.1746C33.8653 146 33.7106 145.84 33.7106 145.52V135.6C33.7106 135.28 33.8653 135.12 34.1746 135.12H35.9026C36.2013 135.12 36.3506 135.28 36.3506 135.6V139.68H36.4786L38.8946 135.6C39.076 135.28 39.3266 135.12 39.6466 135.12H41.5506C41.7106 135.12 41.8066 135.168 41.8386 135.264C41.8813 135.349 41.86 135.461 41.7746 135.6ZM46.0262 135.6V139.408H48.9222V135.6C48.9222 135.28 49.0769 135.12 49.3862 135.12H51.1142C51.4129 135.12 51.5622 135.28 51.5622 135.6V145.52C51.5622 145.84 51.4129 146 51.1142 146H49.3862C49.0769 146 48.9222 145.84 48.9222 145.52V141.568H46.0262V145.52C46.0262 145.84 45.8769 146 45.5782 146H43.8502C43.5409 146 43.3862 145.84 43.3862 145.52V135.6C43.3862 135.28 43.5409 135.12 43.8502 135.12H45.5782C45.8769 135.12 46.0262 135.28 46.0262 135.6ZM61.848 135.6L58.472 143.152C57.9707 144.272 57.464 145.029 56.952 145.424C56.44 145.808 55.7467 146 54.872 146H54.632C54.312 146 54.152 145.845 54.152 145.536V144.304C54.152 143.984 54.312 143.824 54.632 143.824H54.872C55.2133 143.824 55.4853 143.76 55.688 143.632C55.9013 143.493 56.0827 143.264 56.232 142.944L53.032 135.6C52.8933 135.28 53.0053 135.12 53.368 135.12H55.32C55.576 135.12 55.768 135.28 55.896 135.6L57.096 138.784C57.256 139.2 57.4107 139.691 57.56 140.256C57.8587 139.307 58.0133 138.816 58.024 138.784L59.24 135.6C59.3573 135.28 59.544 135.12 59.8 135.12H61.496C61.6667 135.12 61.784 135.163 61.848 135.248C61.912 135.333 61.912 135.451 61.848 135.6ZM62.7296 135.12H69.4656C69.7856 135.12 69.9456 135.269 69.9456 135.568V136.816C69.9456 137.125 69.7856 137.28 69.4656 137.28H67.4176V145.52C67.4176 145.84 67.2683 146 66.9696 146H65.2416C64.9323 146 64.7776 145.84 64.7776 145.52V137.28H62.7296C62.4096 137.28 62.2496 137.125 62.2496 136.816V135.568C62.2496 135.269 62.4096 135.12 62.7296 135.12ZM76.186 141.088L73.85 145.6C73.7113 145.867 73.482 146 73.162 146H71.658C71.3593 146 71.21 145.84 71.21 145.52V135.6C71.21 135.28 71.3593 135.12 71.658 135.12H73.386C73.6953 135.12 73.85 135.28 73.85 135.6V141.232C74.0527 140.677 74.2447 140.245 74.426 139.936L76.81 135.52C76.9487 135.253 77.178 135.12 77.498 135.12H79.002C79.3007 135.12 79.45 135.28 79.45 135.6V145.52C79.45 145.84 79.3007 146 79.002 146H77.274C76.9647 146 76.81 145.84 76.81 145.52V139.728C76.7033 140.027 76.4953 140.48 76.186 141.088ZM92.2733 142.416V143.392C92.2733 144.256 91.9319 144.928 91.2492 145.408C90.5773 145.888 89.6066 146.128 88.3372 146.128C87.0679 146.128 86.0919 145.888 85.4092 145.408C84.7372 144.928 84.4012 144.256 84.4012 143.392V137.728C84.4012 136.864 84.7372 136.192 85.4092 135.712C86.0919 135.232 87.0679 134.992 88.3372 134.992C89.6066 134.992 90.5773 135.232 91.2492 135.712C91.9319 136.192 92.2733 136.864 92.2733 137.728V138.464C92.2733 138.784 92.1239 138.944 91.8252 138.944H90.1772C89.8679 138.944 89.7133 138.784 89.7133 138.464V138.192C89.7133 137.499 89.2653 137.152 88.3692 137.152C87.4839 137.152 87.0412 137.499 87.0412 138.192V142.928C87.0412 143.621 87.4839 143.968 88.3692 143.968C89.2653 143.968 89.7133 143.621 89.7133 142.928V142.416C89.7133 142.096 89.8679 141.936 90.1772 141.936H91.8252C92.1239 141.936 92.2733 142.096 92.2733 142.416ZM97.94 146H94.404C94.0947 146 93.94 145.84 93.94 145.52V135.6C93.94 135.28 94.0947 135.12 94.404 135.12H97.412C98.7347 135.12 99.7427 135.333 100.436 135.76C101.129 136.187 101.476 136.805 101.476 137.616V138.496C101.476 139.243 101.113 139.835 100.388 140.272C101.465 140.731 102.004 141.371 102.004 142.192V143.376C102.004 144.208 101.652 144.853 100.948 145.312C100.244 145.771 99.2413 146 97.94 146ZM97.412 137.2H96.58V139.504H97.412C97.86 139.504 98.212 139.413 98.468 139.232C98.7347 139.04 98.868 138.779 98.868 138.448V138.032C98.868 137.733 98.756 137.52 98.532 137.392C98.3187 137.264 97.9453 137.2 97.412 137.2ZM97.94 141.456H96.58V143.92H97.94C98.3987 143.92 98.756 143.835 99.012 143.664C99.268 143.483 99.396 143.227 99.396 142.896V142.384C99.396 142.107 99.2573 141.883 98.98 141.712C98.7133 141.541 98.3667 141.456 97.94 141.456ZM106.287 135.6V145.52C106.287 145.84 106.138 146 105.839 146H104.111C103.802 146 103.647 145.84 103.647 145.52V135.6C103.647 135.28 103.802 135.12 104.111 135.12H105.839C106.138 135.12 106.287 135.28 106.287 135.6ZM108.033 135.12H114.769C115.089 135.12 115.249 135.269 115.249 135.568V136.816C115.249 137.125 115.089 137.28 114.769 137.28H112.721V145.52C112.721 145.84 112.572 146 112.273 146H110.545C110.236 146 110.081 145.84 110.081 145.52V137.28H108.033C107.713 137.28 107.553 137.125 107.553 136.816V135.568C107.553 135.269 107.713 135.12 108.033 135.12ZM116.941 141.28V135.6C116.941 135.28 117.095 135.12 117.405 135.12H124.173C124.471 135.12 124.621 135.28 124.621 135.6V145.52C124.621 145.84 124.471 146 124.173 146H122.445C122.135 146 121.981 145.84 121.981 145.52V137.28H119.501V141.504C119.501 142.976 119.186 144.096 118.557 144.864C117.938 145.621 117.026 146 115.821 146H115.725C115.405 146 115.245 145.845 115.245 145.536V144.16C115.245 143.84 115.405 143.68 115.725 143.68H115.821C116.226 143.68 116.514 143.499 116.685 143.136C116.855 142.763 116.941 142.144 116.941 141.28ZM130.625 146.128C129.345 146.128 128.342 145.883 127.617 145.392C126.902 144.901 126.545 144.235 126.545 143.392V137.728C126.545 136.885 126.902 136.219 127.617 135.728C128.342 135.237 129.345 134.992 130.625 134.992C131.916 134.992 132.918 135.237 133.633 135.728C134.358 136.219 134.721 136.885 134.721 137.728V143.392C134.721 144.235 134.358 144.901 133.633 145.392C132.918 145.883 131.916 146.128 130.625 146.128ZM129.569 143.696C129.825 143.877 130.177 143.968 130.625 143.968C131.073 143.968 131.425 143.877 131.681 143.696C131.948 143.515 132.081 143.259 132.081 142.928V138.192C132.081 137.861 131.948 137.605 131.681 137.424C131.425 137.243 131.073 137.152 130.625 137.152C130.177 137.152 129.825 137.243 129.569 137.424C129.313 137.605 129.185 137.861 129.185 138.192V142.928C129.185 143.259 129.313 143.515 129.569 143.696Z" fill="white"/>
    <defs>
        <filter id="filter0_d_6_16" x="15" y="0" width="175" height="175" filterUnits="userSpaceOnUse" color-interpolation-filters="sRGB">
            <feFlood flood-opacity="0" result="BackgroundImageFix"/>
            <feColorMatrix in="SourceAlpha" type="matrix" values="0 0 0 0 0 0 0 0 0 0 0 0 0 0 0 0 0 0 127 0" result="hardAlpha"/>
            <feOffset/>
            <feGaussianBlur stdDeviation="30"/>
            <feComposite in2="hardAlpha" operator="out"/>
            <feColorMatrix type="matrix" values="0 0 0 0 0.188235 0 0 0 0 0.309804 0 0 0 0 0.996078 0 0 0 1 0"/>
            <feBlend mode="normal" in2="BackgroundImageFix" result="effect1_dropShadow_6_16"/>
            <feBlend mode="normal" in="SourceGraphic" in2="effect1_dropShadow_6_16" result="shape"/>
        </filter>
    </defs>
</svg>
