<svg width="151" height="152" viewBox="0 0 151 152" fill="none" xmlns="http://www.w3.org/2000/svg">
    <path d="M43.4946 0.929687L29.508 22.0654L15.8446 0.929687L0 0.929688V60.8344H14.4482V25.3716L23.9169 40.016H34.955L45.0814 24.7138V60.8344H59.5296V0.929687L43.4946 0.929687Z" fill="#222D4A"/>
    <path d="M40.7305 90.9531L29.4847 108.684L18.6254 90.9531H1.68457L22.174 124.408V150.91H36.6222V124.408L57.8387 90.9531H40.7305Z" fill="#00BDF2"/>
    <path d="M119.585 90.0039C102.54 90.0039 88.6807 103.869 88.6807 120.908C88.6807 137.947 102.546 151.813 119.585 151.813C136.624 151.813 150.489 137.947 150.489 120.908C150.495 103.864 136.63 90.0039 119.585 90.0039ZM136.047 120.908C136.047 129.985 128.661 137.364 119.585 137.364C110.509 137.364 103.123 129.979 103.123 120.908C103.123 111.838 110.509 104.446 119.585 104.446C128.661 104.446 136.047 111.832 136.047 120.908Z" fill="#222D4A"/>
    <path d="M119.585 0C102.54 0 88.6807 13.8654 88.6807 30.9044C88.6807 47.9434 102.546 61.8088 119.585 61.8088C136.624 61.8088 150.489 47.9434 150.489 30.9044C150.495 13.8654 136.63 0 119.585 0ZM136.047 30.9044C136.047 39.9807 128.661 47.3664 119.585 47.3664C110.509 47.3664 103.123 39.9807 103.123 30.9044C103.123 21.8281 110.509 14.4424 119.585 14.4424C128.661 14.4482 136.047 21.8339 136.047 30.9044Z" fill="#00BDF2"/>
</svg>
